<svg width="734" height="1026" viewBox="0 0 734 1026" fill="none" xmlns="http://www.w3.org/2000/svg">
<rect width="734" height="1024" transform="translate(0 1)" fill="#C7AC84"/>
<path d="M367 164L566.186 279V509L367 624M367 164L167.814 279V509L367 624M367 164L694 352.704M367 624L40 435.281M40 65.5506C36.8315 66.4936 33.4749 67 30 67V358.475L40 352.704V65.5506ZM40 65.5506C51.6202 62.0923 60.7113 52.7616 63.832 41M40 65.5506V41H63.832M63.832 41C64.594 38.1282 65 35.1115 65 32C65 31.6656 64.9953 31.3322 64.986 31H315.341M63.832 41H298.121L315.341 31M63.5506 985C64.4936 988.169 65 991.525 65 995H315.014L297.685 985H63.5506ZM63.5506 985C60.1909 973.711 51.2889 964.809 40 961.449M63.5506 985H40V961.449M40 961.449C36.8315 960.506 33.4749 960 30 960V429.51L40 435.281M40 961.449V435.281M694 961.449C697.169 960.506 700.525 960 704 960V429.51L694 435.281V961.449ZM694 961.449C682.711 964.809 673.809 973.711 670.449 985M694 961.449V985H670.449M670.449 985C669.506 988.169 669 991.525 669 995H418.986M670.449 985H436.315L418.986 995M694 65.5506C697.169 66.4936 700.525 67 704 67V358.475L694 352.704M694 65.5506C682.38 62.0923 673.289 52.7616 670.168 41M694 65.5506V41H670.168M694 65.5506V352.704M670.168 41C669.406 38.1282 669 35.1115 669 32C669 31.6656 669.005 31.3322 669.014 31H418.659L435.879 41H670.168ZM315.341 31L367 1M418.986 995L367 1025M369.46 472.616C369.759 471.05 370.061 469.473 370.366 467.879C370.561 467.1 370.749 466.329 370.936 465.564L370.937 465.562L370.937 465.56C371.365 463.809 371.786 462.091 372.249 460.383C374.081 453.632 376.504 447.093 379.583 440.811C381.433 437.036 383.583 433.429 385.997 429.975C390.612 423.372 396.172 417.687 402.663 412.938C409.783 407.728 417.658 403.94 425.955 401.005C432.985 398.517 440.195 396.682 447.487 395.148L447.541 395.137C447.576 395.13 447.612 395.122 447.647 395.115C448.086 395.025 448.533 394.932 448.923 394.736C449.187 394.603 449.481 394.23 449.482 393.964C449.484 393.709 449.161 393.404 448.911 393.211C448.76 393.093 448.551 393.046 448.346 393C448.28 392.986 448.214 392.971 448.15 392.954C447.311 392.729 446.471 392.506 445.63 392.284C444.159 391.893 442.688 391.503 441.221 391.102C432.72 388.776 424.407 385.96 416.632 381.724C412.309 379.369 408.322 376.554 404.709 373.213C400.799 369.599 397.621 365.394 394.849 360.873C391.997 356.22 389.806 351.248 387.894 346.152C385.29 339.209 383.362 332.065 381.737 324.838C379.341 314.187 377.584 303.422 376.124 292.609C375.31 286.575 374.572 280.53 373.866 274.483C373.422 270.675 373.038 266.859 372.655 263.044C372.564 262.144 372.474 261.243 372.383 260.343C372.037 256.932 371.715 253.518 371.396 250.105C371.031 246.193 370.67 242.28 370.325 238.366C370.129 236.15 369.948 233.932 369.767 231.714C369.697 230.861 369.627 230.008 369.556 229.154C369.488 228.328 369.419 227.501 369.35 226.675C369.132 224.047 368.914 221.419 368.703 218.791C368.619 217.738 368.541 216.686 368.463 215.633C368.372 214.42 368.282 213.206 368.183 211.993C368.145 211.535 368.046 211.077 367.923 210.633C367.81 210.223 367.486 209.927 367.067 210.016C366.73 210.088 366.332 210.299 366.153 210.574C365.993 210.82 365.97 211.167 365.949 211.497L365.949 211.5L365.949 211.504L365.946 211.551L365.943 211.584C365.942 211.604 365.94 211.624 365.939 211.644C365.938 211.658 365.937 211.673 365.936 211.687C365.882 212.34 365.836 212.994 365.79 213.648C365.742 214.339 365.694 215.03 365.636 215.72C365.467 217.748 365.293 219.776 365.12 221.804C364.932 223.997 364.745 226.191 364.562 228.384C364.432 229.947 364.307 231.511 364.183 233.074L364.183 233.077L364.182 233.081L364.182 233.085C363.983 235.588 363.783 238.091 363.561 240.592C363.172 244.955 362.745 249.315 362.317 253.674L362.258 254.282C362.112 255.771 361.97 257.261 361.827 258.75C361.423 262.975 361.019 267.201 360.537 271.417C359.673 278.959 358.779 286.5 357.738 294.019C356.142 305.552 354.234 317.034 351.48 328.361C349.436 336.766 346.948 345.021 343.366 352.917C339.895 360.57 335.431 367.527 329.215 373.287C327.172 375.181 325.011 376.908 322.723 378.483C319.986 380.366 317.131 382.059 314.09 383.402C313.981 383.45 313.872 383.498 313.763 383.547C313.625 383.608 313.486 383.669 313.347 383.731L312.927 383.917C310.178 385.135 307.426 386.354 304.61 387.394C298.563 389.627 292.351 391.338 286.094 392.883C286.04 392.896 285.986 392.909 285.931 392.922C285.644 392.989 285.35 393.058 285.113 393.208C284.881 393.355 284.599 393.668 284.611 393.893C284.627 394.18 284.854 394.543 285.101 394.709C285.359 394.882 285.695 394.951 286.02 395.017C286.053 395.024 286.086 395.031 286.119 395.038C286.144 395.043 286.168 395.048 286.193 395.054C291.508 396.205 296.796 397.456 302.007 399.036C309.336 401.257 316.452 403.976 323.158 407.708C330.843 411.984 337.664 417.332 343.427 423.993C347.689 428.918 351.197 434.351 354.146 440.143C357.713 447.147 360.275 454.533 362.288 462.115C363.733 467.558 364.866 473.069 365.743 478.633C365.82 479.121 365.935 479.635 366.172 480.059C366.634 480.885 367.568 480.838 367.976 479.988C368.11 479.708 368.168 479.389 368.224 479.074C368.236 479.008 368.248 478.942 368.261 478.876C368.648 476.862 369.033 474.848 369.421 472.818L369.46 472.616ZM440.583 538.286C435.164 541.015 429.707 543.442 424.113 545.569C412.851 549.852 401.245 552.79 389.315 554.431C386.721 554.788 384.109 555.022 381.498 555.256C380.537 555.342 379.577 555.428 378.617 555.52C373.273 556.034 367.909 556.073 362.554 555.925C357.276 555.779 352.01 555.369 346.764 554.707C338.865 553.711 331.078 552.171 323.418 550.012C317.363 548.305 311.42 546.259 305.6 543.864C300.96 541.954 296.417 539.835 291.974 537.506C286.3 534.531 280.814 531.24 275.532 527.608C270.729 524.306 266.101 520.778 261.667 517C260.088 515.654 258.556 514.252 257.024 512.849C256.736 512.586 256.448 512.322 256.16 512.059L256.119 512.022C254.881 510.891 253.641 509.758 252.462 508.566L252.295 508.397C250.671 506.754 249.044 505.108 247.53 503.367C244.697 500.111 241.87 496.843 239.185 493.466C233.922 486.843 229.285 479.795 225.163 472.405C222.474 467.585 220.048 462.641 217.86 457.577C217.765 457.357 217.684 457.13 217.577 456.831C217.518 456.667 217.452 456.482 217.371 456.263C217.551 456.351 217.702 456.419 217.832 456.478C218.062 456.581 218.225 456.655 218.368 456.757C222.856 459.972 227.511 462.924 232.312 465.647C238.019 468.885 243.875 471.835 249.945 474.323C254.867 476.34 259.821 478.3 264.849 480.03C272.548 482.679 280.414 484.774 288.366 486.542C297.525 488.579 306.774 490.077 316.096 491.11C320.117 491.556 324.157 491.856 328.194 492.124C331.654 492.354 335.121 492.478 338.587 492.586C342.208 492.699 345.832 492.788 349.454 492.781C350.748 492.778 351.538 493.184 352.047 494.394C352.652 495.832 353.286 497.259 353.92 498.686L353.922 498.69C354.931 500.962 355.94 503.234 356.832 505.55C358.634 510.227 360.339 514.941 362.044 519.655C362.647 521.321 363.249 522.986 363.856 524.65C364.253 525.739 364.631 526.835 365.008 527.931C365.208 528.512 365.408 529.092 365.611 529.672C365.86 530.383 366.149 531.11 367.061 531.088C367.894 531.067 368.214 530.387 368.447 529.721C368.83 528.625 369.204 527.527 369.578 526.428L369.579 526.426L369.58 526.423C370.15 524.75 370.72 523.077 371.322 521.415C371.686 520.412 372.048 519.408 372.41 518.404L372.411 518.403C374.024 513.932 375.638 509.46 377.372 505.036C378.276 502.729 379.299 500.469 380.323 498.209L380.324 498.207L380.325 498.204C380.923 496.883 381.521 495.563 382.096 494.232C382.575 493.122 383.334 492.617 384.53 492.428C393.942 490.942 402.858 487.894 411.374 483.669C416.528 481.112 421.419 478.119 426.113 474.775C431.64 470.838 436.617 466.298 441.211 461.346C445.597 456.618 449.435 451.456 452.752 445.904C455.29 441.657 457.512 437.264 459.428 432.71C461.18 428.545 462.573 424.259 463.784 419.91C464.03 419.029 464.323 418.16 464.616 417.293L464.7 417.047C464.761 416.865 464.853 416.693 464.969 416.476C465.03 416.362 465.098 416.235 465.172 416.087C465.555 416.846 465.595 417.537 465.633 418.194C465.636 418.249 465.639 418.304 465.642 418.358L465.644 418.387L465.646 418.418L465.647 418.429L465.648 418.445C465.734 419.75 465.802 421.055 465.87 422.361V422.363C465.958 424.057 466.046 425.75 466.173 427.441C466.503 431.804 466.44 436.17 466.378 440.534V440.541C466.362 441.607 466.347 442.672 466.337 443.738C466.315 446.172 466.124 448.605 465.933 451.038L465.933 451.042C465.859 451.989 465.784 452.935 465.72 453.882C465.349 459.346 464.663 464.774 463.823 470.183C462.099 481.288 459.55 492.201 456.191 502.927C453.204 512.469 449.641 521.786 445.395 530.84C445.109 531.449 444.814 532.054 444.519 532.659L444.519 532.66C444.02 533.684 443.521 534.707 443.067 535.75C442.564 536.907 441.852 537.789 440.583 538.286ZM256.96 440.802C258.043 441.844 259.13 442.891 260.212 443.952C260.505 444.213 260.788 444.463 261.064 444.706L261.066 444.708C261.415 445.016 261.753 445.315 262.089 445.617C267.462 450.447 273.232 454.767 279.194 458.832C284.136 462.202 289.291 465.232 294.586 468.013C296.616 469.079 298.687 470.067 300.757 471.055L300.759 471.056C301.369 471.347 301.978 471.638 302.587 471.931C302.616 471.945 302.646 471.96 302.676 471.975L302.694 471.985L302.741 472.01C303.083 472.189 303.464 472.389 304.033 472.058C303.938 471.953 303.852 471.852 303.769 471.755L303.768 471.754C303.599 471.555 303.444 471.374 303.267 471.216C302.724 470.73 302.173 470.252 301.622 469.775C300.571 468.863 299.519 467.952 298.523 466.983C296.176 464.702 293.843 462.399 291.635 459.985C288.823 456.91 286.335 453.568 283.994 450.117C280.672 445.221 277.838 440.059 275.445 434.655C273.238 429.674 271.536 424.519 270.096 419.267C269.149 415.813 267.57 412.641 265.354 409.816C262.952 406.754 259.996 404.293 256.782 402.121C253.636 399.995 250.245 398.324 246.855 396.652C246.199 396.329 245.543 396.006 244.889 395.679C244.8 395.634 244.709 395.593 244.618 395.551C244.427 395.464 244.237 395.377 244.064 395.263C243.11 394.637 243.045 393.434 243.947 392.736C244.236 392.513 244.572 392.346 244.904 392.18C244.988 392.139 245.071 392.098 245.153 392.055C250.832 389.143 256.281 385.863 261.139 381.702C263.717 379.495 266.113 377.091 267.934 374.174C269.498 371.67 270.361 368.903 270.746 366.038C271.063 363.671 271.28 361.291 271.497 358.91L271.497 358.909C271.665 357.068 271.832 355.227 272.046 353.392C272.883 346.232 273.887 339.095 275.206 332.005C276.907 322.862 279.032 313.821 281.893 304.968C284.899 295.669 288.564 286.644 293.279 278.061C296.067 272.985 299.101 268.068 302.533 263.403C305.208 259.767 308.017 256.238 311.132 252.966C311.618 252.455 312.102 251.939 312.585 251.422L312.586 251.421C314.159 249.741 315.734 248.058 317.444 246.529C319.858 244.369 322.355 242.302 324.852 240.234L324.854 240.233C325.948 239.326 327.043 238.419 328.131 237.505C328.295 237.368 328.448 237.219 328.602 237.07C328.673 237.001 328.745 236.932 328.817 236.864L328.679 236.628C328.539 236.656 328.399 236.683 328.259 236.709C327.958 236.765 327.657 236.822 327.361 236.895C316.992 239.451 306.984 243.009 297.311 247.54C291.678 250.179 286.264 253.204 280.976 256.462C276.738 259.071 272.683 261.947 268.708 264.942C262.906 269.313 257.5 274.133 252.352 279.239C249.728 281.841 247.26 284.606 244.801 287.369C240.643 292.04 236.861 297.01 233.334 302.171C227.312 310.984 222.224 320.308 218.038 330.128C214.171 339.198 211.178 348.547 208.987 358.153C208.831 358.838 208.831 359.634 209.016 360.307C209.095 360.593 209.173 360.878 209.251 361.164C210.071 364.15 210.891 367.139 211.878 370.071C214.947 379.184 218.721 387.996 223.274 396.478C227.421 404.205 232.088 411.591 237.295 418.644C241.192 423.922 245.343 428.996 249.855 433.753C252.143 436.165 254.541 438.473 256.958 440.8L256.96 440.802ZM465.588 509.605C467.985 499.37 469.853 489.137 471.039 478.787C471.526 474.539 472.002 470.287 472.334 466.026C472.622 462.342 472.748 458.644 472.856 454.95C472.983 450.638 473.084 446.323 473.061 442.01C473.045 439.087 472.849 436.162 472.639 433.245C472.614 432.89 472.589 432.535 472.564 432.181L472.564 432.18C472.341 429.038 472.118 425.893 471.698 422.776C471.153 418.731 470.412 414.71 469.637 410.701C469.403 409.493 469.658 408.692 470.485 407.813C473.833 404.256 477.811 401.572 482.076 399.281C483.687 398.416 485.321 397.592 486.955 396.768C487.8 396.342 488.645 395.916 489.487 395.484C489.759 395.344 490.038 395.194 490.265 394.993C490.99 394.352 491.023 393.543 490.292 392.899C489.865 392.524 489.344 392.238 488.83 391.983C485.161 390.165 481.633 388.109 478.269 385.774C475.256 383.683 472.353 381.455 469.792 378.814C467.04 375.975 464.958 372.78 463.924 368.882C462.021 361.708 459.298 354.827 455.937 348.209C452.309 341.066 447.91 334.431 442.697 328.334C440.339 325.575 437.854 322.938 435.201 320.472C431.185 316.741 426.903 313.334 422.31 310.327C422.079 310.176 421.852 310.018 421.606 309.846C421.561 309.815 421.515 309.783 421.468 309.75C421.39 309.696 421.31 309.64 421.227 309.583C421.613 309.194 421.94 309.322 422.23 309.436C422.259 309.447 422.288 309.459 422.317 309.469C422.336 309.476 422.355 309.483 422.374 309.49L422.786 309.627L422.789 309.629L422.791 309.629C424.59 310.231 426.389 310.834 428.172 311.48C433.69 313.481 439.04 315.872 444.248 318.572C449.833 321.469 455.21 324.706 460.345 328.358C464.847 331.561 469.119 335.041 473.168 338.781C477.248 342.547 481.032 346.61 484.583 350.889C489.051 356.273 493.01 362.016 496.571 368.023C499.777 373.431 502.556 379.068 505.019 384.858C510.111 396.829 513.688 409.25 516.118 422.014C517.344 428.454 518.309 434.931 518.951 441.456C519.147 443.449 519.35 445.442 519.556 447.434C519.649 448.331 519.554 449.191 519.234 450.045C517.004 456.009 514.456 461.836 511.539 467.492C506.346 477.56 500.221 487.035 493.033 495.801C490.762 498.571 488.368 501.243 485.953 503.889C483.98 506.051 481.95 508.17 479.842 510.2C475.121 514.749 470.203 519.076 464.913 522.965C464.521 523.253 464.136 523.55 463.75 523.848C463.403 524.116 463.056 524.384 462.703 524.645C462.5 524.796 462.283 524.929 462.056 525.068C461.949 525.133 461.84 525.2 461.729 525.271C461.429 524.857 461.545 524.524 461.654 524.211L461.655 524.209C461.663 524.187 461.67 524.166 461.677 524.144C461.682 524.131 461.687 524.117 461.691 524.103C461.704 524.066 461.715 524.028 461.725 523.991C462.625 520.629 463.529 517.267 464.441 513.872L464.486 513.703C464.852 512.343 465.219 510.978 465.588 509.605ZM512.103 321.858L512.097 321.847C511.95 321.585 511.802 321.319 511.653 321.05C511.611 321.019 511.569 320.987 511.528 320.956C511.492 320.929 511.456 320.902 511.42 320.875C511.297 320.781 511.174 320.688 511.053 320.596C510.476 320.157 509.926 319.738 509.344 319.371L508.369 318.755C506.217 317.395 504.065 316.034 501.87 314.744C494.74 310.552 487.277 307.042 479.543 304.118C471.629 301.125 463.522 298.777 455.239 297.042C448.666 295.665 442.04 294.646 435.347 294.038C430.047 293.557 424.741 293.22 419.42 293.206C416.715 293.198 414.009 293.276 411.303 293.354C410.695 293.371 410.088 293.388 409.48 293.405C407.557 293.457 405.635 293.543 403.714 293.63L403.712 293.63L402.896 293.667C402.435 293.687 401.971 293.735 401.519 293.827C400.568 294.021 400.39 294.296 400.728 295.186C401.111 296.194 401.525 297.195 402.002 298.161C402.155 298.472 402.282 298.741 402.392 298.975C402.722 299.673 402.904 300.059 403.201 300.307C403.566 300.613 404.105 300.71 405.308 300.928C405.401 300.945 405.498 300.963 405.599 300.981L405.71 301.001C414.486 302.609 423.134 304.735 431.615 307.495C440.362 310.343 448.788 313.953 456.863 318.376C466.732 323.783 475.682 330.435 483.76 338.247C486.25 340.654 488.601 343.22 490.865 345.843C496.09 351.898 500.693 358.406 504.72 365.323C509.761 373.982 513.864 383.069 517.195 392.504C520.937 403.105 523.682 413.972 525.67 425.033C525.719 425.302 525.791 425.566 525.863 425.83C525.896 425.954 525.93 426.077 525.961 426.2C526.321 425.893 526.474 425.595 526.583 425.281C526.736 424.841 526.882 424.399 527.028 423.957C527.185 423.484 527.341 423.011 527.506 422.541C530.203 414.835 534.763 408.48 541.276 403.532C544.942 400.747 548.892 398.42 552.912 396.199C553.014 396.142 553.118 396.086 553.221 396.031C553.628 395.811 554.037 395.59 554.401 395.313C555.195 394.709 555.194 393.677 554.433 393.026C554.242 392.862 554.023 392.729 553.805 392.598C553.758 392.569 553.711 392.541 553.665 392.512C548.475 389.317 543.309 386.087 538.681 382.086C535.658 379.472 533.006 376.531 530.921 373.111C528.184 368.622 526.387 363.741 525.213 358.648C522.501 346.884 518.66 335.515 513.541 324.581C513.112 323.663 512.616 322.777 512.103 321.858ZM502.704 305.464C502.521 305.396 502.336 305.333 502.151 305.27C501.753 305.135 501.355 304.999 500.982 304.814C493.68 301.194 486.182 298.043 478.418 295.557C469.956 292.847 461.342 290.729 452.542 289.465C447.584 288.752 442.596 288.225 437.613 287.702C435.508 287.481 433.381 287.437 431.262 287.396C430.314 287.378 429.366 287.358 428.417 287.337L428.415 287.337C424.276 287.25 420.136 287.162 415.999 287.209C413.254 287.24 410.511 287.426 407.768 287.612L407.766 287.612C406.817 287.676 405.868 287.74 404.919 287.798C403.822 287.865 402.725 287.955 401.629 288.045L401.628 288.045C400.804 288.113 399.979 288.181 399.155 288.239C398.285 288.3 398.005 288.098 397.671 287.112L397.349 286.161C396.591 283.922 395.833 281.682 395.133 279.425C390.797 265.447 387.738 251.165 385.029 236.801C384.979 236.537 384.926 236.273 384.874 236.009C384.784 235.554 384.693 235.1 384.616 234.643C384.389 233.297 384.709 232.97 386.098 233.129C387.324 233.269 388.55 233.413 389.771 233.587C397.227 234.651 404.592 236.157 411.836 238.223C419.114 240.298 426.225 242.838 433.154 245.897C441.326 249.505 449.111 253.807 456.585 258.684C462.537 262.568 468.127 266.934 473.509 271.563C477.428 274.934 481.16 278.511 484.702 282.273C490.364 288.289 495.582 294.673 500.24 301.504C501.016 302.641 501.74 303.815 502.496 305.041L502.698 305.368C502.716 305.452 502.704 305.464 502.704 305.464ZM226.259 449.753L226.26 449.754C227.375 450.607 228.493 451.463 229.612 452.329C236.927 457.525 244.562 462.027 252.523 465.971C257.084 468.23 261.727 470.309 266.463 472.191C273.966 475.171 281.615 477.691 289.415 479.756C298.303 482.11 307.314 483.834 316.453 484.86C318.213 485.057 319.981 485.184 321.749 485.312C322.365 485.356 322.982 485.4 323.598 485.448C323.622 485.449 323.646 485.452 323.671 485.455C323.695 485.458 323.719 485.461 323.743 485.464C324.028 485.499 324.337 485.538 324.504 485.119C324.334 484.673 323.949 484.593 323.564 484.514C323.468 484.494 323.373 484.474 323.28 484.449C321.981 484.091 320.678 483.747 319.374 483.404L319.374 483.404L319.372 483.403C316.462 482.636 313.551 481.869 310.691 480.945C305.295 479.203 300.068 477 294.921 474.605C287.072 470.952 279.518 466.774 272.333 461.956C269.263 459.897 266.278 457.71 263.294 455.524C262.483 454.931 261.673 454.337 260.86 453.746C255.77 450.041 251.085 445.848 246.513 441.539C242.276 437.547 238.276 433.319 234.469 428.905C230.333 424.11 226.482 419.098 222.952 413.851C221.171 411.204 219.531 408.461 217.892 405.719C217.493 405.052 217.095 404.386 216.694 403.721C213.584 398.555 211.102 393.077 208.771 387.53C206.917 383.118 205.448 378.568 204.064 373.99C203.985 373.731 203.881 373.48 203.773 373.22C203.722 373.097 203.67 372.972 203.62 372.843C203.531 372.884 203.456 372.913 203.394 372.937C203.289 372.977 203.221 373.004 203.182 373.053C202.941 373.352 202.702 373.657 202.498 373.983C199.859 378.196 196.306 381.527 192.393 384.525C188.65 387.392 184.652 389.869 180.65 392.342C180.582 392.384 180.514 392.425 180.446 392.466C180.216 392.605 179.986 392.743 179.777 392.908C178.707 393.755 178.745 394.645 179.871 395.424C179.997 395.511 180.129 395.588 180.261 395.665C180.296 395.685 180.33 395.705 180.365 395.725C181.145 396.185 181.928 396.639 182.71 397.094C184.429 398.092 186.147 399.089 187.835 400.136C192.314 402.913 196.424 406.131 199.779 410.253C203.52 414.85 205.944 420.106 207.6 425.736C208.278 428.043 208.867 430.376 209.456 432.708C209.66 433.516 209.864 434.323 210.072 435.129C210.271 435.903 210.638 436.554 211.224 437.091C211.947 437.755 212.661 438.429 213.375 439.104L213.377 439.106C214.934 440.576 216.49 442.047 218.142 443.399C220.793 445.569 223.514 447.652 226.259 449.753ZM291.352 328.305C290.696 329.166 290.038 330.018 289.383 330.866C287.728 333.01 286.09 335.131 284.539 337.313C283.587 338.652 282.744 340.069 281.901 341.486C281.481 342.192 281.062 342.897 280.629 343.593C280.463 343.859 280.27 344.109 280.056 344.386C279.95 344.523 279.839 344.667 279.724 344.823C279.274 344.168 279.389 343.633 279.498 343.125C279.507 343.083 279.516 343.042 279.525 343C279.626 342.513 279.726 342.026 279.827 341.539C280.311 339.195 280.795 336.851 281.316 334.515C283.156 326.268 285.389 318.129 288.113 310.13C291.591 299.921 295.929 290.102 301.473 280.83C305.322 274.394 309.724 268.367 314.598 262.67C317.988 258.708 321.661 255.017 325.456 251.46C330.975 246.289 336.896 241.591 343.086 237.238C344.757 236.063 346.435 234.896 348.126 233.749C348.36 233.59 348.623 233.475 348.952 233.331C349.126 233.255 349.318 233.171 349.535 233.069C349.519 233.312 349.511 233.524 349.505 233.716C349.492 234.075 349.481 234.362 349.427 234.64C349.159 236.007 348.894 237.374 348.628 238.74C347.821 242.898 347.013 247.056 346.144 251.201C344.291 260.032 342.128 268.788 339.544 277.436C337.356 284.756 334.802 291.943 331.689 298.927C331.219 299.982 330.519 300.659 329.44 301.087C322.965 303.66 316.842 306.914 311.061 310.794C306.668 313.742 302.56 317.045 298.682 320.657C296.648 322.551 294.777 324.587 292.876 326.653C292.371 327.202 291.865 327.754 291.352 328.305Z" stroke="#E3CAA8" stroke-width="2px" />
</svg>
