<svg width="130" height="22" viewBox="0 0 130 22" fill="none" xmlns="http://www.w3.org/2000/svg">
<path d="M75 0.5H95M75 0.5C79.6791 0.5 83.6434 3.56066 85 7.78918C86.3566 3.56066 90.3209 0.5 95 0.5M75 0.5H55M75 0.5C70.3209 0.5 66.3566 3.56066 65 7.78918C63.6434 3.56066 59.6791 0.5 55 0.5M95 0.5H115C110.321 0.5 106.357 3.56066 105 7.78918C103.643 3.56066 99.6791 0.5 95 0.5ZM55 0.5H35M55 0.5C50.3209 0.5 46.3566 3.56066 45 7.78918C43.6434 3.56066 39.6791 0.5 35 0.5M35 0.5H15C19.6791 0.5 23.6434 3.56066 25 7.78918C26.3566 3.56066 30.3209 0.5 35 0.5ZM7.5 0.5H122.5M1.5 0.5L5 4L8.5 0.5H1.5ZM121.5 0.5L125 4L128.5 0.5H121.5Z" stroke="#C7AC84"/>
</svg>
