<svg width="16" height="16" viewBox="0 0 16 16" fill="none" xmlns="http://www.w3.org/2000/svg">
<circle cx="8" cy="8" r="8" fill="black"/>
<circle cx="7" cy="7" r="6.5" transform="matrix(1 0 0 -1 1 15)" fill="#1C1C1A" stroke="#D3BA84"/>
<path d="M10 8.5C10.2761 8.5 10.5 8.27614 10.5 8C10.5 7.72386 10.2761 7.5 10 7.5C9.17157 7.5 8.5 6.82843 8.5 6C8.5 5.72386 8.27614 5.5 8 5.5C7.72386 5.5 7.5 5.72386 7.5 6C7.5 6.82843 6.82843 7.5 6 7.5C5.72386 7.5 5.5 7.72386 5.5 8C5.5 8.27614 5.72386 8.5 6 8.5C6.82843 8.5 7.5 9.17157 7.5 10C7.5 10.2761 7.72386 10.5 8 10.5C8.27614 10.5 8.5 10.2761 8.5 10C8.5 9.17157 9.17157 8.5 10 8.5Z" fill="#D3BA84" stroke="#D3BA84" stroke-linejoin="round"/>
</svg>
