<svg width="40" height="25" viewBox="0 0 40 25" fill="none" xmlns="http://www.w3.org/2000/svg">
<g clip-path="url(#clip0_51_24975)">
<path d="M20 2.5C20 2.5 17 12.5 10 12.5C17 12.5 20 22.5 20 22.5C20 22.5 23 12.5 30 12.5C23 12.5 20 2.5 20 2.5Z" fill="#E3CAA8"/>
<path d="M10 12.5C17 12.5 20 2.5 20 2.5C20 2.5 23 12.5 30 12.5M10 12.5C17 12.5 20 22.5 20 22.5C20 22.5 23 12.5 30 12.5M10 12.5H0M30 12.5H40" stroke="#C7AC84"/>
<path d="M34.5 8C34.5 8 33.075 12.5 29.75 12.5C33.075 12.5 34.5 17 34.5 17C34.5 17 35.925 12.5 39.25 12.5C35.925 12.5 34.5 8 34.5 8Z" fill="#E3CAA8" stroke="#C7AC84"/>
<path d="M5.5 8C5.5 8 4.075 12.5 0.75 12.5C4.075 12.5 5.5 17 5.5 17C5.5 17 6.925 12.5 10.25 12.5C6.925 12.5 5.5 8 5.5 8Z" fill="#E3CAA8" stroke="#C7AC84"/>
</g>
<defs>
<clipPath id="clip0_51_24975">
<rect width="40" height="25" fill="white"/>
</clipPath>
</defs>
</svg>
