<svg width="30" height="34" viewBox="0 0 30 34" fill="none" xmlns="http://www.w3.org/2000/svg">
<path d="M15.519 1.13901L28.4813 8.62047C28.8024 8.80579 29 9.14818 29 9.51854V24.4815C29 24.8518 28.8024 25.1942 28.4813 25.3795L15.519 32.861C15.1978 33.0463 14.8022 33.0463 14.481 32.861L1.51874 25.3795C1.19765 25.1942 1 24.8518 1 24.4815V9.51854C1 9.14818 1.19765 8.8058 1.51874 8.62047L14.481 1.13901C14.8022 0.953664 15.1978 0.953664 15.519 1.13901Z" fill="black" stroke="#97A3AE" stroke-width="2"/>
<path d="M15.7689 0.705963L28.7312 8.18742C29.207 8.46203 29.5 8.96947 29.5 9.51854V24.4815C29.5 25.0305 29.207 25.538 28.7312 25.8126L15.7689 33.294C15.2931 33.5687 14.7069 33.5687 14.2311 33.294L1.2688 25.8126C0.793015 25.538 0.5 25.0305 0.5 24.4815V9.51854C0.5 8.96947 0.793015 8.46203 1.2688 8.18742L14.2311 0.705962C14.7069 0.431346 15.2931 0.431346 15.7689 0.705963Z" stroke="black"/>
<path d="M19.9868 10.176C20.1258 10.2534 20.2659 10.329 20.4036 10.4086C21.3499 10.955 22.2956 11.5026 23.2423 12.0484C23.2959 12.0793 23.3291 12.1073 23.3288 12.1789C23.3254 12.9939 23.3261 13.8089 23.3205 14.6357C23.3121 14.6522 23.3105 14.6574 23.3106 14.6631C23.0749 14.9315 22.8392 15.2 22.5957 15.4766C22.5818 15.4905 22.5811 15.4967 22.5855 15.5036C22.5845 15.5375 22.5827 15.5715 22.5827 15.6054C22.5825 16.5267 22.5826 17.4479 22.5826 18.3691C22.5826 18.4028 22.5826 18.4364 22.5826 18.4732C22.7033 18.5435 22.8204 18.6121 22.9378 18.6799C23.1438 18.7987 23.3495 18.9181 23.5566 19.0349C23.5999 19.0593 23.6189 19.0871 23.6188 19.1387C23.6172 20.0158 23.6176 20.8928 23.6174 21.7699C23.6174 21.7832 23.615 21.7966 23.613 21.817C20.7448 23.474 17.8746 25.1321 15.0019 26.7917C14.8333 26.6945 14.6686 26.6 14.5042 26.505C12.2892 25.2254 10.0743 23.9458 7.85944 22.6661C7.37706 22.3874 6.89496 22.1082 6.40577 21.8216C6.39657 21.8092 6.39296 21.8059 6.38801 21.8042C6.38626 21.7704 6.38299 21.7366 6.38298 21.7027C6.3827 20.86 6.3837 20.0173 6.38111 19.1745C6.38088 19.1014 6.40024 19.0593 6.46637 19.0225C6.75709 18.8606 7.04433 18.6924 7.33276 18.5264C7.36192 18.5097 7.39057 18.492 7.42158 18.4735C7.42158 18.4365 7.42159 18.4027 7.42159 18.3689C7.42159 17.4412 7.42107 16.5135 7.42269 15.5858C7.42281 15.5209 7.40714 15.4708 7.36273 15.4215C7.1513 15.1867 6.94442 14.9478 6.73352 14.7125C6.69436 14.6688 6.67928 14.6245 6.67939 14.5664C6.68093 13.7746 6.68156 12.9829 6.67862 12.1911C6.67833 12.1149 6.70728 12.0778 6.76995 12.0417C7.84706 11.4216 8.92281 10.7992 10.0102 10.1745C10.0252 10.1725 10.0287 10.1732 10.0322 10.174C10.0325 12.2086 10.0327 14.2431 10.0329 16.2776C10.033 16.5018 10.0334 16.726 10.035 16.9649C10.0478 16.9764 10.0594 16.9732 10.071 16.97C10.3997 16.7803 10.7285 16.5906 11.0677 16.3964C11.0839 16.3876 11.085 16.3823 11.0813 16.3761C11.0831 16.3321 11.0866 16.2881 11.0866 16.2441C11.0869 13.9341 11.0868 11.624 11.0868 9.3139C11.0868 9.29012 11.0904 9.26567 11.0862 9.24268C11.0727 9.1696 11.1114 9.1332 11.1701 9.10033C11.3479 9.0009 11.5232 8.89704 11.6995 8.79502C12.5986 8.27472 13.4977 7.75446 14.3969 7.23425C14.4057 7.22917 14.415 7.22496 14.4333 7.22187C14.4426 7.22339 14.4481 7.22322 14.4481 7.22322C14.4497 7.25368 14.4527 7.28414 14.4527 7.31459C14.4528 12.0115 14.4528 16.7084 14.4528 21.4054C14.4528 21.4156 14.4524 21.4258 14.446 21.4456C14.4326 21.456 14.4254 21.4568 14.4183 21.4577C14.0347 21.0871 13.6512 20.7165 13.2677 20.3459C12.6203 19.7204 11.973 19.0948 11.3189 18.4586C11.2965 18.4362 11.2808 18.4243 11.2651 18.4124C11.262 18.4163 11.259 18.4201 11.2559 18.424C11.2677 18.4434 11.2796 18.4628 11.2914 18.4821C11.5954 19.1349 11.8993 19.7877 12.2035 20.4404C12.4417 20.9514 12.6803 21.4623 12.9186 21.9734C12.9284 21.9945 12.937 22.0161 12.9549 22.0576C12.8956 22.0468 12.8518 22.04 12.8085 22.0307C12.6632 21.9995 12.5183 21.9669 12.3731 21.9357C12.1889 21.8962 12.0044 21.8579 11.8202 21.8184C11.626 21.7769 11.432 21.7344 11.2379 21.6926C11.0471 21.6515 10.8562 21.6108 10.6654 21.5698C10.4721 21.5282 10.279 21.4862 10.0856 21.4448C9.80455 21.3846 9.52346 21.3244 9.2422 21.265C9.02977 21.2201 8.81712 21.1763 8.60444 21.1326C8.59585 21.1309 8.58598 21.1353 8.56662 21.1385C10.7152 22.3083 12.8561 23.4739 15.0012 24.6417C17.1381 23.4783 19.2751 22.3155 21.4114 21.1514C21.4082 21.1431 21.405 21.1349 21.4017 21.1267C19.956 21.4365 18.5103 21.7462 17.0437 22.0604C17.6102 20.8454 18.1676 19.65 18.7249 18.4547C18.7187 18.4499 18.7125 18.4452 18.7063 18.4404C17.6681 19.4446 16.6298 20.4489 15.5804 21.4586C15.5651 21.465 15.561 21.4659 15.5568 21.4668C15.556 21.4329 15.5545 21.399 15.5545 21.365C15.5544 16.6864 15.5544 12.0078 15.5545 7.32926C15.5545 7.29869 15.5552 7.26811 15.5628 7.2285C15.5734 7.21906 15.5769 7.21866 15.5803 7.21826C16.6151 7.81769 17.6499 8.41711 18.6847 9.01656C18.7376 9.04721 18.7887 9.08175 18.8437 9.10783C18.9012 9.13504 18.9227 9.17638 18.918 9.23732C18.9154 9.27111 18.9177 9.30528 18.9177 9.33928C18.9177 11.6477 18.9183 13.9562 18.9154 16.2647C18.9153 16.355 18.9419 16.4038 19.0205 16.4476C19.3054 16.6064 19.5857 16.7733 19.8679 16.9368C19.8963 16.9532 19.9261 16.9672 19.9682 16.9891C19.9682 14.7225 19.9682 12.4696 19.9733 10.2046C19.983 10.1879 19.9858 10.1824 19.9868 10.176Z" fill="#97A3AE"/>
</svg>
