<svg width="30" height="34" viewBox="0 0 30 34" fill="none" xmlns="http://www.w3.org/2000/svg">
<path d="M15.519 1.13901L28.4813 8.62047C28.8024 8.80579 29 9.14818 29 9.51854V24.4815C29 24.8518 28.8024 25.1942 28.4813 25.3795L15.519 32.861C15.1978 33.0463 14.8022 33.0463 14.481 32.861L1.51874 25.3795C1.19765 25.1942 1 24.8518 1 24.4815V9.51854C1 9.14818 1.19765 8.8058 1.51874 8.62047L14.481 1.13901C14.8022 0.953664 15.1978 0.953664 15.519 1.13901Z" fill="black" stroke="#8F6193" stroke-width="2"/>
<path d="M15.7689 0.705963L28.7312 8.18742C29.207 8.46203 29.5 8.96947 29.5 9.51854V24.4815C29.5 25.0305 29.207 25.538 28.7312 25.8126L15.7689 33.294C15.2931 33.5687 14.7069 33.5687 14.2311 33.294L1.2688 25.8126C0.793015 25.538 0.5 25.0305 0.5 24.4815V9.51854C0.5 8.96947 0.793015 8.46203 1.2688 8.18742L14.2311 0.705962C14.7069 0.431346 15.2931 0.431346 15.7689 0.705963Z" stroke="black"/>
<path d="M11.9342 11.6308C11.8838 11.8153 11.8345 12.0002 11.7828 12.1843C11.7398 12.3373 11.7748 12.4824 11.8433 12.6151C11.8714 12.6693 11.9438 12.7201 12.0034 12.7307C12.0362 12.7365 12.0996 12.6625 12.123 12.6123C12.2517 12.335 12.3504 12.0416 12.4993 11.7762C13.2408 10.455 14.3647 9.64776 15.8458 9.34321C16.5605 9.19627 17.2718 9.20301 17.9669 9.4562C18.082 9.49812 18.1922 9.55342 18.3047 9.60254C18.3016 9.61744 18.2986 9.63233 18.2956 9.64723C18.244 9.64723 18.1924 9.6474 18.1407 9.6472C17.8446 9.6461 17.5661 9.71818 17.302 9.84954C17.2671 9.86692 17.2322 9.88685 17.2026 9.91191C17.1176 9.9839 17.1244 10.0584 17.23 10.0992C17.3162 10.1325 17.411 10.1538 17.5032 10.1594C17.8699 10.1818 18.2374 10.1904 18.6039 10.2142C19.1744 10.2512 19.7255 10.3884 20.2653 10.5686C20.9893 10.8102 21.6668 11.1457 22.2677 11.6215C22.8686 12.0975 23.2589 12.7179 23.4875 13.4449C23.5028 13.4935 23.5181 13.5422 23.5326 13.5911C23.5347 13.5981 23.5321 13.6064 23.5309 13.6314C23.4489 13.5317 23.3858 13.4289 23.2985 13.3545C23.1656 13.2415 23.0222 13.1371 22.8711 13.0504C22.7744 12.9949 22.6539 12.9926 22.5646 13.0845C22.4726 13.1792 22.4499 13.2937 22.4966 13.4206C22.6673 13.8847 22.8447 14.3464 23.0053 14.814C23.2558 15.5433 23.4237 16.2933 23.5089 17.0595C23.5482 17.4129 23.5739 17.7696 23.5755 18.1249C23.5774 18.5638 23.5313 18.9996 23.4519 19.4341C23.3179 20.1671 23.074 20.8586 22.7332 21.5179C22.5125 21.9451 22.245 22.3423 21.9425 22.7159C21.9262 22.736 21.9047 22.7521 21.8611 22.7595C21.8713 22.7267 21.8784 22.6925 21.8921 22.6612C22.1784 22.0039 22.3974 21.3253 22.515 20.6173C22.5495 20.4098 22.5558 20.1974 22.5701 19.9869C22.5878 19.7253 22.6221 19.4623 22.6103 19.2016C22.5901 18.7526 22.5483 18.3041 22.5002 17.8571C22.4143 17.0588 22.1882 16.2974 21.8644 15.5645C21.6501 15.0791 21.3577 14.6426 21.0139 14.2404C20.548 13.6956 20.0048 13.2403 19.3991 12.8586C19.3659 12.8377 19.3318 12.8181 19.2976 12.7989C19.2878 12.7934 19.2759 12.7916 19.2684 12.7892C19.2895 13.031 19.3105 13.2726 19.3316 13.5142C19.3212 13.5186 19.3108 13.523 19.3004 13.5274C19.2495 13.4676 19.2 13.4065 19.1474 13.3482C18.7681 12.9272 18.3293 12.5924 17.758 12.496C17.2137 12.4041 16.6848 12.4519 16.2272 12.8089C15.8655 13.0911 15.6935 13.6912 15.9234 14.1175C16.1358 14.5113 16.1565 14.9331 16.0585 15.3643C16.0526 15.39 16.0466 15.4158 16.0498 15.446C16.2263 15.2688 16.3719 15.0651 16.432 14.826C16.4843 14.618 16.6022 14.5435 16.7944 14.4978C17.1474 14.414 17.5033 14.3645 17.8643 14.3686C19.3954 14.3859 20.6352 15.3349 21.0459 16.7862C21.0541 16.8154 21.0581 16.8459 21.0442 16.888C21.0184 16.8573 20.9915 16.8274 20.9668 16.7959C20.8265 16.6167 20.6603 16.4673 20.45 16.3776C20.3732 16.3449 20.2834 16.3261 20.2003 16.3283C20.0529 16.3322 20.0072 16.4322 20.0951 16.5506C20.2003 16.6924 20.321 16.8228 20.4242 16.966C20.9233 17.6581 21.2305 18.4271 21.3231 19.2769C21.4499 20.4404 21.1906 21.5152 20.5561 22.4967C20.3238 22.8561 20.0318 23.163 19.669 23.397C19.6529 23.4073 19.636 23.4164 19.5994 23.4145C19.6149 23.3834 19.6295 23.3518 19.6459 23.3212C19.8078 23.0197 19.9229 22.7053 19.9033 22.3561C19.9009 22.3132 19.8838 22.2457 19.8567 22.2358C19.8181 22.2217 19.7513 22.2358 19.7189 22.2638C19.6548 22.3191 19.5934 22.3852 19.5526 22.4589C18.8548 23.7205 17.9058 24.7404 16.663 25.4796C16.1381 25.7919 15.5817 26.0302 14.9707 26.086C14.4827 26.1306 13.9919 26.1064 13.5137 25.945C13.6345 25.9253 13.7517 25.9145 13.8644 25.8857C13.9814 25.8558 14.0984 25.8177 14.2071 25.7658C14.2828 25.7297 14.3525 25.6717 14.4109 25.6102C14.5331 25.4815 14.5214 25.3033 14.3618 25.2351C14.1781 25.1567 13.9756 25.11 13.7767 25.0819C12.1555 24.8522 10.608 24.4037 9.22741 23.4965C7.94169 22.6516 7.03385 21.4899 6.467 20.0607C6.45117 20.0208 6.44196 19.9782 6.43201 19.9253C6.43436 19.9137 6.43942 19.9084 6.43942 19.9084C6.64456 20.1612 6.84418 20.4188 7.05596 20.6659C7.53963 21.2302 8.09498 21.7093 8.72695 22.1061C9.45983 22.5663 10.2258 22.9528 11.0557 23.1958C11.5169 23.3308 11.9897 23.4374 12.4644 23.5123C12.818 23.5681 13.1852 23.5861 13.5423 23.5619C14.3019 23.5105 15.0338 23.3202 15.7316 23.0111C15.9596 22.91 16.182 22.7963 16.4103 22.6867C16.1659 22.5794 15.9397 22.4801 15.7136 22.3808C15.7169 22.3707 15.7203 22.3606 15.7236 22.3505C15.8996 22.3083 16.078 22.2743 16.251 22.2225C17.1253 21.9607 17.6907 21.4005 17.8872 20.4966C18.0156 19.9063 17.6434 19.2704 17.0977 19.1462C16.9463 19.1117 16.7868 19.1137 16.6341 19.0833C16.3194 19.0208 16.041 18.882 15.8083 18.6573C15.7816 18.6315 15.753 18.6079 15.7252 18.5833C15.7146 18.5901 15.704 18.5969 15.6934 18.6037C15.7396 18.7049 15.7745 18.8134 15.8345 18.9056C15.9305 19.0529 16.0454 19.1877 16.1471 19.3315C16.1735 19.3688 16.2022 19.4249 16.1931 19.4638C15.9638 20.441 15.4861 21.257 14.6299 21.8158C14.1711 22.1152 13.662 22.2669 13.1163 22.323C12.7132 22.3644 12.3311 22.2815 11.9456 22.1973C11.9317 22.1943 11.9191 22.1851 11.8751 22.164C12.1475 22.1434 12.3834 22.0977 12.5894 21.9642C12.6768 21.9076 12.763 21.8399 12.8264 21.7589C12.863 21.7122 12.8732 21.6229 12.8557 21.5647C12.8465 21.5342 12.75 21.5108 12.6962 21.5164C12.5057 21.5359 12.3166 21.5693 12.1271 21.5976C12.104 21.6011 12.0813 21.6092 12.0583 21.6099C11.6304 21.6223 11.2019 21.6198 10.7813 21.5346C10.0893 21.3943 9.44258 21.1409 8.87011 20.7172C8.18242 20.2082 7.6237 19.5908 7.27548 18.8004C7.12141 18.4508 7.01376 18.0871 7.00262 17.7008C7.00209 17.6825 7.00255 17.6642 7.00255 17.6574C7.15288 17.8404 7.29785 18.0337 7.46162 18.2095C7.5508 18.3052 7.66805 18.3773 7.78069 18.4471C7.81976 18.4713 7.90069 18.4778 7.93048 18.4533C7.96153 18.4278 7.97546 18.347 7.95925 18.3048C7.91041 18.1777 7.8502 18.0537 7.78215 17.9356C7.28501 17.0727 6.95233 16.1505 6.79405 15.1679C6.67037 14.4 6.65006 13.6303 6.83746 12.8685C6.99915 12.2112 7.34769 11.6571 7.81481 11.1738C7.8194 11.1691 7.82887 11.169 7.85844 11.1598C7.83949 11.2096 7.82637 11.2464 7.81161 11.2825C7.72602 11.492 7.66722 11.7074 7.68878 11.9358C7.70003 12.0549 7.73029 12.1756 7.85459 12.228C7.97757 12.2799 8.08453 12.2271 8.17808 12.1453C8.21623 12.1119 8.25352 12.0767 8.28635 12.0382C8.66855 11.5901 9.03972 11.132 9.43387 10.6947C9.93535 10.1383 10.5096 9.66232 11.1232 9.23241C11.917 8.67621 12.7763 8.26417 13.7255 8.05994C14.0841 7.98278 14.4513 7.9302 14.8172 7.90707C15.2306 7.88094 15.647 7.89331 16.0617 7.90354C16.2483 7.90815 16.434 7.94819 16.6202 7.97216C16.6196 7.98459 16.619 7.99703 16.6185 8.00946C16.4391 8.03556 16.2598 8.06253 16.0803 8.08761C15.0725 8.22837 14.1338 8.56464 13.2528 9.07232C12.4753 9.52037 11.7702 10.0598 11.136 10.6945C10.2247 11.6066 9.63045 12.687 9.39367 13.9579C9.31464 14.3821 9.25903 14.8096 9.26564 15.2262C9.46245 15.0985 9.66296 14.9683 9.87187 14.8383C9.88027 14.8384 9.8797 14.8379 9.8797 14.8379C9.82987 15.0147 9.77013 15.1894 9.7329 15.3688C9.69249 15.5634 9.65121 15.7621 9.64861 15.9596C9.64141 16.5073 9.83647 16.9857 10.1877 17.4042C10.4156 17.6759 10.6912 17.8749 11.047 17.9154C11.4575 17.9622 11.8205 17.8518 12.0672 17.4918C12.3474 17.0829 12.7111 16.7981 13.2396 16.6966C13.174 16.6786 13.1413 16.6665 13.1075 16.6613C13.0688 16.6555 13.029 16.6517 12.9901 16.6541C12.7466 16.6694 12.5034 16.6891 12.2598 16.7006C12.2191 16.7025 12.1668 16.6822 12.1368 16.6541C11.48 16.0389 11.0369 15.3034 10.9206 14.3998C10.7995 13.4588 11.063 12.6229 11.6607 11.8908C11.7372 11.7971 11.8276 11.7147 11.9212 11.6276C11.9309 11.628 11.9342 11.6308 11.9342 11.6308ZM15.7001 18.5569C15.6966 18.5567 15.6931 18.5565 15.6895 18.5563C15.6912 18.5585 15.6928 18.5608 15.7001 18.5569Z" fill="#8F6193"/>
</svg>
