<svg width="30" height="34" viewBox="0 0 30 34" fill="none" xmlns="http://www.w3.org/2000/svg">
<path d="M15.519 1.13901L28.4813 8.62047C28.8024 8.80579 29 9.14818 29 9.51854V24.4815C29 24.8518 28.8024 25.1942 28.4813 25.3795L15.519 32.861C15.1978 33.0463 14.8022 33.0463 14.481 32.861L1.51874 25.3795C1.19765 25.1942 1 24.8518 1 24.4815V9.51854C1 9.14818 1.19765 8.8058 1.51874 8.62047L14.481 1.13901C14.8022 0.953664 15.1978 0.953664 15.519 1.13901Z" fill="black" stroke="#0093C8" stroke-width="2"/>
<path d="M15.7689 0.705963L28.7312 8.18742C29.207 8.46203 29.5 8.96947 29.5 9.51854V24.4815C29.5 25.0305 29.207 25.538 28.7312 25.8126L15.7689 33.294C15.2931 33.5687 14.7069 33.5687 14.2311 33.294L1.2688 25.8126C0.793015 25.538 0.5 25.0305 0.5 24.4815V9.51854C0.5 8.96947 0.793015 8.46203 1.2688 8.18742L14.2311 0.705962C14.7069 0.431346 15.2931 0.431346 15.7689 0.705963Z" stroke="black"/>
<path fill-rule="evenodd" clip-rule="evenodd" d="M16.3392 10.675C15.909 10.8357 15.4865 10.9938 15.0648 11.1541C15.0181 11.1719 14.9812 11.1783 14.9318 11.1541C14.1729 10.7811 13.3743 10.5216 12.5525 10.3293L12.3295 10.2772C12.3373 10.2662 12.3443 10.2558 12.351 10.246C12.3642 10.2264 12.3761 10.2088 12.3897 10.1927C12.602 9.94088 12.8145 9.6892 13.027 9.43752L13.0274 9.43708L13.5269 8.84523C13.7838 8.54074 14.0405 8.23615 14.2972 7.93157L14.9065 7.20877C14.9267 7.18486 14.9474 7.16138 14.97 7.13572L15.005 7.09583L17.6787 10.2698C17.2266 10.4067 16.7868 10.5399 16.3392 10.675ZM17.6131 12.4784C17.3022 12.5646 17.0017 12.6555 16.6888 12.7738C16.7051 12.7837 16.7193 12.7926 16.7323 12.8006L16.7323 12.8006C16.7567 12.8158 16.7765 12.8281 16.7969 12.8392C18.0229 13.5052 19.167 14.2903 20.2196 15.206C20.9907 15.8769 21.7076 16.6005 22.3093 17.4315C22.7072 17.981 23.0562 18.5586 23.3105 19.1898C23.4455 19.5249 23.5467 19.8697 23.594 20.2287C23.6627 20.7495 23.6099 21.2519 23.3622 21.7241C23.1453 22.1376 22.8179 22.4409 22.4176 22.6708C22.0215 22.8984 21.5919 23.0318 21.1462 23.119C20.5416 23.2373 19.9308 23.2423 19.3187 23.2162C19.1526 23.2091 18.9858 23.2009 18.8213 23.1787C17.8739 23.0508 16.9483 22.8341 16.0554 22.4876C16.0454 22.4837 16.0357 22.4789 16.0228 22.4726L15.9978 22.4605L16.0258 22.4459C16.0422 22.4373 16.0562 22.43 16.0705 22.4234C16.6267 22.1692 17.176 21.9012 17.7089 21.6007C17.7566 21.5738 17.7992 21.5659 17.8534 21.5788L17.8691 21.5826L17.8691 21.5826C18.0313 21.6215 18.1939 21.6605 18.3582 21.6879C18.5011 21.7117 18.6465 21.723 18.7912 21.732L18.9185 21.7401L18.9186 21.7401C19.1236 21.7534 19.3288 21.7668 19.5339 21.766C19.9556 21.7643 20.3725 21.7156 20.7706 21.566C21.0965 21.4435 21.3889 21.269 21.6068 20.9884C21.788 20.755 21.876 20.4885 21.8896 20.1954C21.9067 19.828 21.8162 19.4815 21.6834 19.1437C21.5397 18.7783 21.3465 18.4393 21.1317 18.1119C21.1282 18.1065 21.1235 18.1019 21.1174 18.0958L21.1174 18.0958C21.114 18.0925 21.1102 18.0887 21.1059 18.084C21.0996 18.0894 21.0932 18.0945 21.0868 18.0997C21.0733 18.1107 21.0598 18.1216 21.0477 18.1338C20.3852 18.8069 19.6608 19.4063 18.8872 19.947C17.7126 20.7679 16.4541 21.4339 15.1294 21.9768C14.2459 22.3389 13.3454 22.651 12.4185 22.8833C11.9278 23.0063 11.432 23.1016 10.9296 23.1652C10.4627 23.2244 9.99456 23.2426 9.52581 23.2178C8.89604 23.1845 8.28785 23.0551 7.73228 22.7418C6.99508 22.3261 6.55795 21.697 6.43057 20.8597C6.36151 20.4058 6.41662 19.9595 6.54126 19.5194C6.71902 18.8919 7.01244 18.3199 7.36797 17.7771C7.39301 17.7388 7.41872 17.701 7.44489 17.6625L7.4449 17.6625L7.48209 17.6077L8.51205 18.7196L8.49516 18.7511L8.45048 18.8348C8.27889 19.1576 8.14502 19.4941 8.08762 19.8572C8.01951 20.2882 8.0817 20.6905 8.36048 21.0413C8.556 21.2874 8.81173 21.4508 9.09992 21.567C9.37238 21.6768 9.6563 21.7392 9.94743 21.7759C10.3856 21.8311 10.8216 21.8112 11.258 21.7561C11.9479 21.669 12.6129 21.4845 13.2663 21.2526C13.2744 21.2497 13.2824 21.2463 13.2932 21.2416L13.3147 21.2324C13.3013 21.2245 13.2888 21.2169 13.2768 21.2097L13.2766 21.2095L13.2766 21.2095C13.2521 21.1947 13.2298 21.1812 13.2068 21.1688C12.2835 20.6708 11.41 20.0967 10.5799 19.4558C9.78956 18.8457 9.05185 18.1776 8.38606 17.4333C7.75312 16.7258 7.2085 15.9564 6.80866 15.0909C6.63998 14.7258 6.50746 14.3482 6.43582 13.9515C6.34543 13.451 6.35603 12.9573 6.55135 12.479C6.74059 12.0155 7.06237 11.6658 7.48282 11.4025C7.89428 11.1448 8.34639 10.9934 8.81962 10.9008C9.34119 10.7987 9.86882 10.7611 10.3991 10.7833C10.7041 10.796 11.0093 10.8224 11.3124 10.8592C12.088 10.9532 12.8449 11.1324 13.5833 11.3881C13.6757 11.4202 13.7675 11.4538 13.8644 11.4893L13.8645 11.4893C13.9108 11.5063 13.9582 11.5237 14.0075 11.5415C13.9936 11.5494 13.9819 11.5564 13.9715 11.5625C13.9525 11.5738 13.938 11.5824 13.9227 11.5893C13.3622 11.8426 12.8115 12.1155 12.2749 12.4163C12.2398 12.436 12.2094 12.4412 12.1698 12.4328C12.0142 12.3998 11.8582 12.3687 11.7017 12.3411C11.2085 12.2541 10.7112 12.2218 10.2117 12.2513C9.83074 12.2738 9.45598 12.3369 9.10326 12.4935C8.85524 12.6035 8.62996 12.7477 8.4508 12.9545C8.21052 13.2319 8.10844 13.5579 8.11384 13.9227C8.11854 14.24 8.19581 14.5407 8.30871 14.834C8.45097 15.2036 8.64309 15.5472 8.85966 15.8777C8.86558 15.8867 8.87235 15.8952 8.88062 15.9056L8.88063 15.9056L8.8951 15.924C8.90176 15.9184 8.90821 15.9133 8.91442 15.9083C8.92702 15.8982 8.93862 15.8888 8.94903 15.8783C10.05 14.7663 11.3002 13.853 12.6647 13.093C14.0857 12.3015 15.5811 11.6891 17.1445 11.2416C17.5917 11.1135 18.0442 11.0077 18.502 10.9265C18.628 10.9042 18.7554 10.8897 18.8829 10.8752L18.8829 10.8752C18.9836 10.8637 19.0844 10.8522 19.1845 10.8369C19.5654 10.7785 19.9485 10.7672 20.332 10.7817C20.8849 10.8027 21.4265 10.8887 21.9409 11.1045C22.4277 11.3087 22.8404 11.6086 23.1449 12.0459C23.364 12.3605 23.4981 12.7092 23.5626 13.0867C23.6616 13.6661 23.5633 14.2231 23.3742 14.7691C23.1748 15.3446 22.8829 15.8729 22.5391 16.3737C22.5353 16.3792 22.5305 16.3841 22.5255 16.3891L22.5183 16.3966L21.4918 15.2895L21.5057 15.2627C21.5167 15.2416 21.5285 15.219 21.5405 15.1965C21.7179 14.8652 21.8582 14.5205 21.9172 14.1468C22.0226 13.4796 21.7876 12.9221 21.1666 12.5682C20.9042 12.4187 20.6197 12.3292 20.3249 12.2725C19.9327 12.1971 19.5357 12.1826 19.1391 12.2118C18.6422 12.2484 18.1515 12.3305 17.6707 12.4649C17.6625 12.4671 17.6543 12.469 17.645 12.471C17.6357 12.473 17.6254 12.4753 17.6131 12.4784ZM12.5751 14.7954C12.3134 14.9337 12.0625 15.0893 11.8223 15.2623C11.1176 15.7698 10.4696 16.3443 9.84053 16.9412C9.82764 16.9535 9.8158 16.9668 9.80306 16.9812C9.79681 16.9882 9.79035 16.9955 9.78343 17.0031C9.79039 17.0107 9.79687 17.0181 9.8031 17.0253L9.80311 17.0253C9.81579 17.0398 9.82748 17.0531 9.84027 17.0653C10.4385 17.6355 11.0595 18.1789 11.7226 18.6732C12.3418 19.1347 13.0158 19.484 13.7659 19.6782C13.8657 19.704 13.9666 19.7257 14.0701 19.748L14.0701 19.748C14.1187 19.7585 14.1678 19.7691 14.2177 19.7802C14.2183 19.7664 14.2192 19.7542 14.22 19.7431C14.2215 19.7219 14.2228 19.7046 14.2213 19.6876L14.2123 19.5791C14.2027 19.4604 14.193 19.3416 14.1785 19.2234C14.1296 18.8231 14.0303 18.4363 13.8515 18.073C13.6144 17.5913 13.2591 17.2325 12.7555 17.0301C12.7466 17.0265 12.7381 17.022 12.7268 17.0161C12.7226 17.0139 12.7181 17.0115 12.7129 17.0089C12.7104 17.0076 12.7078 17.0062 12.705 17.0048C12.7141 17 12.7218 16.9958 12.7285 16.9922C12.7407 16.9855 12.7498 16.9805 12.7595 16.9765C13.2913 16.7605 13.6563 16.3743 13.8888 15.8579C14.1139 15.3581 14.2014 14.8277 14.222 14.2838C14.2223 14.2757 14.2199 14.2675 14.2168 14.2566L14.2168 14.2566C14.215 14.2506 14.213 14.2438 14.2111 14.2358C13.6375 14.3318 13.1012 14.5246 12.5751 14.7954ZM16.2972 19.6602C16.349 19.6432 16.4009 19.6268 16.4529 19.6103C16.566 19.5745 16.679 19.5387 16.7901 19.4976C17.4374 19.258 18.0114 18.8926 18.5521 18.4693C19.0478 18.0814 19.5213 17.6679 19.9805 17.238C20.0352 17.1868 20.0845 17.13 20.1365 17.07L20.1365 17.0699L20.1366 17.0699C20.1615 17.0412 20.187 17.0117 20.2141 16.9818L20.1986 16.969L20.1986 16.969C20.1836 16.9568 20.1649 16.9415 20.1472 16.9251C20.0874 16.87 20.0279 16.8146 19.9684 16.7593L19.9683 16.7592C19.8586 16.6572 19.749 16.5551 19.6376 16.4548C19.1525 16.0177 18.6534 15.5973 18.12 15.2196C17.4776 14.7648 16.7741 14.4444 16.004 14.2763C15.988 14.2728 15.9719 14.2684 15.9555 14.264C15.8985 14.2485 15.8389 14.2322 15.7729 14.251C15.7766 14.2939 15.7801 14.3364 15.7836 14.3786L15.7836 14.3789C15.7912 14.4704 15.7987 14.5603 15.8078 14.6501C15.8469 15.0372 15.9274 15.4151 16.0785 15.7749C16.3119 16.3308 16.6842 16.7532 17.2553 16.9809C17.2637 16.9842 17.2709 16.9907 17.2792 16.9981C17.2834 17.002 17.288 17.006 17.2931 17.0101L17.265 17.0219L17.2195 17.041C16.9108 17.1728 16.6471 17.3644 16.4349 17.6261C16.2039 17.9108 16.056 18.2366 15.9538 18.5853C15.8685 18.8764 15.8224 19.1749 15.7928 19.476C15.7863 19.5414 15.7833 19.6071 15.78 19.6777L15.78 19.6778C15.7784 19.7116 15.7768 19.7465 15.7747 19.7831C15.9526 19.742 16.1171 19.704 16.2972 19.6602ZM15.0197 26.8895C15.4368 26.3948 15.8583 25.8949 16.2845 25.3897C16.7502 24.8377 17.2111 24.2913 17.6785 23.7371C17.6662 23.7329 17.6559 23.7292 17.6469 23.7259C17.6307 23.7201 17.6186 23.7157 17.6062 23.7131C16.7339 23.5253 15.8902 23.2527 15.087 22.8611C15.0296 22.8331 14.9821 22.8333 14.924 22.858C14.1455 23.1896 13.3441 23.4539 12.5267 23.671C12.4828 23.6827 12.4392 23.6951 12.3959 23.7075C12.3758 23.7132 12.3559 23.7189 12.336 23.7245C12.3372 23.7309 12.3378 23.7361 12.3383 23.7402C12.3391 23.7471 12.3396 23.7513 12.3419 23.754C13.2118 24.7889 14.082 25.8235 14.9525 26.858C14.961 26.8681 14.971 26.8771 14.9809 26.886C14.9836 26.8884 14.9862 26.8908 14.9888 26.8932C14.991 26.8952 14.9952 26.8956 14.9985 26.8958C15.0005 26.8959 15.0024 26.8955 15.0065 26.8948C15.0089 26.8943 15.0122 26.8938 15.0167 26.893L15.0197 26.8895Z" fill="#0093C8"/>
</svg>
