<svg width="30" height="34" viewBox="0 0 30 34" fill="none" xmlns="http://www.w3.org/2000/svg">
<path d="M15.519 1.13901L28.4813 8.62047C28.8024 8.80579 29 9.14818 29 9.51854V24.4815C29 24.8518 28.8024 25.1942 28.4813 25.3795L15.519 32.861C15.1978 33.0463 14.8022 33.0463 14.481 32.861L1.51874 25.3795C1.19765 25.1942 1 24.8518 1 24.4815V9.51854C1 9.14818 1.19765 8.8058 1.51874 8.62047L14.481 1.13901C14.8022 0.953664 15.1978 0.953664 15.519 1.13901Z" fill="black" stroke="#D40037" stroke-width="2"/>
<path d="M15.7689 0.705963L28.7312 8.18742C29.207 8.46203 29.5 8.96947 29.5 9.51854V24.4815C29.5 25.0305 29.207 25.538 28.7312 25.8126L15.7689 33.294C15.2931 33.5687 14.7069 33.5687 14.2311 33.294L1.2688 25.8126C0.793015 25.538 0.5 25.0305 0.5 24.4815V9.51854C0.5 8.96947 0.793015 8.46203 1.2688 8.18742L14.2311 0.705962C14.7069 0.431346 15.2931 0.431346 15.7689 0.705963Z" stroke="black"/>
<path fill-rule="evenodd" clip-rule="evenodd" d="M6.8518 11.9751L7.42598 11.643L7.42934 11.6411C7.85153 11.3969 8.27372 11.1528 8.69602 10.9088C10.0935 10.1016 11.491 9.29439 12.8886 8.48741C13.4837 8.14379 14.0789 7.80045 14.6742 7.4571L15.2194 7.14264C15.2291 7.13705 15.2389 7.13183 15.2502 7.1259L15.2684 7.11621L15.443 7.21656C15.5698 7.28943 15.6967 7.36239 15.8236 7.4356L18.4453 8.94914L19.4398 9.52303L20.6877 10.2432C21.3595 10.6311 22.0313 11.0191 22.7031 11.4072L23.1679 11.6757L23.349 11.7806L23.3494 11.7808C23.5005 11.8685 23.6517 11.9561 23.8038 12.042C23.8505 12.0684 23.8746 12.0974 23.8722 12.1535C23.8706 12.192 23.8727 12.2307 23.8748 12.2695V12.2695C23.8764 12.2987 23.878 12.3278 23.878 12.357L23.8781 14.3854C23.8782 16.8673 23.8782 19.3491 23.8813 21.8309C23.8814 21.9737 23.8398 22.0522 23.7119 22.125C22.9303 22.5697 22.1519 23.0199 21.3736 23.4701L21.3733 23.4703C21.1488 23.6001 20.9244 23.7299 20.6999 23.8596L19.4663 24.5724L19.4633 24.5741C18.8547 24.9258 18.2461 25.2775 17.6374 25.629C16.9107 26.0486 16.1834 26.4673 15.445 26.8859C15.4291 26.8791 15.4247 26.8728 15.4203 26.8666C16.1096 26.3131 16.7762 25.7336 17.4125 25.1198C18.3611 24.2048 19.2324 23.2216 20.01 22.1568C20.5377 21.4342 21.0165 20.6804 21.4455 19.895C21.7193 19.3939 21.9728 18.8828 22.2034 18.3604C22.2113 18.3424 22.2181 18.324 22.2261 18.3023L22.2261 18.3023C22.2302 18.2912 22.2346 18.2792 22.2396 18.2661C22.2157 18.2629 22.1928 18.2594 22.1704 18.2559C22.1236 18.2487 22.0793 18.2419 22.0348 18.2395C21.9553 18.2354 21.8759 18.231 21.7964 18.2266L21.7962 18.2266C21.5366 18.2121 21.277 18.1977 21.0172 18.1927C20.6643 18.1859 20.3106 18.1844 19.9582 18.2009C19.5893 18.2181 19.221 18.2512 18.853 18.2843L18.853 18.2843L18.7502 18.2936C18.5008 18.3159 18.251 18.3414 18.0039 18.381L17.8934 18.3987C17.392 18.4789 16.8902 18.5591 16.3922 18.6576C14.8612 18.9602 13.3662 19.3959 11.8926 19.9065C10.83 20.2747 9.78379 20.6848 8.75115 21.1299C7.87436 21.5079 7.00972 21.9118 6.14351 22.3373C6.12613 22.3291 6.12099 22.3222 6.11584 22.3154C6.24788 22.2254 6.38017 22.1358 6.51246 22.0461C6.80489 21.848 7.09733 21.6499 7.38697 21.4478C8.22603 20.8624 9.0426 20.2468 9.8404 19.6062C10.572 19.0188 11.2859 18.4109 11.9771 17.7764C12.478 17.3166 12.9694 16.847 13.4426 16.3588C14.1717 15.6068 14.8663 14.8244 15.5072 13.9952C16.3242 12.9381 17.0481 11.8229 17.6182 10.6118C17.6384 10.5687 17.6576 10.5251 17.6777 10.4791L17.6777 10.4791L17.7079 10.4106C17.6906 10.4075 17.6745 10.4041 17.659 10.4009L17.659 10.4009C17.6279 10.3943 17.5997 10.3884 17.5712 10.3864C17.4332 10.3766 17.2953 10.3659 17.1574 10.3553L17.1573 10.3553C16.8048 10.3281 16.4524 10.3009 16.0995 10.2875C15.6582 10.2707 15.2156 10.2739 14.7741 10.2862C14.4854 10.2943 14.197 10.3159 13.9087 10.3376L13.9085 10.3376C13.8142 10.3446 13.7199 10.3517 13.6257 10.3583C13.4598 10.3699 13.2936 10.3825 13.129 10.4049C12.7193 10.4605 12.3099 10.518 11.9015 10.582C11.2909 10.6777 10.6885 10.8136 10.0898 10.966C9.07519 11.2241 8.08153 11.5481 7.10303 11.9193L7.07412 11.9304C7.00436 11.9569 6.93414 11.9837 6.85799 12.0061C6.85093 11.9923 6.85136 11.9837 6.8518 11.9751ZM15.5908 11.7063C15.5436 11.7766 15.4967 11.8472 15.4499 11.9177C15.3464 12.0734 15.243 12.229 15.1363 12.3824C14.8083 12.8539 14.4635 13.3127 14.0911 13.7504C13.6877 14.2245 13.2597 14.6751 12.7914 15.0857C11.6636 16.0741 10.4749 16.9848 9.25283 17.8528C8.51584 18.3762 7.76388 18.8768 6.98472 19.3356C6.81795 19.4338 6.64797 19.5266 6.46795 19.6212C6.45216 19.6149 6.44787 19.6093 6.44359 19.6037C6.55061 19.5279 6.65807 19.4527 6.76552 19.3775L6.76553 19.3775C7.00588 19.2092 7.24624 19.0409 7.48174 18.8661C7.98114 18.4954 8.45678 18.0952 8.91581 17.6752C9.26441 17.3562 9.60165 17.0258 9.92275 16.6794C10.3644 16.2029 10.7799 15.7051 11.1277 15.1543C11.2675 14.9328 11.3942 14.7043 11.4841 14.4571C11.533 14.3227 11.5654 14.1856 11.568 14.0413C11.5708 13.8817 11.5021 13.761 11.3797 13.6652C11.2426 13.5578 11.0831 13.501 10.9164 13.4642C10.5378 13.3805 10.1548 13.3859 9.77104 13.4153C9.00886 13.4738 8.2721 13.656 7.53046 13.8706C7.51273 13.8651 7.50872 13.8599 7.5066 13.8533C8.45397 13.393 9.42411 12.9876 10.4227 12.6519C11.2273 12.3814 12.046 12.162 12.8791 11.9988C13.1552 11.9447 13.433 11.8989 13.7113 11.8575C13.8715 11.8336 14.0329 11.8175 14.1943 11.8015L14.316 11.7892L14.3364 11.7872C14.5889 11.7612 14.8415 11.7353 15.0944 11.7141C15.2429 11.7017 15.3923 11.6991 15.5544 11.6962H15.5545L15.5549 11.6962C15.5756 11.7023 15.5832 11.7043 15.5908 11.7063ZM14.1974 25.354C14.1875 25.3653 14.1776 25.3765 14.1675 25.3876C14.1675 25.3876 14.1718 25.3931 14.181 25.3946C14.4709 25.1987 14.7545 25.0055 15.0316 24.8032C15.8449 24.2092 16.6172 23.5657 17.3425 22.8666C17.766 22.4583 18.1688 22.0303 18.5525 21.5841C19.0807 20.9697 19.5613 20.3203 19.9971 19.6375C20.0174 19.6057 20.0367 19.5733 20.0581 19.5373C20.0688 19.5194 20.08 19.5006 20.0921 19.4805C20.0771 19.4805 20.0641 19.4803 20.0525 19.4801C20.0307 19.4798 20.0135 19.4795 19.9965 19.4808C19.9218 19.4863 19.847 19.4922 19.7723 19.498C19.6914 19.5043 19.6105 19.5107 19.5295 19.5166C19.1338 19.5456 18.7385 19.5756 18.3465 19.6414C18.2434 19.6587 18.1395 19.6715 18.0357 19.6844C17.9353 19.6968 17.8349 19.7092 17.7352 19.7257C16.9766 19.8508 16.2337 20.0393 15.5086 20.2946C14.5858 20.6196 13.6777 20.9828 12.7785 21.3683C11.6352 21.8584 10.5084 22.3832 9.41716 22.9817C9.2524 23.072 9.09022 23.1671 8.92803 23.2621C8.85336 23.3059 8.77868 23.3497 8.70376 23.393C8.70882 23.3997 8.71389 23.4064 8.73074 23.413C8.78981 23.3896 8.84151 23.3661 8.89189 23.3431C8.90599 23.3367 8.91998 23.3303 8.934 23.324C9.03676 23.2777 9.13924 23.2308 9.24172 23.1839C9.47571 23.0767 9.7097 22.9696 9.94695 22.8702C10.9003 22.4711 11.8788 22.147 12.886 21.913C13.2226 21.8348 13.5618 21.7695 13.9045 21.719C14.1865 21.6775 14.4684 21.6384 14.7525 21.6259C15.0434 21.613 15.3351 21.6057 15.6248 21.6602C15.7659 21.6867 15.9036 21.7171 16.031 21.7848C16.1848 21.8665 16.265 21.9947 16.279 22.1679C16.296 22.3794 16.2502 22.5795 16.1768 22.7753C16.0579 23.0923 15.8878 23.3819 15.6958 23.6588C15.2817 24.256 14.7932 24.7882 14.2634 25.2838C14.24 25.3057 14.2187 25.3299 14.1974 25.354Z" fill="#D40037"/>
</svg>
