<svg width="30" height="34" viewBox="0 0 30 34" fill="none" xmlns="http://www.w3.org/2000/svg">
<path d="M15.519 1.13901L28.4813 8.62047C28.8024 8.80579 29 9.14818 29 9.51854V24.4815C29 24.8518 28.8024 25.1942 28.4813 25.3795L15.519 32.861C15.1978 33.0463 14.8022 33.0463 14.481 32.861L1.51874 25.3795C1.19765 25.1942 1 24.8518 1 24.4815V9.51854C1 9.14818 1.19765 8.8058 1.51874 8.62047L14.481 1.13901C14.8022 0.953664 15.1978 0.953664 15.519 1.13901Z" fill="black" stroke="#329044" stroke-width="2"/>
<path d="M15.7689 0.705963L28.7312 8.18742C29.207 8.46203 29.5 8.96947 29.5 9.51854V24.4815C29.5 25.0305 29.207 25.538 28.7312 25.8126L15.7689 33.294C15.2931 33.5687 14.7069 33.5687 14.2311 33.294L1.2688 25.8126C0.793015 25.538 0.5 25.0305 0.5 24.4815V9.51854C0.5 8.96947 0.793015 8.46203 1.2688 8.18742L14.2311 0.705962C14.7069 0.431346 15.2931 0.431346 15.7689 0.705963Z" stroke="black"/>
<path fill-rule="evenodd" clip-rule="evenodd" d="M16.515 9.05385C16.2735 8.83874 16.0461 8.61065 15.8385 8.35302C15.5022 7.94629 15.2365 7.50387 15.0117 7.01428C14.7124 7.68219 14.3166 8.26268 13.8162 8.76988C13.3161 9.27684 12.7373 9.67412 12.0763 9.98207C12.8547 10.4745 13.4768 11.1014 13.977 11.8504C14.4753 12.5964 14.8134 13.4116 15.0229 14.3081C15.493 12.5043 16.4096 11.0311 17.9633 9.98759L17.9284 9.97007L17.9283 9.97003L17.9281 9.96993C17.9058 9.95873 17.8856 9.94863 17.8655 9.93831C17.8247 9.91729 17.7835 9.8967 17.7424 9.87611L17.7424 9.87608C17.6498 9.82973 17.5572 9.78337 17.4675 9.73214C17.1274 9.53811 16.808 9.31483 16.515 9.05385ZM6.36376 19.1199L6.36505 19.1555C6.36505 19.1555 6.37113 19.1563 6.38015 19.1533C6.64017 18.774 6.94587 18.45 7.30648 18.1763C7.6495 17.9159 8.02153 17.7078 8.41688 17.5396C8.84194 17.3587 9.28608 17.2545 9.74602 17.224C10.0344 17.2048 10.3234 17.2197 10.6089 17.2653C11.0636 17.3379 11.4987 17.477 11.9155 17.673C12.1803 17.7976 12.4304 17.9478 12.6774 18.1041C12.9825 18.2971 13.2714 18.5109 13.533 18.7595C13.8041 19.0173 14.0486 19.2997 14.2791 19.5942C14.2875 19.6049 14.2979 19.6141 14.3123 19.6268C14.3205 19.634 14.33 19.6424 14.3411 19.6528L14.3317 19.5874C14.3257 19.5447 14.3205 19.5085 14.3144 19.4726C14.3081 19.4359 14.301 19.3991 14.2904 19.3634C14.111 18.7607 13.8935 18.1722 13.6188 17.606C13.3828 17.1194 13.1138 16.6519 12.8003 16.2105C12.453 15.7214 12.0655 15.2695 11.604 14.8825C11.2287 14.5679 10.8222 14.3083 10.3633 14.1336C10.1724 14.0609 9.97717 13.9997 9.77428 13.9808C9.52352 13.9576 9.27215 13.9738 9.02459 14.0241C8.58459 14.1135 8.17562 14.282 7.79065 14.5118C7.32369 14.7905 6.91411 15.1397 6.53168 15.5238C6.41411 15.6418 6.36027 15.7775 6.3606 15.9436C6.36207 16.6831 6.36195 17.4226 6.36182 18.1621L6.36178 19.0435C6.36178 19.0689 6.36277 19.0944 6.36376 19.1199ZM22.4325 22.6945C22.468 22.6727 22.5036 22.6508 22.5392 22.6292C22.5392 22.6292 22.5359 22.6203 22.5254 22.615C22.3277 22.6099 22.144 22.5801 21.9598 22.5497C21.3956 22.4567 20.8622 22.272 20.3547 22.0126C19.9912 21.8268 19.65 21.6052 19.3276 21.3534C18.8891 21.0109 18.4973 20.6214 18.1428 20.1942C17.897 19.8981 17.6571 19.597 17.4173 19.296L17.4171 19.2958L17.407 19.2831C17.0558 18.8424 16.7056 18.4009 16.3577 17.9575C16.1186 17.6527 15.8709 17.3551 15.6033 17.0754C15.2416 16.6972 14.8685 16.3306 14.4788 15.9806C14.1956 15.7262 13.905 15.4815 13.6016 15.2519C13.1184 14.8861 12.6113 14.5589 12.0621 14.2998C12.0408 14.2898 12.0191 14.2808 11.9944 14.2706L11.9943 14.2706L11.9943 14.2706L11.9544 14.254C11.9571 14.2628 11.9588 14.2694 11.9601 14.2744C11.9621 14.2822 11.9632 14.2861 11.9656 14.2887C11.9795 14.3035 11.9939 14.3181 12.0095 14.3311C12.2746 14.5501 12.5186 14.7904 12.7471 15.0473C12.9686 15.2963 13.1744 15.5572 13.3659 15.8296C13.8092 16.4599 14.1748 17.1328 14.4746 17.8424C14.6968 18.3685 14.8799 18.9078 15.0276 19.4592C15.2094 20.1383 15.3257 20.8294 15.3932 21.5286C15.4198 21.8051 15.4395 22.0826 15.4538 22.3601C15.4669 22.6144 15.4725 22.8692 15.4738 23.1238C15.4746 23.2732 15.4689 23.4226 15.4631 23.572L15.4631 23.572L15.4631 23.5721L15.4631 23.5722L15.4631 23.5722C15.4614 23.6161 15.4597 23.66 15.4582 23.7039C15.4513 23.9041 15.4435 24.1042 15.4338 24.3042C15.4298 24.3887 15.4218 24.4732 15.4126 24.5574L15.4024 24.6506C15.3812 24.8451 15.3601 25.0396 15.3353 25.2337L15.3258 25.3086C15.3026 25.492 15.2794 25.6756 15.2447 25.8568C15.1985 26.0984 15.147 26.3389 15.0954 26.5794C15.0724 26.6867 15.0495 26.794 15.0269 26.9014C15.0241 26.9149 15.0223 26.9286 15.0201 26.9458C15.019 26.955 15.0177 26.9652 15.016 26.9769C15.0295 26.9702 15.0417 26.9643 15.0529 26.959C15.0743 26.9487 15.0921 26.9401 15.1093 26.9303L15.1742 26.8931L15.1748 26.8927C15.4268 26.748 15.6788 26.6034 15.9303 26.4578C16.2214 26.2892 16.5124 26.1205 16.8034 25.9517L16.8042 25.9513L16.805 25.9508L16.8058 25.9504L16.8066 25.9499L16.8091 25.9484L16.8134 25.9459L16.8145 25.9453L16.8156 25.9447C17.1873 25.7291 17.5589 25.5136 17.9308 25.2985C18.5083 24.9645 19.086 24.6311 19.6638 24.2978L20.0479 24.0762L20.7903 23.648L20.7933 23.6463C21.2625 23.3757 21.7318 23.1051 22.2007 22.8341C22.2788 22.7889 22.3556 22.7417 22.4324 22.6945L22.4325 22.6945ZM11.2852 24.6936L11.2849 24.6933C11.1196 24.5641 10.9563 24.4363 10.8018 24.2987C10.4949 24.0254 10.2611 23.6902 10.0517 23.3388C9.81363 22.9393 9.63961 22.5134 9.53365 22.0601C9.45987 21.7445 9.41955 21.4246 9.4431 21.1011C9.48404 20.539 9.68884 20.0423 10.055 19.6112C10.3379 19.2781 10.6818 19.0213 11.0498 18.7929C11.0549 18.7897 11.061 18.7879 11.0704 18.7852C11.076 18.7835 11.0828 18.7815 11.0914 18.7787C11.0888 18.7954 11.0865 18.8115 11.0843 18.827L11.0843 18.827C11.0798 18.859 11.0755 18.8888 11.0696 18.9182C11.0087 19.2222 10.9792 19.5293 10.9925 19.8387C11.0185 20.4415 11.1938 20.9938 11.5797 21.4662C11.8979 21.8557 12.2978 22.1367 12.7664 22.3181C13.1307 22.459 13.5079 22.5292 13.9 22.5269C14.1632 22.5253 14.4189 22.4847 14.6719 22.4174C14.6887 22.413 14.7057 22.4095 14.7258 22.4055L14.7597 22.3984C14.7623 22.4248 14.7655 22.4503 14.7686 22.4751L14.7686 22.4751C14.775 22.5274 14.7812 22.577 14.7815 22.6266L14.7831 22.8295V22.8296C14.7855 23.1087 14.7878 23.3879 14.7802 23.6668C14.7737 23.9054 14.754 24.1437 14.7345 24.3818L14.7249 24.4987C14.7074 24.7147 14.6874 24.9308 14.6597 25.1458C14.6072 25.5524 14.5395 25.9567 14.4491 26.3568C14.436 26.4145 14.4227 26.4722 14.4083 26.5343L14.3866 26.6284C14.2033 26.5373 14.0307 26.4353 13.8591 26.3338L13.8591 26.3338L13.859 26.3338C13.7894 26.2926 13.7199 26.2515 13.65 26.2113C13.4056 26.0709 13.1618 25.9295 12.9204 25.7841C12.6818 25.6405 12.4443 25.495 12.2107 25.3435C12.0424 25.2344 11.8768 25.121 11.709 25.0061C11.6411 24.9597 11.5729 24.913 11.5041 24.8663C11.4313 24.8079 11.3583 24.7508 11.2857 24.694L11.2852 24.6936ZM23.6384 18.6257L23.6383 19.3089C23.6382 20.0494 23.638 20.7899 23.6409 21.5305C23.6414 21.6528 23.5874 21.7313 23.493 21.7889C23.3456 21.8788 23.1841 21.9298 23.0105 21.929C22.5306 21.9271 22.0579 21.8703 21.5953 21.7378C20.8605 21.5274 20.2038 21.1695 19.6097 20.692C19.3818 20.5089 19.1611 20.317 18.9657 20.0998C18.7616 19.8729 18.5659 19.6382 18.3738 19.401C18.1622 19.1396 17.9531 18.8762 17.7439 18.6129L17.7435 18.6125C17.6173 18.4536 17.4911 18.2947 17.3643 18.1362C17.3074 18.065 17.2502 17.9939 17.1929 17.9227L17.1927 17.9225L17.1926 17.9224C17.0627 17.761 16.9322 17.5989 16.8026 17.4327C16.8034 17.425 16.8043 17.4238 16.8043 17.4238C16.83 17.437 16.8558 17.4498 16.8816 17.4627C16.9375 17.4906 16.9933 17.5185 17.0477 17.5488C17.5727 17.8419 18.1149 18.099 18.6699 18.33C19.184 18.544 19.7078 18.7299 20.2497 18.8582C20.5258 18.9235 20.8067 18.9721 21.0877 19.0123C21.2811 19.04 21.4786 19.0537 21.6739 19.0506C22.3449 19.0397 22.9921 18.9114 23.6159 18.6254C23.6227 18.6252 23.6272 18.6251 23.6304 18.6252C23.6345 18.6252 23.6365 18.6255 23.6384 18.6257ZM8.83439 20.7481C8.94008 20.2336 9.16795 19.7748 9.49261 19.3546C9.69719 19.0862 9.91348 18.8377 10.1591 18.6169C10.4035 18.3973 10.6757 18.215 10.976 18.047C10.7484 17.9772 10.5359 17.9346 10.3198 17.9161L10.2784 17.9125C10.1034 17.8972 9.92777 17.8819 9.75153 17.9111C9.68734 17.9218 9.62244 17.9294 9.55758 17.9371L9.55756 17.9371L9.55754 17.9371C9.44717 17.9501 9.33691 17.9631 9.23038 17.9908C8.44357 18.1956 7.75817 18.5763 7.21343 19.1901C6.95363 19.4829 6.7588 19.8151 6.62122 20.1812C6.42362 20.707 6.35944 21.2529 6.38065 21.8108C6.38261 21.8622 6.39924 21.9224 6.43044 21.9614C6.48467 22.0293 6.54731 22.0977 6.62092 22.1416C6.89136 22.3029 7.16417 22.4601 7.43699 22.6174L7.43717 22.6175L7.4373 22.6175C7.54967 22.6823 7.66204 22.7471 7.77424 22.8121L8.49729 23.2315L8.49771 23.2318L8.49792 23.2319C8.8469 23.4344 9.19588 23.6369 9.54501 23.8391C9.55839 23.8469 9.57307 23.8524 9.59361 23.8601L9.59363 23.8601L9.59369 23.8601C9.60537 23.8645 9.61894 23.8695 9.63524 23.8761L9.61212 23.8418L9.61211 23.8418L9.61205 23.8417C9.60147 23.826 9.5945 23.8157 9.58789 23.8052C9.55319 23.7499 9.51783 23.695 9.48248 23.6401L9.48244 23.64C9.40207 23.5152 9.32169 23.3903 9.24908 23.2611C9.09012 22.9783 8.98821 22.6714 8.91121 22.3577C8.86044 22.1509 8.81435 21.9406 8.79389 21.7293L8.78677 21.6587C8.77019 21.4977 8.75344 21.335 8.78254 21.1713C8.79413 21.106 8.79999 21.0396 8.80585 20.9733C8.81253 20.8977 8.81921 20.8221 8.83439 20.7481ZM23.5966 16.2008C23.5592 16.1381 23.5226 16.0748 23.4861 16.0115C23.4036 15.8689 23.3212 15.7263 23.2292 15.5901C23.064 15.3457 22.8933 15.1034 22.7048 14.8769C22.5119 14.645 22.3031 14.4245 22.0862 14.2146C21.6524 13.7947 21.169 13.4396 20.6388 13.1483C20.2656 12.9432 19.8777 12.7732 19.4732 12.6414C19.1797 12.5457 18.8812 12.469 18.5749 12.4251C18.4661 12.4095 18.3574 12.3934 18.2486 12.3774C18.0895 12.3538 17.9303 12.3303 17.7709 12.3083C17.6774 12.2954 17.5827 12.2879 17.4883 12.2846C17.3177 12.2788 17.147 12.2746 16.9763 12.2704C16.8925 12.2684 16.8087 12.2663 16.7249 12.2641C16.7084 12.2636 16.6919 12.2622 16.6698 12.2603L16.6698 12.2603L16.6698 12.2603C16.6576 12.2592 16.6438 12.258 16.6274 12.2567C16.6482 12.2252 16.6679 12.1949 16.6869 12.1656C16.7265 12.1048 16.7633 12.0481 16.8021 11.9927C17.0427 11.6486 17.3231 11.339 17.6345 11.0588C17.9799 10.748 18.3633 10.4929 18.7918 10.3081C18.85 10.2829 18.8986 10.2841 18.9567 10.3074C19.4294 10.497 19.8643 10.7528 20.2753 11.0514C20.6056 11.2913 20.9154 11.5548 21.2095 11.8381C21.5355 12.1521 21.8356 12.4881 22.1151 12.8436C22.5242 13.3638 22.872 13.9216 23.1539 14.5202C23.3512 14.9392 23.5081 15.3723 23.5912 15.8293C23.6124 15.9457 23.6213 16.0644 23.6291 16.1911C23.6138 16.2004 23.6052 16.2006 23.5966 16.2008ZM22.944 16.2991C22.6478 15.7724 22.2915 15.2912 21.8584 14.8587C21.4823 14.476 21.0642 14.1582 20.6115 13.8861C20.3055 13.7021 19.9829 13.5506 19.648 13.4261C19.6304 13.4195 19.612 13.4153 19.5936 13.4111C19.585 13.4091 19.5765 13.4071 19.568 13.4049C19.5885 13.4568 19.6174 13.4944 19.6457 13.5313C19.6499 13.5367 19.6541 13.5422 19.6582 13.5476C20.0146 14.0189 20.268 14.5412 20.4281 15.109C20.5138 15.413 20.5738 15.723 20.5935 16.0377C20.6145 16.3732 20.6052 16.7091 20.5362 17.0408C20.4577 17.4185 20.3376 17.7807 20.1446 18.1166C20.1393 18.1259 20.1366 18.1367 20.1341 18.1468C20.133 18.1513 20.1319 18.1557 20.1306 18.1597C20.1344 18.1626 20.1375 18.1652 20.1402 18.1674C20.1449 18.1714 20.1482 18.1742 20.152 18.1752C20.1847 18.184 20.2177 18.1919 20.2506 18.1999C20.6263 18.2909 21.0055 18.3567 21.3917 18.3883C21.6807 18.412 21.9684 18.4109 22.255 18.3783C22.5827 18.341 22.9021 18.2612 23.2071 18.1338C23.3073 18.0919 23.4047 18.0432 23.5037 17.9938C23.5489 17.9712 23.5945 17.9484 23.6408 17.926C23.6276 17.8869 23.6149 17.849 23.6025 17.8119C23.5765 17.7343 23.5517 17.6605 23.5261 17.587C23.3704 17.1404 23.1759 16.7113 22.944 16.2991Z" fill="#329044"/>
</svg>
