<svg width="30" height="34" viewBox="0 0 30 34" fill="none" xmlns="http://www.w3.org/2000/svg">
<path d="M15.519 1.13901L28.4813 8.62047C28.8024 8.80579 29 9.14818 29 9.51854V24.4815C29 24.8518 28.8024 25.1942 28.4813 25.3795L15.519 32.861C15.1978 33.0463 14.8022 33.0463 14.481 32.861L1.51874 25.3795C1.19765 25.1942 1 24.8518 1 24.4815V9.51854C1 9.14818 1.19765 8.8058 1.51874 8.62047L14.481 1.13901C14.8022 0.953664 15.1978 0.953664 15.519 1.13901Z" fill="black" stroke="#F3B123" stroke-width="2"/>
<path d="M15.7689 0.705963L28.7312 8.18742C29.207 8.46203 29.5 8.96947 29.5 9.51854V24.4815C29.5 25.0305 29.207 25.538 28.7312 25.8126L15.7689 33.294C15.2931 33.5687 14.7069 33.5687 14.2311 33.294L1.2688 25.8126C0.793015 25.538 0.5 25.0305 0.5 24.4815V9.51854C0.5 8.96947 0.793015 8.46203 1.2688 8.18742L14.2311 0.705962C14.7069 0.431346 15.2931 0.431346 15.7689 0.705963Z" stroke="black"/>
<path fill-rule="evenodd" clip-rule="evenodd" d="M20.133 11.9142L20.133 11.9142L20.133 11.9142C20.1365 11.8905 20.1401 11.8659 20.1447 11.8399C20.2646 11.3532 20.4188 10.3065 20.3959 10.139L20.3728 10.1251C20.3555 10.1147 20.3376 10.1039 20.3195 10.0934L19.3643 9.54156C17.9468 8.72277 16.5293 7.90397 15.113 7.08299C15.023 7.03082 14.9566 7.03679 14.87 7.08696C13.6225 7.80971 12.3739 8.53065 11.1254 9.25159L10.1836 9.79544C10.0456 9.87516 9.9077 9.95515 9.76773 10.0363L9.56947 10.1513C9.57617 10.2109 9.58242 10.2703 9.58865 10.3296L9.58865 10.3297C9.6029 10.4653 9.61708 10.6002 9.63643 10.7344C9.65278 10.8479 9.67405 10.9606 9.69531 11.0733L9.69532 11.0734L9.69532 11.0734L9.69532 11.0734L9.69534 11.0735C9.70788 11.1399 9.72042 11.2064 9.73195 11.273C9.8937 12.2073 10.1238 13.1247 10.4154 14.0265C10.5078 14.3123 10.6094 14.5954 10.7129 14.8775C10.8714 15.3095 11.048 15.7341 11.2385 16.1532C11.5652 16.8716 11.9314 17.569 12.3411 18.2434C13.464 20.0917 14.8573 21.7032 16.5514 23.0513C16.5649 23.0621 16.5773 23.0742 16.5902 23.0868C16.5963 23.0928 16.6025 23.0989 16.609 23.105L16.5863 23.1317C16.5718 23.1489 16.5586 23.1645 16.5449 23.1795C16.0829 23.6841 15.5911 24.1578 15.0691 24.6002C14.9978 24.6607 14.9916 24.6603 14.9153 24.5953C14.3919 24.1495 13.8967 23.6744 13.4329 23.1668C13.421 23.1538 13.4102 23.1398 13.3981 23.1243C13.3921 23.1166 13.3858 23.1084 13.3789 23.0999C13.7594 22.7913 14.1332 22.4823 14.4783 22.1506L13.2348 20.7581L12.1968 21.6487C11.7414 21.0256 11.3386 20.3874 10.9573 19.7142L9.74305 21.3465C9.75008 21.3591 9.75607 21.3702 9.76152 21.3804L9.76155 21.3804C9.7718 21.3995 9.78011 21.415 9.78974 21.4296C9.86604 21.5454 9.94154 21.6618 10.017 21.7781C10.1894 22.0438 10.3618 22.3095 10.5439 22.5684C11.1847 23.4799 11.9007 24.329 12.7007 25.1056C13.3953 25.7799 14.1595 26.3689 14.9517 26.9229C14.9606 26.9291 14.9704 26.9341 14.9804 26.9392C14.9851 26.9416 14.9899 26.944 14.9947 26.9466L15.0883 26.8814L15.0889 26.881C15.1546 26.8352 15.2189 26.7904 15.2833 26.7457C16.1828 26.1224 17.022 25.43 17.769 24.6261C18.6864 23.6389 19.4972 22.5725 20.2039 21.4259C20.2133 21.4106 20.2216 21.3945 20.2301 21.3781L20.2425 21.3546C19.85 20.8017 19.449 20.2601 19.0327 19.7278C18.9705 19.8299 18.9092 19.9311 18.8484 20.0317C18.7109 20.2588 18.5757 20.4823 18.4368 20.7037C18.2373 21.0218 18.0259 21.3321 17.802 21.6341C16.4359 20.5892 14.6886 18.7756 13.3976 16.2917C12.5506 14.6619 11.9638 12.9439 11.622 11.1414L11.6483 11.1246C11.6624 11.1156 11.6733 11.1085 11.6846 11.102L12.3422 10.7224L12.3429 10.722C13.2034 10.2252 14.064 9.72846 14.9236 9.2301C14.9832 9.19557 15.0248 9.20215 15.0807 9.23451C15.9069 9.71314 16.7337 10.1906 17.5606 10.6681L18.2932 11.0912C18.3103 11.1011 18.3269 11.1118 18.3455 11.1239L18.3456 11.1239L18.3457 11.124L18.3458 11.124L18.3458 11.1241L18.3762 11.1436C17.8781 13.7064 16.9237 16.0756 15.4312 18.2197C15.8205 18.7392 16.2325 19.2258 16.6836 19.692C16.7185 19.6435 16.7529 19.5959 16.7869 19.5488L16.787 19.5487C16.859 19.4491 16.9293 19.352 16.9977 19.2537C18.0656 17.719 18.8834 16.0587 19.4868 14.2912C19.5732 14.0381 19.6531 13.7827 19.7306 13.5267C19.8822 13.0267 20.0054 12.5192 20.1169 12.0089C20.1236 11.9782 20.1282 11.9471 20.133 11.9143L20.133 11.9143L20.133 11.9143L20.133 11.9142ZM8.90689 21.3239L10.1252 19.6678C10.5462 19.1315 10.9631 18.6008 11.382 18.0676L11.3884 18.0594L11.3997 18.045L11.4003 18.0443L11.4085 18.0339C11.0761 17.4474 10.7789 16.8427 10.5018 16.214C9.02281 17.9377 7.68003 19.7438 6.43703 21.6362C7.77283 22.87 9.28489 23.7936 11.0202 24.3465C10.9119 24.2007 10.7998 24.0586 10.6878 23.9167L10.6878 23.9166C10.6114 23.8198 10.535 23.7231 10.46 23.6253C10.2719 23.38 10.0875 23.1315 9.90958 22.8786C9.73361 22.6287 9.56397 22.374 9.39847 22.1169C9.28278 21.9372 9.17118 21.7549 9.0581 21.5701L9.05778 21.5696C9.00793 21.4882 8.95779 21.4063 8.90689 21.3239ZM21.5308 23.1786C20.9387 23.5414 20.328 23.8511 19.6872 24.0992C19.5218 24.1633 19.354 24.2212 19.1861 24.279L19.1861 24.2791L19.186 24.2791L19.186 24.2791L19.1851 24.2794C19.1184 24.3024 19.0517 24.3254 18.9852 24.3488C18.9828 24.3496 18.9791 24.347 18.9735 24.3428C18.9701 24.3403 18.9659 24.3372 18.9609 24.3341C19.7555 23.3988 20.4542 22.397 21.0778 21.3292C20.2917 20.201 19.4594 19.1073 18.5797 18.0443C18.914 17.4523 19.2122 16.8477 19.4905 16.2139C20.9716 17.9351 22.3105 19.7453 23.5555 21.6349C22.9306 22.2177 22.2599 22.7301 21.5308 23.1786ZM22.6825 15.962C22.9796 15.0297 23.2265 14.0841 23.4252 13.117C23.4258 13.1097 23.4259 13.1043 23.426 13.0999V13.0999C23.4261 13.095 23.4261 13.0915 23.4268 13.088L23.4844 12.7932C23.5243 12.5893 23.5642 12.3855 23.6035 12.1815C23.6113 12.141 23.6165 12.1 23.6218 12.0588L23.6218 12.0588L23.6218 12.0587C23.6243 12.0397 23.6267 12.0206 23.6294 12.0014L21.0856 10.5352C21.0719 10.617 21.0586 10.6974 21.0454 10.7769L21.045 10.7795C21.0154 10.9581 20.9866 11.1319 20.9561 11.3054C20.9067 11.586 20.8549 11.8661 20.8022 12.1461C20.7872 12.2257 20.7698 12.3047 20.7522 12.3846C20.7441 12.4211 20.736 12.4578 20.7281 12.4947L21.5364 12.9619C21.2846 14.1323 20.9549 15.2697 20.5544 16.3788L21.9087 18.0816C22.2 17.3787 22.4552 16.6754 22.6825 15.962ZM8.78695 17.1871L8.0971 18.0674C7.97749 17.9047 7.38052 16.2758 7.05037 15.0944C6.76631 14.0779 6.53682 13.0497 6.37024 11.9985L8.91352 10.5301C9.00302 11.2006 9.1191 11.8465 9.27179 12.4891L8.46038 12.9579L8.47495 13.0254L8.47495 13.0254C8.4854 13.0743 8.49584 13.123 8.50746 13.1715L8.56258 13.4023C8.61899 13.6391 8.67539 13.8758 8.73522 14.1117C8.7847 14.3068 8.83993 14.5005 8.89513 14.6941L8.91614 14.7678L8.95571 14.9075C9.01053 15.1016 9.06535 15.2958 9.1271 15.4877C9.18387 15.6641 9.24664 15.8386 9.30942 16.0131L9.30944 16.0131L9.30951 16.0133C9.33254 16.0773 9.35557 16.1413 9.37829 16.2054L9.37863 16.2064C9.40983 16.2944 9.42534 16.3381 9.41837 16.3779C9.41147 16.4172 9.38259 16.4527 9.32517 16.5233L9.32454 16.5241C9.20198 16.6747 9.07975 16.8257 8.95604 16.9784L8.95566 16.9789L8.78695 17.1871ZM15.0001 11.7681C14.7802 11.914 13.7137 12.8564 13.1779 13.3771L12.9782 13.5682C13.2071 14.1995 13.4494 14.8293 13.7533 15.4464C13.8182 15.3823 13.8821 15.3188 13.9454 15.2559C14.088 15.1143 14.2277 14.9756 14.3693 14.8388C14.511 14.7019 14.6547 14.5669 14.8003 14.4301C14.8646 14.3697 14.9293 14.3089 14.9945 14.2474C15.0611 14.3102 15.1271 14.3721 15.1924 14.4333C15.3395 14.5713 15.4834 14.7062 15.6253 14.8432C15.7672 14.98 15.907 15.1189 16.047 15.2578C16.1084 15.3188 16.1698 15.3798 16.2315 15.4406C16.235 15.4369 16.2376 15.4344 16.2395 15.4324C16.2425 15.4295 16.244 15.428 16.2448 15.4263C16.5315 14.8409 16.7709 14.2361 16.9887 13.6223C17.0017 13.5857 17.0007 13.5574 16.9702 13.5314C16.9586 13.5215 16.948 13.5106 16.9373 13.4996C16.9313 13.4935 16.9254 13.4874 16.9193 13.4815C16.4165 12.9943 15.8987 12.5236 15.3648 12.0708C15.2816 12.0002 15.1974 11.9308 15.1139 11.8621C15.0758 11.8307 15.0378 11.7994 15.0001 11.7681Z" fill="#F3B123"/>
</svg>
