<svg width="30" height="34" viewBox="0 0 30 34" fill="none" xmlns="http://www.w3.org/2000/svg">
<path d="M15.519 1.13901L28.4813 8.62047C28.8024 8.80579 29 9.14818 29 9.51854V24.4815C29 24.8518 28.8024 25.1942 28.4813 25.3795L15.519 32.861C15.1978 33.0463 14.8022 33.0463 14.481 32.861L1.51874 25.3795C1.19765 25.1942 1 24.8518 1 24.4815V9.51854C1 9.14818 1.19765 8.8058 1.51874 8.62047L14.481 1.13901C14.8022 0.953664 15.1978 0.953664 15.519 1.13901Z" fill="#C7AC84" stroke="#E3CAA8" stroke-width="2"/>
<path d="M15.7689 0.705963L28.7312 8.18742C29.207 8.46203 29.5 8.96947 29.5 9.51854V24.4815C29.5 25.0305 29.207 25.538 28.7312 25.8126L15.7689 33.294C15.2931 33.5687 14.7069 33.5687 14.2311 33.294L1.2688 25.8126C0.793015 25.538 0.5 25.0305 0.5 24.4815V9.51854C0.5 8.96947 0.793015 8.46203 1.2688 8.18742L14.2311 0.705962C14.7069 0.431346 15.2931 0.431346 15.7689 0.705963Z" stroke="#C7AC84"/>
</svg>
