<?xml version="1.0" encoding="utf-8"?>
<svg xmlns="http://www.w3.org/2000/svg">
    <defs>
        <symbol id="amber" viewBox="0 0 30 34" fill="none">
            <path style="fill:var(--Filter-Base); stroke:var(--Filter-Icon);" stroke-width="2" d="M15.519 1.13901L28.4813 8.62047C28.8024 8.80579 29 9.14818 29 9.51854V24.4815C29 24.8518 28.8024 25.1942 28.4813 25.3795L15.519 32.861C15.1978 33.0463 14.8022 33.0463 14.481 32.861L1.51874 25.3795C1.19765 25.1942 1 24.8518 1 24.4815V9.51854C1 9.14818 1.19765 8.8058 1.51874 8.62047L14.481 1.13901C14.8022 0.953664 15.1978 0.953664 15.519 1.13901Z" />
            <path style="stroke:var(--Filter-Base);" d="M15.7689 0.705963L28.7312 8.18742C29.207 8.46203 29.5 8.96947 29.5 9.51854V24.4815C29.5 25.0305 29.207 25.538 28.7312 25.8126L15.7689 33.294C15.2931 33.5687 14.7069 33.5687 14.2311 33.294L1.2688 25.8126C0.793015 25.538 0.5 25.0305 0.5 24.4815V9.51854C0.5 8.96947 0.793015 8.46203 1.2688 8.18742L14.2311 0.705962C14.7069 0.431346 15.2931 0.431346 15.7689 0.705963Z" />
            <path style="fill:var(--Filter-Icon);" fill-rule="evenodd" clip-rule="evenodd" d="M20.133 11.9142L20.133 11.9142L20.133 11.9142C20.1365 11.8905 20.1401 11.8659 20.1447 11.8399C20.2646 11.3532 20.4188 10.3065 20.3959 10.139L20.3728 10.1251C20.3555 10.1147 20.3376 10.1039 20.3195 10.0934L19.3643 9.54156C17.9468 8.72277 16.5293 7.90397 15.113 7.08299C15.023 7.03082 14.9566 7.03679 14.87 7.08696C13.6225 7.80971 12.3739 8.53065 11.1254 9.25159L10.1836 9.79544C10.0456 9.87516 9.9077 9.95515 9.76773 10.0363L9.56947 10.1513C9.57617 10.2109 9.58242 10.2703 9.58865 10.3296L9.58865 10.3297C9.6029 10.4653 9.61708 10.6002 9.63643 10.7344C9.65278 10.8479 9.67405 10.9606 9.69531 11.0733L9.69532 11.0734L9.69532 11.0734L9.69532 11.0734L9.69534 11.0735C9.70788 11.1399 9.72042 11.2064 9.73195 11.273C9.8937 12.2073 10.1238 13.1247 10.4154 14.0265C10.5078 14.3123 10.6094 14.5954 10.7129 14.8775C10.8714 15.3095 11.048 15.7341 11.2385 16.1532C11.5652 16.8716 11.9314 17.569 12.3411 18.2434C13.464 20.0917 14.8573 21.7032 16.5514 23.0513C16.5649 23.0621 16.5773 23.0742 16.5902 23.0868C16.5963 23.0928 16.6025 23.0989 16.609 23.105L16.5863 23.1317C16.5718 23.1489 16.5586 23.1645 16.5449 23.1795C16.0829 23.6841 15.5911 24.1578 15.0691 24.6002C14.9978 24.6607 14.9916 24.6603 14.9153 24.5953C14.3919 24.1495 13.8967 23.6744 13.4329 23.1668C13.421 23.1538 13.4102 23.1398 13.3981 23.1243C13.3921 23.1166 13.3858 23.1084 13.3789 23.0999C13.7594 22.7913 14.1332 22.4823 14.4783 22.1506L13.2348 20.7581L12.1968 21.6487C11.7414 21.0256 11.3386 20.3874 10.9573 19.7142L9.74305 21.3465C9.75008 21.3591 9.75607 21.3702 9.76152 21.3804L9.76155 21.3804C9.7718 21.3995 9.78011 21.415 9.78974 21.4296C9.86604 21.5454 9.94154 21.6618 10.017 21.7781C10.1894 22.0438 10.3618 22.3095 10.5439 22.5684C11.1847 23.4799 11.9007 24.329 12.7007 25.1056C13.3953 25.7799 14.1595 26.3689 14.9517 26.9229C14.9606 26.9291 14.9704 26.9341 14.9804 26.9392C14.9851 26.9416 14.9899 26.944 14.9947 26.9466L15.0883 26.8814L15.0889 26.881C15.1546 26.8352 15.2189 26.7904 15.2833 26.7457C16.1828 26.1224 17.022 25.43 17.769 24.6261C18.6864 23.6389 19.4972 22.5725 20.2039 21.4259C20.2133 21.4106 20.2216 21.3945 20.2301 21.3781L20.2425 21.3546C19.85 20.8017 19.449 20.2601 19.0327 19.7278C18.9705 19.8299 18.9092 19.9311 18.8484 20.0317C18.7109 20.2588 18.5757 20.4823 18.4368 20.7037C18.2373 21.0218 18.0259 21.3321 17.802 21.6341C16.4359 20.5892 14.6886 18.7756 13.3976 16.2917C12.5506 14.6619 11.9638 12.9439 11.622 11.1414L11.6483 11.1246C11.6624 11.1156 11.6733 11.1085 11.6846 11.102L12.3422 10.7224L12.3429 10.722C13.2034 10.2252 14.064 9.72846 14.9236 9.2301C14.9832 9.19557 15.0248 9.20215 15.0807 9.23451C15.9069 9.71314 16.7337 10.1906 17.5606 10.6681L18.2932 11.0912C18.3103 11.1011 18.3269 11.1118 18.3455 11.1239L18.3456 11.1239L18.3457 11.124L18.3458 11.124L18.3458 11.1241L18.3762 11.1436C17.8781 13.7064 16.9237 16.0756 15.4312 18.2197C15.8205 18.7392 16.2325 19.2258 16.6836 19.692C16.7185 19.6435 16.7529 19.5959 16.7869 19.5488L16.787 19.5487C16.859 19.4491 16.9293 19.352 16.9977 19.2537C18.0656 17.719 18.8834 16.0587 19.4868 14.2912C19.5732 14.0381 19.6531 13.7827 19.7306 13.5267C19.8822 13.0267 20.0054 12.5192 20.1169 12.0089C20.1236 11.9782 20.1282 11.9471 20.133 11.9143L20.133 11.9143L20.133 11.9143L20.133 11.9142ZM8.90689 21.3239L10.1252 19.6678C10.5462 19.1315 10.9631 18.6008 11.382 18.0676L11.3884 18.0594L11.3997 18.045L11.4003 18.0443L11.4085 18.0339C11.0761 17.4474 10.7789 16.8427 10.5018 16.214C9.02281 17.9377 7.68003 19.7438 6.43703 21.6362C7.77283 22.87 9.28489 23.7936 11.0202 24.3465C10.9119 24.2007 10.7998 24.0586 10.6878 23.9167L10.6878 23.9166C10.6114 23.8198 10.535 23.7231 10.46 23.6253C10.2719 23.38 10.0875 23.1315 9.90958 22.8786C9.73361 22.6287 9.56397 22.374 9.39847 22.1169C9.28278 21.9372 9.17118 21.7549 9.0581 21.5701L9.05778 21.5696C9.00793 21.4882 8.95779 21.4063 8.90689 21.3239ZM21.5308 23.1786C20.9387 23.5414 20.328 23.8511 19.6872 24.0992C19.5218 24.1633 19.354 24.2212 19.1861 24.279L19.1861 24.2791L19.186 24.2791L19.186 24.2791L19.1851 24.2794C19.1184 24.3024 19.0517 24.3254 18.9852 24.3488C18.9828 24.3496 18.9791 24.347 18.9735 24.3428C18.9701 24.3403 18.9659 24.3372 18.9609 24.3341C19.7555 23.3988 20.4542 22.397 21.0778 21.3292C20.2917 20.201 19.4594 19.1073 18.5797 18.0443C18.914 17.4523 19.2122 16.8477 19.4905 16.2139C20.9716 17.9351 22.3105 19.7453 23.5555 21.6349C22.9306 22.2177 22.2599 22.7301 21.5308 23.1786ZM22.6825 15.962C22.9796 15.0297 23.2265 14.0841 23.4252 13.117C23.4258 13.1097 23.4259 13.1043 23.426 13.0999V13.0999C23.4261 13.095 23.4261 13.0915 23.4268 13.088L23.4844 12.7932C23.5243 12.5893 23.5642 12.3855 23.6035 12.1815C23.6113 12.141 23.6165 12.1 23.6218 12.0588L23.6218 12.0588L23.6218 12.0587C23.6243 12.0397 23.6267 12.0206 23.6294 12.0014L21.0856 10.5352C21.0719 10.617 21.0586 10.6974 21.0454 10.7769L21.045 10.7795C21.0154 10.9581 20.9866 11.1319 20.9561 11.3054C20.9067 11.586 20.8549 11.8661 20.8022 12.1461C20.7872 12.2257 20.7698 12.3047 20.7522 12.3846C20.7441 12.4211 20.736 12.4578 20.7281 12.4947L21.5364 12.9619C21.2846 14.1323 20.9549 15.2697 20.5544 16.3788L21.9087 18.0816C22.2 17.3787 22.4552 16.6754 22.6825 15.962ZM8.78695 17.1871L8.0971 18.0674C7.97749 17.9047 7.38052 16.2758 7.05037 15.0944C6.76631 14.0779 6.53682 13.0497 6.37024 11.9985L8.91352 10.5301C9.00302 11.2006 9.1191 11.8465 9.27179 12.4891L8.46038 12.9579L8.47495 13.0254L8.47495 13.0254C8.4854 13.0743 8.49584 13.123 8.50746 13.1715L8.56258 13.4023C8.61899 13.6391 8.67539 13.8758 8.73522 14.1117C8.7847 14.3068 8.83993 14.5005 8.89513 14.6941L8.91614 14.7678L8.95571 14.9075C9.01053 15.1016 9.06535 15.2958 9.1271 15.4877C9.18387 15.6641 9.24664 15.8386 9.30942 16.0131L9.30944 16.0131L9.30951 16.0133C9.33254 16.0773 9.35557 16.1413 9.37829 16.2054L9.37863 16.2064C9.40983 16.2944 9.42534 16.3381 9.41837 16.3779C9.41147 16.4172 9.38259 16.4527 9.32517 16.5233L9.32454 16.5241C9.20198 16.6747 9.07975 16.8257 8.95604 16.9784L8.95566 16.9789L8.78695 17.1871ZM15.0001 11.7681C14.7802 11.914 13.7137 12.8564 13.1779 13.3771L12.9782 13.5682C13.2071 14.1995 13.4494 14.8293 13.7533 15.4464C13.8182 15.3823 13.8821 15.3188 13.9454 15.2559C14.088 15.1143 14.2277 14.9756 14.3693 14.8388C14.511 14.7019 14.6547 14.5669 14.8003 14.4301C14.8646 14.3697 14.9293 14.3089 14.9945 14.2474C15.0611 14.3102 15.1271 14.3721 15.1924 14.4333C15.3395 14.5713 15.4834 14.7062 15.6253 14.8432C15.7672 14.98 15.907 15.1189 16.047 15.2578C16.1084 15.3188 16.1698 15.3798 16.2315 15.4406C16.235 15.4369 16.2376 15.4344 16.2395 15.4324C16.2425 15.4295 16.244 15.428 16.2448 15.4263C16.5315 14.8409 16.7709 14.2361 16.9887 13.6223C17.0017 13.5857 17.0007 13.5574 16.9702 13.5314C16.9586 13.5215 16.948 13.5106 16.9373 13.4996C16.9313 13.4935 16.9254 13.4874 16.9193 13.4815C16.4165 12.9943 15.8987 12.5236 15.3648 12.0708C15.2816 12.0002 15.1974 11.9308 15.1139 11.8621C15.0758 11.8307 15.0378 11.7994 15.0001 11.7681Z" />
        </symbol>
        <symbol id="amethyst" viewBox="0 0 30 34" fill="none">
            <path style="fill:var(--Filter-Base); stroke:var(--Filter-Icon);" stroke="currentColor" stroke-width="2" d="M15.519 1.13901L28.4813 8.62047C28.8024 8.80579 29 9.14818 29 9.51854V24.4815C29 24.8518 28.8024 25.1942 28.4813 25.3795L15.519 32.861C15.1978 33.0463 14.8022 33.0463 14.481 32.861L1.51874 25.3795C1.19765 25.1942 1 24.8518 1 24.4815V9.51854C1 9.14818 1.19765 8.8058 1.51874 8.62047L14.481 1.13901C14.8022 0.953664 15.1978 0.953664 15.519 1.13901Z" />
            <path style="stroke:var(--Filter-Base);" d="M15.7689 0.705963L28.7312 8.18742C29.207 8.46203 29.5 8.96947 29.5 9.51854V24.4815C29.5 25.0305 29.207 25.538 28.7312 25.8126L15.7689 33.294C15.2931 33.5687 14.7069 33.5687 14.2311 33.294L1.2688 25.8126C0.793015 25.538 0.5 25.0305 0.5 24.4815V9.51854C0.5 8.96947 0.793015 8.46203 1.2688 8.18742L14.2311 0.705962C14.7069 0.431346 15.2931 0.431346 15.7689 0.705963Z" />
            <path style="fill:var(--Filter-Icon);" d="M11.9342 11.6308C11.8838 11.8153 11.8345 12.0002 11.7828 12.1843C11.7398 12.3373 11.7748 12.4824 11.8433 12.6151C11.8714 12.6693 11.9438 12.7201 12.0034 12.7307C12.0362 12.7365 12.0996 12.6625 12.123 12.6123C12.2517 12.335 12.3504 12.0416 12.4993 11.7762C13.2408 10.455 14.3647 9.64776 15.8458 9.34321C16.5605 9.19627 17.2718 9.20301 17.9669 9.4562C18.082 9.49812 18.1922 9.55342 18.3047 9.60254C18.3016 9.61744 18.2986 9.63233 18.2956 9.64723C18.244 9.64723 18.1924 9.6474 18.1407 9.6472C17.8446 9.6461 17.5661 9.71818 17.302 9.84954C17.2671 9.86692 17.2322 9.88685 17.2026 9.91191C17.1176 9.9839 17.1244 10.0584 17.23 10.0992C17.3162 10.1325 17.411 10.1538 17.5032 10.1594C17.8699 10.1818 18.2374 10.1904 18.6039 10.2142C19.1744 10.2512 19.7255 10.3884 20.2653 10.5686C20.9893 10.8102 21.6668 11.1457 22.2677 11.6215C22.8686 12.0975 23.2589 12.7179 23.4875 13.4449C23.5028 13.4935 23.5181 13.5422 23.5326 13.5911C23.5347 13.5981 23.5321 13.6064 23.5309 13.6314C23.4489 13.5317 23.3858 13.4289 23.2985 13.3545C23.1656 13.2415 23.0222 13.1371 22.8711 13.0504C22.7744 12.9949 22.6539 12.9926 22.5646 13.0845C22.4726 13.1792 22.4499 13.2937 22.4966 13.4206C22.6673 13.8847 22.8447 14.3464 23.0053 14.814C23.2558 15.5433 23.4237 16.2933 23.5089 17.0595C23.5482 17.4129 23.5739 17.7696 23.5755 18.1249C23.5774 18.5638 23.5313 18.9996 23.4519 19.4341C23.3179 20.1671 23.074 20.8586 22.7332 21.5179C22.5125 21.9451 22.245 22.3423 21.9425 22.7159C21.9262 22.736 21.9047 22.7521 21.8611 22.7595C21.8713 22.7267 21.8784 22.6925 21.8921 22.6612C22.1784 22.0039 22.3974 21.3253 22.515 20.6173C22.5495 20.4098 22.5558 20.1974 22.5701 19.9869C22.5878 19.7253 22.6221 19.4623 22.6103 19.2016C22.5901 18.7526 22.5483 18.3041 22.5002 17.8571C22.4143 17.0588 22.1882 16.2974 21.8644 15.5645C21.6501 15.0791 21.3577 14.6426 21.0139 14.2404C20.548 13.6956 20.0048 13.2403 19.3991 12.8586C19.3659 12.8377 19.3318 12.8181 19.2976 12.7989C19.2878 12.7934 19.2759 12.7916 19.2684 12.7892C19.2895 13.031 19.3105 13.2726 19.3316 13.5142C19.3212 13.5186 19.3108 13.523 19.3004 13.5274C19.2495 13.4676 19.2 13.4065 19.1474 13.3482C18.7681 12.9272 18.3293 12.5924 17.758 12.496C17.2137 12.4041 16.6848 12.4519 16.2272 12.8089C15.8655 13.0911 15.6935 13.6912 15.9234 14.1175C16.1358 14.5113 16.1565 14.9331 16.0585 15.3643C16.0526 15.39 16.0466 15.4158 16.0498 15.446C16.2263 15.2688 16.3719 15.0651 16.432 14.826C16.4843 14.618 16.6022 14.5435 16.7944 14.4978C17.1474 14.414 17.5033 14.3645 17.8643 14.3686C19.3954 14.3859 20.6352 15.3349 21.0459 16.7862C21.0541 16.8154 21.0581 16.8459 21.0442 16.888C21.0184 16.8573 20.9915 16.8274 20.9668 16.7959C20.8265 16.6167 20.6603 16.4673 20.45 16.3776C20.3732 16.3449 20.2834 16.3261 20.2003 16.3283C20.0529 16.3322 20.0072 16.4322 20.0951 16.5506C20.2003 16.6924 20.321 16.8228 20.4242 16.966C20.9233 17.6581 21.2305 18.4271 21.3231 19.2769C21.4499 20.4404 21.1906 21.5152 20.5561 22.4967C20.3238 22.8561 20.0318 23.163 19.669 23.397C19.6529 23.4073 19.636 23.4164 19.5994 23.4145C19.6149 23.3834 19.6295 23.3518 19.6459 23.3212C19.8078 23.0197 19.9229 22.7053 19.9033 22.3561C19.9009 22.3132 19.8838 22.2457 19.8567 22.2358C19.8181 22.2217 19.7513 22.2358 19.7189 22.2638C19.6548 22.3191 19.5934 22.3852 19.5526 22.4589C18.8548 23.7205 17.9058 24.7404 16.663 25.4796C16.1381 25.7919 15.5817 26.0302 14.9707 26.086C14.4827 26.1306 13.9919 26.1064 13.5137 25.945C13.6345 25.9253 13.7517 25.9145 13.8644 25.8857C13.9814 25.8558 14.0984 25.8177 14.2071 25.7658C14.2828 25.7297 14.3525 25.6717 14.4109 25.6102C14.5331 25.4815 14.5214 25.3033 14.3618 25.2351C14.1781 25.1567 13.9756 25.11 13.7767 25.0819C12.1555 24.8522 10.608 24.4037 9.22741 23.4965C7.94169 22.6516 7.03385 21.4899 6.467 20.0607C6.45117 20.0208 6.44196 19.9782 6.43201 19.9253C6.43436 19.9137 6.43942 19.9084 6.43942 19.9084C6.64456 20.1612 6.84418 20.4188 7.05596 20.6659C7.53963 21.2302 8.09498 21.7093 8.72695 22.1061C9.45983 22.5663 10.2258 22.9528 11.0557 23.1958C11.5169 23.3308 11.9897 23.4374 12.4644 23.5123C12.818 23.5681 13.1852 23.5861 13.5423 23.5619C14.3019 23.5105 15.0338 23.3202 15.7316 23.0111C15.9596 22.91 16.182 22.7963 16.4103 22.6867C16.1659 22.5794 15.9397 22.4801 15.7136 22.3808C15.7169 22.3707 15.7203 22.3606 15.7236 22.3505C15.8996 22.3083 16.078 22.2743 16.251 22.2225C17.1253 21.9607 17.6907 21.4005 17.8872 20.4966C18.0156 19.9063 17.6434 19.2704 17.0977 19.1462C16.9463 19.1117 16.7868 19.1137 16.6341 19.0833C16.3194 19.0208 16.041 18.882 15.8083 18.6573C15.7816 18.6315 15.753 18.6079 15.7252 18.5833C15.7146 18.5901 15.704 18.5969 15.6934 18.6037C15.7396 18.7049 15.7745 18.8134 15.8345 18.9056C15.9305 19.0529 16.0454 19.1877 16.1471 19.3315C16.1735 19.3688 16.2022 19.4249 16.1931 19.4638C15.9638 20.441 15.4861 21.257 14.6299 21.8158C14.1711 22.1152 13.662 22.2669 13.1163 22.323C12.7132 22.3644 12.3311 22.2815 11.9456 22.1973C11.9317 22.1943 11.9191 22.1851 11.8751 22.164C12.1475 22.1434 12.3834 22.0977 12.5894 21.9642C12.6768 21.9076 12.763 21.8399 12.8264 21.7589C12.863 21.7122 12.8732 21.6229 12.8557 21.5647C12.8465 21.5342 12.75 21.5108 12.6962 21.5164C12.5057 21.5359 12.3166 21.5693 12.1271 21.5976C12.104 21.6011 12.0813 21.6092 12.0583 21.6099C11.6304 21.6223 11.2019 21.6198 10.7813 21.5346C10.0893 21.3943 9.44258 21.1409 8.87011 20.7172C8.18242 20.2082 7.6237 19.5908 7.27548 18.8004C7.12141 18.4508 7.01376 18.0871 7.00262 17.7008C7.00209 17.6825 7.00255 17.6642 7.00255 17.6574C7.15288 17.8404 7.29785 18.0337 7.46162 18.2095C7.5508 18.3052 7.66805 18.3773 7.78069 18.4471C7.81976 18.4713 7.90069 18.4778 7.93048 18.4533C7.96153 18.4278 7.97546 18.347 7.95925 18.3048C7.91041 18.1777 7.8502 18.0537 7.78215 17.9356C7.28501 17.0727 6.95233 16.1505 6.79405 15.1679C6.67037 14.4 6.65006 13.6303 6.83746 12.8685C6.99915 12.2112 7.34769 11.6571 7.81481 11.1738C7.8194 11.1691 7.82887 11.169 7.85844 11.1598C7.83949 11.2096 7.82637 11.2464 7.81161 11.2825C7.72602 11.492 7.66722 11.7074 7.68878 11.9358C7.70003 12.0549 7.73029 12.1756 7.85459 12.228C7.97757 12.2799 8.08453 12.2271 8.17808 12.1453C8.21623 12.1119 8.25352 12.0767 8.28635 12.0382C8.66855 11.5901 9.03972 11.132 9.43387 10.6947C9.93535 10.1383 10.5096 9.66232 11.1232 9.23241C11.917 8.67621 12.7763 8.26417 13.7255 8.05994C14.0841 7.98278 14.4513 7.9302 14.8172 7.90707C15.2306 7.88094 15.647 7.89331 16.0617 7.90354C16.2483 7.90815 16.434 7.94819 16.6202 7.97216C16.6196 7.98459 16.619 7.99703 16.6185 8.00946C16.4391 8.03556 16.2598 8.06253 16.0803 8.08761C15.0725 8.22837 14.1338 8.56464 13.2528 9.07232C12.4753 9.52037 11.7702 10.0598 11.136 10.6945C10.2247 11.6066 9.63045 12.687 9.39367 13.9579C9.31464 14.3821 9.25903 14.8096 9.26564 15.2262C9.46245 15.0985 9.66296 14.9683 9.87187 14.8383C9.88027 14.8384 9.8797 14.8379 9.8797 14.8379C9.82987 15.0147 9.77013 15.1894 9.7329 15.3688C9.69249 15.5634 9.65121 15.7621 9.64861 15.9596C9.64141 16.5073 9.83647 16.9857 10.1877 17.4042C10.4156 17.6759 10.6912 17.8749 11.047 17.9154C11.4575 17.9622 11.8205 17.8518 12.0672 17.4918C12.3474 17.0829 12.7111 16.7981 13.2396 16.6966C13.174 16.6786 13.1413 16.6665 13.1075 16.6613C13.0688 16.6555 13.029 16.6517 12.9901 16.6541C12.7466 16.6694 12.5034 16.6891 12.2598 16.7006C12.2191 16.7025 12.1668 16.6822 12.1368 16.6541C11.48 16.0389 11.0369 15.3034 10.9206 14.3998C10.7995 13.4588 11.063 12.6229 11.6607 11.8908C11.7372 11.7971 11.8276 11.7147 11.9212 11.6276C11.9309 11.628 11.9342 11.6308 11.9342 11.6308ZM15.7001 18.5569C15.6966 18.5567 15.6931 18.5565 15.6895 18.5563C15.6912 18.5585 15.6928 18.5608 15.7001 18.5569Z" />
        </symbol>
        <symbol id="emerald" viewBox="0 0 30 34" fill="none">
            <path style="fill:var(--Filter-Base); stroke:var(--Filter-Icon);" stroke="currentColor" stroke-width="2" d="M15.519 1.13901L28.4813 8.62047C28.8024 8.80579 29 9.14818 29 9.51854V24.4815C29 24.8518 28.8024 25.1942 28.4813 25.3795L15.519 32.861C15.1978 33.0463 14.8022 33.0463 14.481 32.861L1.51874 25.3795C1.19765 25.1942 1 24.8518 1 24.4815V9.51854C1 9.14818 1.19765 8.8058 1.51874 8.62047L14.481 1.13901C14.8022 0.953664 15.1978 0.953664 15.519 1.13901Z" />
            <path style="stroke:var(--Filter-Base);" d="M15.7689 0.705963L28.7312 8.18742C29.207 8.46203 29.5 8.96947 29.5 9.51854V24.4815C29.5 25.0305 29.207 25.538 28.7312 25.8126L15.7689 33.294C15.2931 33.5687 14.7069 33.5687 14.2311 33.294L1.2688 25.8126C0.793015 25.538 0.5 25.0305 0.5 24.4815V9.51854C0.5 8.96947 0.793015 8.46203 1.2688 8.18742L14.2311 0.705962C14.7069 0.431346 15.2931 0.431346 15.7689 0.705963Z" />
            <path style="fill:var(--Filter-Icon);" fill-rule="evenodd" clip-rule="evenodd" d="M16.515 9.05385C16.2735 8.83874 16.0461 8.61065 15.8385 8.35302C15.5022 7.94629 15.2365 7.50387 15.0117 7.01428C14.7124 7.68219 14.3166 8.26268 13.8162 8.76988C13.3161 9.27684 12.7373 9.67412 12.0763 9.98207C12.8547 10.4745 13.4768 11.1014 13.977 11.8504C14.4753 12.5964 14.8134 13.4116 15.0229 14.3081C15.493 12.5043 16.4096 11.0311 17.9633 9.98759L17.9284 9.97007L17.9283 9.97003L17.9281 9.96993C17.9058 9.95873 17.8856 9.94863 17.8655 9.93831C17.8247 9.91729 17.7835 9.8967 17.7424 9.87611L17.7424 9.87608C17.6498 9.82973 17.5572 9.78337 17.4675 9.73214C17.1274 9.53811 16.808 9.31483 16.515 9.05385ZM6.36376 19.1199L6.36505 19.1555C6.36505 19.1555 6.37113 19.1563 6.38015 19.1533C6.64017 18.774 6.94587 18.45 7.30648 18.1763C7.6495 17.9159 8.02153 17.7078 8.41688 17.5396C8.84194 17.3587 9.28608 17.2545 9.74602 17.224C10.0344 17.2048 10.3234 17.2197 10.6089 17.2653C11.0636 17.3379 11.4987 17.477 11.9155 17.673C12.1803 17.7976 12.4304 17.9478 12.6774 18.1041C12.9825 18.2971 13.2714 18.5109 13.533 18.7595C13.8041 19.0173 14.0486 19.2997 14.2791 19.5942C14.2875 19.6049 14.2979 19.6141 14.3123 19.6268C14.3205 19.634 14.33 19.6424 14.3411 19.6528L14.3317 19.5874C14.3257 19.5447 14.3205 19.5085 14.3144 19.4726C14.3081 19.4359 14.301 19.3991 14.2904 19.3634C14.111 18.7607 13.8935 18.1722 13.6188 17.606C13.3828 17.1194 13.1138 16.6519 12.8003 16.2105C12.453 15.7214 12.0655 15.2695 11.604 14.8825C11.2287 14.5679 10.8222 14.3083 10.3633 14.1336C10.1724 14.0609 9.97717 13.9997 9.77428 13.9808C9.52352 13.9576 9.27215 13.9738 9.02459 14.0241C8.58459 14.1135 8.17562 14.282 7.79065 14.5118C7.32369 14.7905 6.91411 15.1397 6.53168 15.5238C6.41411 15.6418 6.36027 15.7775 6.3606 15.9436C6.36207 16.6831 6.36195 17.4226 6.36182 18.1621L6.36178 19.0435C6.36178 19.0689 6.36277 19.0944 6.36376 19.1199ZM22.4325 22.6945C22.468 22.6727 22.5036 22.6508 22.5392 22.6292C22.5392 22.6292 22.5359 22.6203 22.5254 22.615C22.3277 22.6099 22.144 22.5801 21.9598 22.5497C21.3956 22.4567 20.8622 22.272 20.3547 22.0126C19.9912 21.8268 19.65 21.6052 19.3276 21.3534C18.8891 21.0109 18.4973 20.6214 18.1428 20.1942C17.897 19.8981 17.6571 19.597 17.4173 19.296L17.4171 19.2958L17.407 19.2831C17.0558 18.8424 16.7056 18.4009 16.3577 17.9575C16.1186 17.6527 15.8709 17.3551 15.6033 17.0754C15.2416 16.6972 14.8685 16.3306 14.4788 15.9806C14.1956 15.7262 13.905 15.4815 13.6016 15.2519C13.1184 14.8861 12.6113 14.5589 12.0621 14.2998C12.0408 14.2898 12.0191 14.2808 11.9944 14.2706L11.9943 14.2706L11.9943 14.2706L11.9544 14.254C11.9571 14.2628 11.9588 14.2694 11.9601 14.2744C11.9621 14.2822 11.9632 14.2861 11.9656 14.2887C11.9795 14.3035 11.9939 14.3181 12.0095 14.3311C12.2746 14.5501 12.5186 14.7904 12.7471 15.0473C12.9686 15.2963 13.1744 15.5572 13.3659 15.8296C13.8092 16.4599 14.1748 17.1328 14.4746 17.8424C14.6968 18.3685 14.8799 18.9078 15.0276 19.4592C15.2094 20.1383 15.3257 20.8294 15.3932 21.5286C15.4198 21.8051 15.4395 22.0826 15.4538 22.3601C15.4669 22.6144 15.4725 22.8692 15.4738 23.1238C15.4746 23.2732 15.4689 23.4226 15.4631 23.572L15.4631 23.572L15.4631 23.5721L15.4631 23.5722L15.4631 23.5722C15.4614 23.6161 15.4597 23.66 15.4582 23.7039C15.4513 23.9041 15.4435 24.1042 15.4338 24.3042C15.4298 24.3887 15.4218 24.4732 15.4126 24.5574L15.4024 24.6506C15.3812 24.8451 15.3601 25.0396 15.3353 25.2337L15.3258 25.3086C15.3026 25.492 15.2794 25.6756 15.2447 25.8568C15.1985 26.0984 15.147 26.3389 15.0954 26.5794C15.0724 26.6867 15.0495 26.794 15.0269 26.9014C15.0241 26.9149 15.0223 26.9286 15.0201 26.9458C15.019 26.955 15.0177 26.9652 15.016 26.9769C15.0295 26.9702 15.0417 26.9643 15.0529 26.959C15.0743 26.9487 15.0921 26.9401 15.1093 26.9303L15.1742 26.8931L15.1748 26.8927C15.4268 26.748 15.6788 26.6034 15.9303 26.4578C16.2214 26.2892 16.5124 26.1205 16.8034 25.9517L16.8042 25.9513L16.805 25.9508L16.8058 25.9504L16.8066 25.9499L16.8091 25.9484L16.8134 25.9459L16.8145 25.9453L16.8156 25.9447C17.1873 25.7291 17.5589 25.5136 17.9308 25.2985C18.5083 24.9645 19.086 24.6311 19.6638 24.2978L20.0479 24.0762L20.7903 23.648L20.7933 23.6463C21.2625 23.3757 21.7318 23.1051 22.2007 22.8341C22.2788 22.7889 22.3556 22.7417 22.4324 22.6945L22.4325 22.6945ZM11.2852 24.6936L11.2849 24.6933C11.1196 24.5641 10.9563 24.4363 10.8018 24.2987C10.4949 24.0254 10.2611 23.6902 10.0517 23.3388C9.81363 22.9393 9.63961 22.5134 9.53365 22.0601C9.45987 21.7445 9.41955 21.4246 9.4431 21.1011C9.48404 20.539 9.68884 20.0423 10.055 19.6112C10.3379 19.2781 10.6818 19.0213 11.0498 18.7929C11.0549 18.7897 11.061 18.7879 11.0704 18.7852C11.076 18.7835 11.0828 18.7815 11.0914 18.7787C11.0888 18.7954 11.0865 18.8115 11.0843 18.827L11.0843 18.827C11.0798 18.859 11.0755 18.8888 11.0696 18.9182C11.0087 19.2222 10.9792 19.5293 10.9925 19.8387C11.0185 20.4415 11.1938 20.9938 11.5797 21.4662C11.8979 21.8557 12.2978 22.1367 12.7664 22.3181C13.1307 22.459 13.5079 22.5292 13.9 22.5269C14.1632 22.5253 14.4189 22.4847 14.6719 22.4174C14.6887 22.413 14.7057 22.4095 14.7258 22.4055L14.7597 22.3984C14.7623 22.4248 14.7655 22.4503 14.7686 22.4751L14.7686 22.4751C14.775 22.5274 14.7812 22.577 14.7815 22.6266L14.7831 22.8295V22.8296C14.7855 23.1087 14.7878 23.3879 14.7802 23.6668C14.7737 23.9054 14.754 24.1437 14.7345 24.3818L14.7249 24.4987C14.7074 24.7147 14.6874 24.9308 14.6597 25.1458C14.6072 25.5524 14.5395 25.9567 14.4491 26.3568C14.436 26.4145 14.4227 26.4722 14.4083 26.5343L14.3866 26.6284C14.2033 26.5373 14.0307 26.4353 13.8591 26.3338L13.8591 26.3338L13.859 26.3338C13.7894 26.2926 13.7199 26.2515 13.65 26.2113C13.4056 26.0709 13.1618 25.9295 12.9204 25.7841C12.6818 25.6405 12.4443 25.495 12.2107 25.3435C12.0424 25.2344 11.8768 25.121 11.709 25.0061C11.6411 24.9597 11.5729 24.913 11.5041 24.8663C11.4313 24.8079 11.3583 24.7508 11.2857 24.694L11.2852 24.6936ZM23.6384 18.6257L23.6383 19.3089C23.6382 20.0494 23.638 20.7899 23.6409 21.5305C23.6414 21.6528 23.5874 21.7313 23.493 21.7889C23.3456 21.8788 23.1841 21.9298 23.0105 21.929C22.5306 21.9271 22.0579 21.8703 21.5953 21.7378C20.8605 21.5274 20.2038 21.1695 19.6097 20.692C19.3818 20.5089 19.1611 20.317 18.9657 20.0998C18.7616 19.8729 18.5659 19.6382 18.3738 19.401C18.1622 19.1396 17.9531 18.8762 17.7439 18.6129L17.7435 18.6125C17.6173 18.4536 17.4911 18.2947 17.3643 18.1362C17.3074 18.065 17.2502 17.9939 17.1929 17.9227L17.1927 17.9225L17.1926 17.9224C17.0627 17.761 16.9322 17.5989 16.8026 17.4327C16.8034 17.425 16.8043 17.4238 16.8043 17.4238C16.83 17.437 16.8558 17.4498 16.8816 17.4627C16.9375 17.4906 16.9933 17.5185 17.0477 17.5488C17.5727 17.8419 18.1149 18.099 18.6699 18.33C19.184 18.544 19.7078 18.7299 20.2497 18.8582C20.5258 18.9235 20.8067 18.9721 21.0877 19.0123C21.2811 19.04 21.4786 19.0537 21.6739 19.0506C22.3449 19.0397 22.9921 18.9114 23.6159 18.6254C23.6227 18.6252 23.6272 18.6251 23.6304 18.6252C23.6345 18.6252 23.6365 18.6255 23.6384 18.6257ZM8.83439 20.7481C8.94008 20.2336 9.16795 19.7748 9.49261 19.3546C9.69719 19.0862 9.91348 18.8377 10.1591 18.6169C10.4035 18.3973 10.6757 18.215 10.976 18.047C10.7484 17.9772 10.5359 17.9346 10.3198 17.9161L10.2784 17.9125C10.1034 17.8972 9.92777 17.8819 9.75153 17.9111C9.68734 17.9218 9.62244 17.9294 9.55758 17.9371L9.55756 17.9371L9.55754 17.9371C9.44717 17.9501 9.33691 17.9631 9.23038 17.9908C8.44357 18.1956 7.75817 18.5763 7.21343 19.1901C6.95363 19.4829 6.7588 19.8151 6.62122 20.1812C6.42362 20.707 6.35944 21.2529 6.38065 21.8108C6.38261 21.8622 6.39924 21.9224 6.43044 21.9614C6.48467 22.0293 6.54731 22.0977 6.62092 22.1416C6.89136 22.3029 7.16417 22.4601 7.43699 22.6174L7.43717 22.6175L7.4373 22.6175C7.54967 22.6823 7.66204 22.7471 7.77424 22.8121L8.49729 23.2315L8.49771 23.2318L8.49792 23.2319C8.8469 23.4344 9.19588 23.6369 9.54501 23.8391C9.55839 23.8469 9.57307 23.8524 9.59361 23.8601L9.59363 23.8601L9.59369 23.8601C9.60537 23.8645 9.61894 23.8695 9.63524 23.8761L9.61212 23.8418L9.61211 23.8418L9.61205 23.8417C9.60147 23.826 9.5945 23.8157 9.58789 23.8052C9.55319 23.7499 9.51783 23.695 9.48248 23.6401L9.48244 23.64C9.40207 23.5152 9.32169 23.3903 9.24908 23.2611C9.09012 22.9783 8.98821 22.6714 8.91121 22.3577C8.86044 22.1509 8.81435 21.9406 8.79389 21.7293L8.78677 21.6587C8.77019 21.4977 8.75344 21.335 8.78254 21.1713C8.79413 21.106 8.79999 21.0396 8.80585 20.9733C8.81253 20.8977 8.81921 20.8221 8.83439 20.7481ZM23.5966 16.2008C23.5592 16.1381 23.5226 16.0748 23.4861 16.0115C23.4036 15.8689 23.3212 15.7263 23.2292 15.5901C23.064 15.3457 22.8933 15.1034 22.7048 14.8769C22.5119 14.645 22.3031 14.4245 22.0862 14.2146C21.6524 13.7947 21.169 13.4396 20.6388 13.1483C20.2656 12.9432 19.8777 12.7732 19.4732 12.6414C19.1797 12.5457 18.8812 12.469 18.5749 12.4251C18.4661 12.4095 18.3574 12.3934 18.2486 12.3774C18.0895 12.3538 17.9303 12.3303 17.7709 12.3083C17.6774 12.2954 17.5827 12.2879 17.4883 12.2846C17.3177 12.2788 17.147 12.2746 16.9763 12.2704C16.8925 12.2684 16.8087 12.2663 16.7249 12.2641C16.7084 12.2636 16.6919 12.2622 16.6698 12.2603L16.6698 12.2603L16.6698 12.2603C16.6576 12.2592 16.6438 12.258 16.6274 12.2567C16.6482 12.2252 16.6679 12.1949 16.6869 12.1656C16.7265 12.1048 16.7633 12.0481 16.8021 11.9927C17.0427 11.6486 17.3231 11.339 17.6345 11.0588C17.9799 10.748 18.3633 10.4929 18.7918 10.3081C18.85 10.2829 18.8986 10.2841 18.9567 10.3074C19.4294 10.497 19.8643 10.7528 20.2753 11.0514C20.6056 11.2913 20.9154 11.5548 21.2095 11.8381C21.5355 12.1521 21.8356 12.4881 22.1151 12.8436C22.5242 13.3638 22.872 13.9216 23.1539 14.5202C23.3512 14.9392 23.5081 15.3723 23.5912 15.8293C23.6124 15.9457 23.6213 16.0644 23.6291 16.1911C23.6138 16.2004 23.6052 16.2006 23.5966 16.2008ZM22.944 16.2991C22.6478 15.7724 22.2915 15.2912 21.8584 14.8587C21.4823 14.476 21.0642 14.1582 20.6115 13.8861C20.3055 13.7021 19.9829 13.5506 19.648 13.4261C19.6304 13.4195 19.612 13.4153 19.5936 13.4111C19.585 13.4091 19.5765 13.4071 19.568 13.4049C19.5885 13.4568 19.6174 13.4944 19.6457 13.5313C19.6499 13.5367 19.6541 13.5422 19.6582 13.5476C20.0146 14.0189 20.268 14.5412 20.4281 15.109C20.5138 15.413 20.5738 15.723 20.5935 16.0377C20.6145 16.3732 20.6052 16.7091 20.5362 17.0408C20.4577 17.4185 20.3376 17.7807 20.1446 18.1166C20.1393 18.1259 20.1366 18.1367 20.1341 18.1468C20.133 18.1513 20.1319 18.1557 20.1306 18.1597C20.1344 18.1626 20.1375 18.1652 20.1402 18.1674C20.1449 18.1714 20.1482 18.1742 20.152 18.1752C20.1847 18.184 20.2177 18.1919 20.2506 18.1999C20.6263 18.2909 21.0055 18.3567 21.3917 18.3883C21.6807 18.412 21.9684 18.4109 22.255 18.3783C22.5827 18.341 22.9021 18.2612 23.2071 18.1338C23.3073 18.0919 23.4047 18.0432 23.5037 17.9938C23.5489 17.9712 23.5945 17.9484 23.6408 17.926C23.6276 17.8869 23.6149 17.849 23.6025 17.8119C23.5765 17.7343 23.5517 17.6605 23.5261 17.587C23.3704 17.1404 23.1759 16.7113 22.944 16.2991Z" />
        </symbol>
        <symbol id="ruby" viewBox="0 0 30 34" fill="none">
            <path style="fill:var(--Filter-Base); stroke:var(--Filter-Icon);" stroke="currentColor" stroke-width="2" d="M15.519 1.13901L28.4813 8.62047C28.8024 8.80579 29 9.14818 29 9.51854V24.4815C29 24.8518 28.8024 25.1942 28.4813 25.3795L15.519 32.861C15.1978 33.0463 14.8022 33.0463 14.481 32.861L1.51874 25.3795C1.19765 25.1942 1 24.8518 1 24.4815V9.51854C1 9.14818 1.19765 8.8058 1.51874 8.62047L14.481 1.13901C14.8022 0.953664 15.1978 0.953664 15.519 1.13901Z" />
            <path style="stroke:var(--Filter-Base);" d="M15.7689 0.705963L28.7312 8.18742C29.207 8.46203 29.5 8.96947 29.5 9.51854V24.4815C29.5 25.0305 29.207 25.538 28.7312 25.8126L15.7689 33.294C15.2931 33.5687 14.7069 33.5687 14.2311 33.294L1.2688 25.8126C0.793015 25.538 0.5 25.0305 0.5 24.4815V9.51854C0.5 8.96947 0.793015 8.46203 1.2688 8.18742L14.2311 0.705962C14.7069 0.431346 15.2931 0.431346 15.7689 0.705963Z" />
            <path style="fill:var(--Filter-Icon);" fill-rule="evenodd" clip-rule="evenodd" d="M6.8518 11.9751L7.42598 11.643L7.42934 11.6411C7.85153 11.3969 8.27372 11.1528 8.69602 10.9088C10.0935 10.1016 11.491 9.29439 12.8886 8.48741C13.4837 8.14379 14.0789 7.80045 14.6742 7.4571L15.2194 7.14264C15.2291 7.13705 15.2389 7.13183 15.2502 7.1259L15.2684 7.11621L15.443 7.21656C15.5698 7.28943 15.6967 7.36239 15.8236 7.4356L18.4453 8.94914L19.4398 9.52303L20.6877 10.2432C21.3595 10.6311 22.0313 11.0191 22.7031 11.4072L23.1679 11.6757L23.349 11.7806L23.3494 11.7808C23.5005 11.8685 23.6517 11.9561 23.8038 12.042C23.8505 12.0684 23.8746 12.0974 23.8722 12.1535C23.8706 12.192 23.8727 12.2307 23.8748 12.2695V12.2695C23.8764 12.2987 23.878 12.3278 23.878 12.357L23.8781 14.3854C23.8782 16.8673 23.8782 19.3491 23.8813 21.8309C23.8814 21.9737 23.8398 22.0522 23.7119 22.125C22.9303 22.5697 22.1519 23.0199 21.3736 23.4701L21.3733 23.4703C21.1488 23.6001 20.9244 23.7299 20.6999 23.8596L19.4663 24.5724L19.4633 24.5741C18.8547 24.9258 18.2461 25.2775 17.6374 25.629C16.9107 26.0486 16.1834 26.4673 15.445 26.8859C15.4291 26.8791 15.4247 26.8728 15.4203 26.8666C16.1096 26.3131 16.7762 25.7336 17.4125 25.1198C18.3611 24.2048 19.2324 23.2216 20.01 22.1568C20.5377 21.4342 21.0165 20.6804 21.4455 19.895C21.7193 19.3939 21.9728 18.8828 22.2034 18.3604C22.2113 18.3424 22.2181 18.324 22.2261 18.3023L22.2261 18.3023C22.2302 18.2912 22.2346 18.2792 22.2396 18.2661C22.2157 18.2629 22.1928 18.2594 22.1704 18.2559C22.1236 18.2487 22.0793 18.2419 22.0348 18.2395C21.9553 18.2354 21.8759 18.231 21.7964 18.2266L21.7962 18.2266C21.5366 18.2121 21.277 18.1977 21.0172 18.1927C20.6643 18.1859 20.3106 18.1844 19.9582 18.2009C19.5893 18.2181 19.221 18.2512 18.853 18.2843L18.853 18.2843L18.7502 18.2936C18.5008 18.3159 18.251 18.3414 18.0039 18.381L17.8934 18.3987C17.392 18.4789 16.8902 18.5591 16.3922 18.6576C14.8612 18.9602 13.3662 19.3959 11.8926 19.9065C10.83 20.2747 9.78379 20.6848 8.75115 21.1299C7.87436 21.5079 7.00972 21.9118 6.14351 22.3373C6.12613 22.3291 6.12099 22.3222 6.11584 22.3154C6.24788 22.2254 6.38017 22.1358 6.51246 22.0461C6.80489 21.848 7.09733 21.6499 7.38697 21.4478C8.22603 20.8624 9.0426 20.2468 9.8404 19.6062C10.572 19.0188 11.2859 18.4109 11.9771 17.7764C12.478 17.3166 12.9694 16.847 13.4426 16.3588C14.1717 15.6068 14.8663 14.8244 15.5072 13.9952C16.3242 12.9381 17.0481 11.8229 17.6182 10.6118C17.6384 10.5687 17.6576 10.5251 17.6777 10.4791L17.6777 10.4791L17.7079 10.4106C17.6906 10.4075 17.6745 10.4041 17.659 10.4009L17.659 10.4009C17.6279 10.3943 17.5997 10.3884 17.5712 10.3864C17.4332 10.3766 17.2953 10.3659 17.1574 10.3553L17.1573 10.3553C16.8048 10.3281 16.4524 10.3009 16.0995 10.2875C15.6582 10.2707 15.2156 10.2739 14.7741 10.2862C14.4854 10.2943 14.197 10.3159 13.9087 10.3376L13.9085 10.3376C13.8142 10.3446 13.7199 10.3517 13.6257 10.3583C13.4598 10.3699 13.2936 10.3825 13.129 10.4049C12.7193 10.4605 12.3099 10.518 11.9015 10.582C11.2909 10.6777 10.6885 10.8136 10.0898 10.966C9.07519 11.2241 8.08153 11.5481 7.10303 11.9193L7.07412 11.9304C7.00436 11.9569 6.93414 11.9837 6.85799 12.0061C6.85093 11.9923 6.85136 11.9837 6.8518 11.9751ZM15.5908 11.7063C15.5436 11.7766 15.4967 11.8472 15.4499 11.9177C15.3464 12.0734 15.243 12.229 15.1363 12.3824C14.8083 12.8539 14.4635 13.3127 14.0911 13.7504C13.6877 14.2245 13.2597 14.6751 12.7914 15.0857C11.6636 16.0741 10.4749 16.9848 9.25283 17.8528C8.51584 18.3762 7.76388 18.8768 6.98472 19.3356C6.81795 19.4338 6.64797 19.5266 6.46795 19.6212C6.45216 19.6149 6.44787 19.6093 6.44359 19.6037C6.55061 19.5279 6.65807 19.4527 6.76552 19.3775L6.76553 19.3775C7.00588 19.2092 7.24624 19.0409 7.48174 18.8661C7.98114 18.4954 8.45678 18.0952 8.91581 17.6752C9.26441 17.3562 9.60165 17.0258 9.92275 16.6794C10.3644 16.2029 10.7799 15.7051 11.1277 15.1543C11.2675 14.9328 11.3942 14.7043 11.4841 14.4571C11.533 14.3227 11.5654 14.1856 11.568 14.0413C11.5708 13.8817 11.5021 13.761 11.3797 13.6652C11.2426 13.5578 11.0831 13.501 10.9164 13.4642C10.5378 13.3805 10.1548 13.3859 9.77104 13.4153C9.00886 13.4738 8.2721 13.656 7.53046 13.8706C7.51273 13.8651 7.50872 13.8599 7.5066 13.8533C8.45397 13.393 9.42411 12.9876 10.4227 12.6519C11.2273 12.3814 12.046 12.162 12.8791 11.9988C13.1552 11.9447 13.433 11.8989 13.7113 11.8575C13.8715 11.8336 14.0329 11.8175 14.1943 11.8015L14.316 11.7892L14.3364 11.7872C14.5889 11.7612 14.8415 11.7353 15.0944 11.7141C15.2429 11.7017 15.3923 11.6991 15.5544 11.6962H15.5545L15.5549 11.6962C15.5756 11.7023 15.5832 11.7043 15.5908 11.7063ZM14.1974 25.354C14.1875 25.3653 14.1776 25.3765 14.1675 25.3876C14.1675 25.3876 14.1718 25.3931 14.181 25.3946C14.4709 25.1987 14.7545 25.0055 15.0316 24.8032C15.8449 24.2092 16.6172 23.5657 17.3425 22.8666C17.766 22.4583 18.1688 22.0303 18.5525 21.5841C19.0807 20.9697 19.5613 20.3203 19.9971 19.6375C20.0174 19.6057 20.0367 19.5733 20.0581 19.5373C20.0688 19.5194 20.08 19.5006 20.0921 19.4805C20.0771 19.4805 20.0641 19.4803 20.0525 19.4801C20.0307 19.4798 20.0135 19.4795 19.9965 19.4808C19.9218 19.4863 19.847 19.4922 19.7723 19.498C19.6914 19.5043 19.6105 19.5107 19.5295 19.5166C19.1338 19.5456 18.7385 19.5756 18.3465 19.6414C18.2434 19.6587 18.1395 19.6715 18.0357 19.6844C17.9353 19.6968 17.8349 19.7092 17.7352 19.7257C16.9766 19.8508 16.2337 20.0393 15.5086 20.2946C14.5858 20.6196 13.6777 20.9828 12.7785 21.3683C11.6352 21.8584 10.5084 22.3832 9.41716 22.9817C9.2524 23.072 9.09022 23.1671 8.92803 23.2621C8.85336 23.3059 8.77868 23.3497 8.70376 23.393C8.70882 23.3997 8.71389 23.4064 8.73074 23.413C8.78981 23.3896 8.84151 23.3661 8.89189 23.3431C8.90599 23.3367 8.91998 23.3303 8.934 23.324C9.03676 23.2777 9.13924 23.2308 9.24172 23.1839C9.47571 23.0767 9.7097 22.9696 9.94695 22.8702C10.9003 22.4711 11.8788 22.147 12.886 21.913C13.2226 21.8348 13.5618 21.7695 13.9045 21.719C14.1865 21.6775 14.4684 21.6384 14.7525 21.6259C15.0434 21.613 15.3351 21.6057 15.6248 21.6602C15.7659 21.6867 15.9036 21.7171 16.031 21.7848C16.1848 21.8665 16.265 21.9947 16.279 22.1679C16.296 22.3794 16.2502 22.5795 16.1768 22.7753C16.0579 23.0923 15.8878 23.3819 15.6958 23.6588C15.2817 24.256 14.7932 24.7882 14.2634 25.2838C14.24 25.3057 14.2187 25.3299 14.1974 25.354Z" />
        </symbol>
        <symbol id="sapphire" viewBox="0 0 30 34" fill="none">
            <path style="fill:var(--Filter-Base); stroke:var(--Filter-Icon);" stroke="currentColor" stroke-width="2" d="M15.519 1.13901L28.4813 8.62047C28.8024 8.80579 29 9.14818 29 9.51854V24.4815C29 24.8518 28.8024 25.1942 28.4813 25.3795L15.519 32.861C15.1978 33.0463 14.8022 33.0463 14.481 32.861L1.51874 25.3795C1.19765 25.1942 1 24.8518 1 24.4815V9.51854C1 9.14818 1.19765 8.8058 1.51874 8.62047L14.481 1.13901C14.8022 0.953664 15.1978 0.953664 15.519 1.13901Z" />
            <path style="stroke:var(--Filter-Base);" d="M15.7689 0.705963L28.7312 8.18742C29.207 8.46203 29.5 8.96947 29.5 9.51854V24.4815C29.5 25.0305 29.207 25.538 28.7312 25.8126L15.7689 33.294C15.2931 33.5687 14.7069 33.5687 14.2311 33.294L1.2688 25.8126C0.793015 25.538 0.5 25.0305 0.5 24.4815V9.51854C0.5 8.96947 0.793015 8.46203 1.2688 8.18742L14.2311 0.705962C14.7069 0.431346 15.2931 0.431346 15.7689 0.705963Z" />
            <path style="fill:var(--Filter-Icon);" fill-rule="evenodd" clip-rule="evenodd" d="M16.3392 10.675C15.909 10.8357 15.4865 10.9938 15.0648 11.1541C15.0181 11.1719 14.9812 11.1783 14.9318 11.1541C14.1729 10.7811 13.3743 10.5216 12.5525 10.3293L12.3295 10.2772C12.3373 10.2662 12.3443 10.2558 12.351 10.246C12.3642 10.2264 12.3761 10.2088 12.3897 10.1927C12.602 9.94088 12.8145 9.6892 13.027 9.43752L13.0274 9.43708L13.5269 8.84523C13.7838 8.54074 14.0405 8.23615 14.2972 7.93157L14.9065 7.20877C14.9267 7.18486 14.9474 7.16138 14.97 7.13572L15.005 7.09583L17.6787 10.2698C17.2266 10.4067 16.7868 10.5399 16.3392 10.675ZM17.6131 12.4784C17.3022 12.5646 17.0017 12.6555 16.6888 12.7738C16.7051 12.7837 16.7193 12.7926 16.7323 12.8006L16.7323 12.8006C16.7567 12.8158 16.7765 12.8281 16.7969 12.8392C18.0229 13.5052 19.167 14.2903 20.2196 15.206C20.9907 15.8769 21.7076 16.6005 22.3093 17.4315C22.7072 17.981 23.0562 18.5586 23.3105 19.1898C23.4455 19.5249 23.5467 19.8697 23.594 20.2287C23.6627 20.7495 23.6099 21.2519 23.3622 21.7241C23.1453 22.1376 22.8179 22.4409 22.4176 22.6708C22.0215 22.8984 21.5919 23.0318 21.1462 23.119C20.5416 23.2373 19.9308 23.2423 19.3187 23.2162C19.1526 23.2091 18.9858 23.2009 18.8213 23.1787C17.8739 23.0508 16.9483 22.8341 16.0554 22.4876C16.0454 22.4837 16.0357 22.4789 16.0228 22.4726L15.9978 22.4605L16.0258 22.4459C16.0422 22.4373 16.0562 22.43 16.0705 22.4234C16.6267 22.1692 17.176 21.9012 17.7089 21.6007C17.7566 21.5738 17.7992 21.5659 17.8534 21.5788L17.8691 21.5826L17.8691 21.5826C18.0313 21.6215 18.1939 21.6605 18.3582 21.6879C18.5011 21.7117 18.6465 21.723 18.7912 21.732L18.9185 21.7401L18.9186 21.7401C19.1236 21.7534 19.3288 21.7668 19.5339 21.766C19.9556 21.7643 20.3725 21.7156 20.7706 21.566C21.0965 21.4435 21.3889 21.269 21.6068 20.9884C21.788 20.755 21.876 20.4885 21.8896 20.1954C21.9067 19.828 21.8162 19.4815 21.6834 19.1437C21.5397 18.7783 21.3465 18.4393 21.1317 18.1119C21.1282 18.1065 21.1235 18.1019 21.1174 18.0958L21.1174 18.0958C21.114 18.0925 21.1102 18.0887 21.1059 18.084C21.0996 18.0894 21.0932 18.0945 21.0868 18.0997C21.0733 18.1107 21.0598 18.1216 21.0477 18.1338C20.3852 18.8069 19.6608 19.4063 18.8872 19.947C17.7126 20.7679 16.4541 21.4339 15.1294 21.9768C14.2459 22.3389 13.3454 22.651 12.4185 22.8833C11.9278 23.0063 11.432 23.1016 10.9296 23.1652C10.4627 23.2244 9.99456 23.2426 9.52581 23.2178C8.89604 23.1845 8.28785 23.0551 7.73228 22.7418C6.99508 22.3261 6.55795 21.697 6.43057 20.8597C6.36151 20.4058 6.41662 19.9595 6.54126 19.5194C6.71902 18.8919 7.01244 18.3199 7.36797 17.7771C7.39301 17.7388 7.41872 17.701 7.44489 17.6625L7.4449 17.6625L7.48209 17.6077L8.51205 18.7196L8.49516 18.7511L8.45048 18.8348C8.27889 19.1576 8.14502 19.4941 8.08762 19.8572C8.01951 20.2882 8.0817 20.6905 8.36048 21.0413C8.556 21.2874 8.81173 21.4508 9.09992 21.567C9.37238 21.6768 9.6563 21.7392 9.94743 21.7759C10.3856 21.8311 10.8216 21.8112 11.258 21.7561C11.9479 21.669 12.6129 21.4845 13.2663 21.2526C13.2744 21.2497 13.2824 21.2463 13.2932 21.2416L13.3147 21.2324C13.3013 21.2245 13.2888 21.2169 13.2768 21.2097L13.2766 21.2095L13.2766 21.2095C13.2521 21.1947 13.2298 21.1812 13.2068 21.1688C12.2835 20.6708 11.41 20.0967 10.5799 19.4558C9.78956 18.8457 9.05185 18.1776 8.38606 17.4333C7.75312 16.7258 7.2085 15.9564 6.80866 15.0909C6.63998 14.7258 6.50746 14.3482 6.43582 13.9515C6.34543 13.451 6.35603 12.9573 6.55135 12.479C6.74059 12.0155 7.06237 11.6658 7.48282 11.4025C7.89428 11.1448 8.34639 10.9934 8.81962 10.9008C9.34119 10.7987 9.86882 10.7611 10.3991 10.7833C10.7041 10.796 11.0093 10.8224 11.3124 10.8592C12.088 10.9532 12.8449 11.1324 13.5833 11.3881C13.6757 11.4202 13.7675 11.4538 13.8644 11.4893L13.8645 11.4893C13.9108 11.5063 13.9582 11.5237 14.0075 11.5415C13.9936 11.5494 13.9819 11.5564 13.9715 11.5625C13.9525 11.5738 13.938 11.5824 13.9227 11.5893C13.3622 11.8426 12.8115 12.1155 12.2749 12.4163C12.2398 12.436 12.2094 12.4412 12.1698 12.4328C12.0142 12.3998 11.8582 12.3687 11.7017 12.3411C11.2085 12.2541 10.7112 12.2218 10.2117 12.2513C9.83074 12.2738 9.45598 12.3369 9.10326 12.4935C8.85524 12.6035 8.62996 12.7477 8.4508 12.9545C8.21052 13.2319 8.10844 13.5579 8.11384 13.9227C8.11854 14.24 8.19581 14.5407 8.30871 14.834C8.45097 15.2036 8.64309 15.5472 8.85966 15.8777C8.86558 15.8867 8.87235 15.8952 8.88062 15.9056L8.88063 15.9056L8.8951 15.924C8.90176 15.9184 8.90821 15.9133 8.91442 15.9083C8.92702 15.8982 8.93862 15.8888 8.94903 15.8783C10.05 14.7663 11.3002 13.853 12.6647 13.093C14.0857 12.3015 15.5811 11.6891 17.1445 11.2416C17.5917 11.1135 18.0442 11.0077 18.502 10.9265C18.628 10.9042 18.7554 10.8897 18.8829 10.8752L18.8829 10.8752C18.9836 10.8637 19.0844 10.8522 19.1845 10.8369C19.5654 10.7785 19.9485 10.7672 20.332 10.7817C20.8849 10.8027 21.4265 10.8887 21.9409 11.1045C22.4277 11.3087 22.8404 11.6086 23.1449 12.0459C23.364 12.3605 23.4981 12.7092 23.5626 13.0867C23.6616 13.6661 23.5633 14.2231 23.3742 14.7691C23.1748 15.3446 22.8829 15.8729 22.5391 16.3737C22.5353 16.3792 22.5305 16.3841 22.5255 16.3891L22.5183 16.3966L21.4918 15.2895L21.5057 15.2627C21.5167 15.2416 21.5285 15.219 21.5405 15.1965C21.7179 14.8652 21.8582 14.5205 21.9172 14.1468C22.0226 13.4796 21.7876 12.9221 21.1666 12.5682C20.9042 12.4187 20.6197 12.3292 20.3249 12.2725C19.9327 12.1971 19.5357 12.1826 19.1391 12.2118C18.6422 12.2484 18.1515 12.3305 17.6707 12.4649C17.6625 12.4671 17.6543 12.469 17.645 12.471C17.6357 12.473 17.6254 12.4753 17.6131 12.4784ZM12.5751 14.7954C12.3134 14.9337 12.0625 15.0893 11.8223 15.2623C11.1176 15.7698 10.4696 16.3443 9.84053 16.9412C9.82764 16.9535 9.8158 16.9668 9.80306 16.9812C9.79681 16.9882 9.79035 16.9955 9.78343 17.0031C9.79039 17.0107 9.79687 17.0181 9.8031 17.0253L9.80311 17.0253C9.81579 17.0398 9.82748 17.0531 9.84027 17.0653C10.4385 17.6355 11.0595 18.1789 11.7226 18.6732C12.3418 19.1347 13.0158 19.484 13.7659 19.6782C13.8657 19.704 13.9666 19.7257 14.0701 19.748L14.0701 19.748C14.1187 19.7585 14.1678 19.7691 14.2177 19.7802C14.2183 19.7664 14.2192 19.7542 14.22 19.7431C14.2215 19.7219 14.2228 19.7046 14.2213 19.6876L14.2123 19.5791C14.2027 19.4604 14.193 19.3416 14.1785 19.2234C14.1296 18.8231 14.0303 18.4363 13.8515 18.073C13.6144 17.5913 13.2591 17.2325 12.7555 17.0301C12.7466 17.0265 12.7381 17.022 12.7268 17.0161C12.7226 17.0139 12.7181 17.0115 12.7129 17.0089C12.7104 17.0076 12.7078 17.0062 12.705 17.0048C12.7141 17 12.7218 16.9958 12.7285 16.9922C12.7407 16.9855 12.7498 16.9805 12.7595 16.9765C13.2913 16.7605 13.6563 16.3743 13.8888 15.8579C14.1139 15.3581 14.2014 14.8277 14.222 14.2838C14.2223 14.2757 14.2199 14.2675 14.2168 14.2566L14.2168 14.2566C14.215 14.2506 14.213 14.2438 14.2111 14.2358C13.6375 14.3318 13.1012 14.5246 12.5751 14.7954ZM16.2972 19.6602C16.349 19.6432 16.4009 19.6268 16.4529 19.6103C16.566 19.5745 16.679 19.5387 16.7901 19.4976C17.4374 19.258 18.0114 18.8926 18.5521 18.4693C19.0478 18.0814 19.5213 17.6679 19.9805 17.238C20.0352 17.1868 20.0845 17.13 20.1365 17.07L20.1365 17.0699L20.1366 17.0699C20.1615 17.0412 20.187 17.0117 20.2141 16.9818L20.1986 16.969L20.1986 16.969C20.1836 16.9568 20.1649 16.9415 20.1472 16.9251C20.0874 16.87 20.0279 16.8146 19.9684 16.7593L19.9683 16.7592C19.8586 16.6572 19.749 16.5551 19.6376 16.4548C19.1525 16.0177 18.6534 15.5973 18.12 15.2196C17.4776 14.7648 16.7741 14.4444 16.004 14.2763C15.988 14.2728 15.9719 14.2684 15.9555 14.264C15.8985 14.2485 15.8389 14.2322 15.7729 14.251C15.7766 14.2939 15.7801 14.3364 15.7836 14.3786L15.7836 14.3789C15.7912 14.4704 15.7987 14.5603 15.8078 14.6501C15.8469 15.0372 15.9274 15.4151 16.0785 15.7749C16.3119 16.3308 16.6842 16.7532 17.2553 16.9809C17.2637 16.9842 17.2709 16.9907 17.2792 16.9981C17.2834 17.002 17.288 17.006 17.2931 17.0101L17.265 17.0219L17.2195 17.041C16.9108 17.1728 16.6471 17.3644 16.4349 17.6261C16.2039 17.9108 16.056 18.2366 15.9538 18.5853C15.8685 18.8764 15.8224 19.1749 15.7928 19.476C15.7863 19.5414 15.7833 19.6071 15.78 19.6777L15.78 19.6778C15.7784 19.7116 15.7768 19.7465 15.7747 19.7831C15.9526 19.742 16.1171 19.704 16.2972 19.6602ZM15.0197 26.8895C15.4368 26.3948 15.8583 25.8949 16.2845 25.3897C16.7502 24.8377 17.2111 24.2913 17.6785 23.7371C17.6662 23.7329 17.6559 23.7292 17.6469 23.7259C17.6307 23.7201 17.6186 23.7157 17.6062 23.7131C16.7339 23.5253 15.8902 23.2527 15.087 22.8611C15.0296 22.8331 14.9821 22.8333 14.924 22.858C14.1455 23.1896 13.3441 23.4539 12.5267 23.671C12.4828 23.6827 12.4392 23.6951 12.3959 23.7075C12.3758 23.7132 12.3559 23.7189 12.336 23.7245C12.3372 23.7309 12.3378 23.7361 12.3383 23.7402C12.3391 23.7471 12.3396 23.7513 12.3419 23.754C13.2118 24.7889 14.082 25.8235 14.9525 26.858C14.961 26.8681 14.971 26.8771 14.9809 26.886C14.9836 26.8884 14.9862 26.8908 14.9888 26.8932C14.991 26.8952 14.9952 26.8956 14.9985 26.8958C15.0005 26.8959 15.0024 26.8955 15.0065 26.8948C15.0089 26.8943 15.0122 26.8938 15.0167 26.893L15.0197 26.8895Z" />
        </symbol>
        <symbol id="steel" viewBox="0 0 30 34" fill="none">
            <path style="fill:var(--Filter-Base); stroke:var(--Filter-Icon);" stroke="currentColor" stroke-width="2" d="M15.519 1.13901L28.4813 8.62047C28.8024 8.80579 29 9.14818 29 9.51854V24.4815C29 24.8518 28.8024 25.1942 28.4813 25.3795L15.519 32.861C15.1978 33.0463 14.8022 33.0463 14.481 32.861L1.51874 25.3795C1.19765 25.1942 1 24.8518 1 24.4815V9.51854C1 9.14818 1.19765 8.8058 1.51874 8.62047L14.481 1.13901C14.8022 0.953664 15.1978 0.953664 15.519 1.13901Z" />
            <path style="stroke:var(--Filter-Base);" d="M15.7689 0.705963L28.7312 8.18742C29.207 8.46203 29.5 8.96947 29.5 9.51854V24.4815C29.5 25.0305 29.207 25.538 28.7312 25.8126L15.7689 33.294C15.2931 33.5687 14.7069 33.5687 14.2311 33.294L1.2688 25.8126C0.793015 25.538 0.5 25.0305 0.5 24.4815V9.51854C0.5 8.96947 0.793015 8.46203 1.2688 8.18742L14.2311 0.705962C14.7069 0.431346 15.2931 0.431346 15.7689 0.705963Z" />
            <path style="fill:var(--Filter-Icon);" d="M19.9868 10.176C20.1258 10.2534 20.2659 10.329 20.4036 10.4086C21.3499 10.955 22.2956 11.5026 23.2423 12.0484C23.2959 12.0793 23.3291 12.1073 23.3288 12.1789C23.3254 12.9939 23.3261 13.8089 23.3205 14.6357C23.3121 14.6522 23.3105 14.6574 23.3106 14.6631C23.0749 14.9315 22.8392 15.2 22.5957 15.4766C22.5818 15.4905 22.5811 15.4967 22.5855 15.5036C22.5845 15.5375 22.5827 15.5715 22.5827 15.6054C22.5825 16.5267 22.5826 17.4479 22.5826 18.3691C22.5826 18.4028 22.5826 18.4364 22.5826 18.4732C22.7033 18.5435 22.8204 18.6121 22.9378 18.6799C23.1438 18.7987 23.3495 18.9181 23.5566 19.0349C23.5999 19.0593 23.6189 19.0871 23.6188 19.1387C23.6172 20.0158 23.6176 20.8928 23.6174 21.7699C23.6174 21.7832 23.615 21.7966 23.613 21.817C20.7448 23.474 17.8746 25.1321 15.0019 26.7917C14.8333 26.6945 14.6686 26.6 14.5042 26.505C12.2892 25.2254 10.0743 23.9458 7.85944 22.6661C7.37706 22.3874 6.89496 22.1082 6.40577 21.8216C6.39657 21.8092 6.39296 21.8059 6.38801 21.8042C6.38626 21.7704 6.38299 21.7366 6.38298 21.7027C6.3827 20.86 6.3837 20.0173 6.38111 19.1745C6.38088 19.1014 6.40024 19.0593 6.46637 19.0225C6.75709 18.8606 7.04433 18.6924 7.33276 18.5264C7.36192 18.5097 7.39057 18.492 7.42158 18.4735C7.42158 18.4365 7.42159 18.4027 7.42159 18.3689C7.42159 17.4412 7.42107 16.5135 7.42269 15.5858C7.42281 15.5209 7.40714 15.4708 7.36273 15.4215C7.1513 15.1867 6.94442 14.9478 6.73352 14.7125C6.69436 14.6688 6.67928 14.6245 6.67939 14.5664C6.68093 13.7746 6.68156 12.9829 6.67862 12.1911C6.67833 12.1149 6.70728 12.0778 6.76995 12.0417C7.84706 11.4216 8.92281 10.7992 10.0102 10.1745C10.0252 10.1725 10.0287 10.1732 10.0322 10.174C10.0325 12.2086 10.0327 14.2431 10.0329 16.2776C10.033 16.5018 10.0334 16.726 10.035 16.9649C10.0478 16.9764 10.0594 16.9732 10.071 16.97C10.3997 16.7803 10.7285 16.5906 11.0677 16.3964C11.0839 16.3876 11.085 16.3823 11.0813 16.3761C11.0831 16.3321 11.0866 16.2881 11.0866 16.2441C11.0869 13.9341 11.0868 11.624 11.0868 9.3139C11.0868 9.29012 11.0904 9.26567 11.0862 9.24268C11.0727 9.1696 11.1114 9.1332 11.1701 9.10033C11.3479 9.0009 11.5232 8.89704 11.6995 8.79502C12.5986 8.27472 13.4977 7.75446 14.3969 7.23425C14.4057 7.22917 14.415 7.22496 14.4333 7.22187C14.4426 7.22339 14.4481 7.22322 14.4481 7.22322C14.4497 7.25368 14.4527 7.28414 14.4527 7.31459C14.4528 12.0115 14.4528 16.7084 14.4528 21.4054C14.4528 21.4156 14.4524 21.4258 14.446 21.4456C14.4326 21.456 14.4254 21.4568 14.4183 21.4577C14.0347 21.0871 13.6512 20.7165 13.2677 20.3459C12.6203 19.7204 11.973 19.0948 11.3189 18.4586C11.2965 18.4362 11.2808 18.4243 11.2651 18.4124C11.262 18.4163 11.259 18.4201 11.2559 18.424C11.2677 18.4434 11.2796 18.4628 11.2914 18.4821C11.5954 19.1349 11.8993 19.7877 12.2035 20.4404C12.4417 20.9514 12.6803 21.4623 12.9186 21.9734C12.9284 21.9945 12.937 22.0161 12.9549 22.0576C12.8956 22.0468 12.8518 22.04 12.8085 22.0307C12.6632 21.9995 12.5183 21.9669 12.3731 21.9357C12.1889 21.8962 12.0044 21.8579 11.8202 21.8184C11.626 21.7769 11.432 21.7344 11.2379 21.6926C11.0471 21.6515 10.8562 21.6108 10.6654 21.5698C10.4721 21.5282 10.279 21.4862 10.0856 21.4448C9.80455 21.3846 9.52346 21.3244 9.2422 21.265C9.02977 21.2201 8.81712 21.1763 8.60444 21.1326C8.59585 21.1309 8.58598 21.1353 8.56662 21.1385C10.7152 22.3083 12.8561 23.4739 15.0012 24.6417C17.1381 23.4783 19.2751 22.3155 21.4114 21.1514C21.4082 21.1431 21.405 21.1349 21.4017 21.1267C19.956 21.4365 18.5103 21.7462 17.0437 22.0604C17.6102 20.8454 18.1676 19.65 18.7249 18.4547C18.7187 18.4499 18.7125 18.4452 18.7063 18.4404C17.6681 19.4446 16.6298 20.4489 15.5804 21.4586C15.5651 21.465 15.561 21.4659 15.5568 21.4668C15.556 21.4329 15.5545 21.399 15.5545 21.365C15.5544 16.6864 15.5544 12.0078 15.5545 7.32926C15.5545 7.29869 15.5552 7.26811 15.5628 7.2285C15.5734 7.21906 15.5769 7.21866 15.5803 7.21826C16.6151 7.81769 17.6499 8.41711 18.6847 9.01656C18.7376 9.04721 18.7887 9.08175 18.8437 9.10783C18.9012 9.13504 18.9227 9.17638 18.918 9.23732C18.9154 9.27111 18.9177 9.30528 18.9177 9.33928C18.9177 11.6477 18.9183 13.9562 18.9154 16.2647C18.9153 16.355 18.9419 16.4038 19.0205 16.4476C19.3054 16.6064 19.5857 16.7733 19.8679 16.9368C19.8963 16.9532 19.9261 16.9672 19.9682 16.9891C19.9682 14.7225 19.9682 12.4696 19.9733 10.2046C19.983 10.1879 19.9858 10.1824 19.9868 10.176Z" />
        </symbol>
    </defs>
</svg>
