<svg width="200" height="200" viewBox="0 0 200 200" fill="none" xmlns="http://www.w3.org/2000/svg">
<rect x="4.5" y="4.5" width="191" height="191" stroke="#C7AC84"/>
<path d="M20.5 199.5H10.5C10.5 193.977 6.02285 189.5 0.5 189.5V10.5C6.02285 10.5 10.5 6.02285 10.5 0.500001H20.5M179.5 199.5H189.5C189.5 193.977 193.977 189.5 199.5 189.5V10.5C193.977 10.5 189.5 6.02285 189.5 0.5L179.5 0.5M20 0.500001H180M20 199.5H180M195.5 150L199.5 146M4.5 150L0.5 146M195.5 46L199.5 50M4.5 46L0.5 50" stroke="#C7AC84"/>
</svg>
