<svg width="18" height="18" viewBox="0 0 18 18" fill="none" xmlns="http://www.w3.org/2000/svg">
<path d="M1 5C2.52315 4.36578 3.76004 3.30553 4.5 2C4.93205 2.76228 5.53353 3.44094 6.26248 4C6.27479 4.00944 6.28714 4.01885 6.29952 4.02822C6.48426 4.16806 6.67705 4.30026 6.87722 4.42426C6.88965 4.43197 6.90211 4.43964 6.91461 4.44728C7.25632 4.65626 7.61921 4.84145 8 5C7.60529 5.16435 7.22981 5.35732 6.87722 5.57574C6.86839 5.58121 6.85958 5.58669 6.85078 5.59219C6.64669 5.71977 6.45035 5.85591 6.26248 6C5.53353 6.55906 4.93206 7.23772 4.5 8C3.76004 6.69448 2.52315 5.63423 1 5Z" fill="#1C1C1A"/>
<path d="M17 13C15.4769 12.3658 14.24 11.3055 13.5 10C13.0679 10.7623 12.4665 11.4409 11.7375 12C11.7252 12.0094 11.7129 12.0189 11.7005 12.0282C11.5157 12.1681 11.3229 12.3003 11.1228 12.4243C11.1103 12.432 11.0979 12.4396 11.0854 12.4473C10.7437 12.6563 10.3808 12.8414 10 13C10.3947 13.1644 10.7702 13.3573 11.1228 13.5757C11.1316 13.5812 11.1404 13.5867 11.1492 13.5922C11.3533 13.7198 11.5496 13.8559 11.7375 14C12.4665 14.5591 13.0679 15.2377 13.5 16C14.24 14.6945 15.4769 13.6342 17 13Z" fill="#1C1C1A"/>
<path d="M1 8H3.31249C3.42836 8.15977 3.53439 8.32437 3.63003 8.4931C3.80759 8.80638 4.13989 9 4.5 9C4.86011 9 5.19241 8.80638 5.36997 8.4931C5.46561 8.32437 5.57164 8.15977 5.68751 8H17L15 10H14.6875C14.5716 9.84023 14.4656 9.67564 14.37 9.50691C14.1924 9.19362 13.8601 9 13.5 9C13.1399 9 12.8076 9.19362 12.63 9.5069C12.5344 9.67563 12.4284 9.84023 12.3125 10H3L1 8Z" fill="#1C1C1A"/>
<path d="M15 6H8.20674C8.26539 5.97368 8.32461 5.94806 8.3844 5.92317C8.75716 5.76795 9 5.40379 9 5C9 4.59622 8.75716 4.23205 8.3844 4.07683C8.32461 4.05194 8.26538 4.02632 8.20674 4H17L15 6Z" fill="#1C1C1A"/>
<path d="M9.6156 12.0768C9.67539 12.0519 9.73462 12.0263 9.79327 12H1L3 14H9.79326C9.73461 13.9737 9.67539 13.9481 9.6156 13.9232C9.24284 13.768 9 13.4038 9 13C9 12.5962 9.24284 12.232 9.6156 12.0768Z" fill="#1C1C1A"/>
</svg>
