<svg width="18" height="18" viewBox="0 0 18 18" fill="none" xmlns="http://www.w3.org/2000/svg">
<path d="M4 2H10C10.5009 2 10.9157 2.36822 10.9886 2.84871L12 3.11971V3C12 1.89543 11.1046 1 10 1H4C2.89543 1 2 1.89543 2 3V12C2 12.7763 2.4423 13.4493 3.08864 13.7808C3.1006 13.5819 3.13266 13.3813 3.18622 13.1814L3.30907 12.7229C3.11862 12.5409 3 12.2843 3 12V3C3 2.44772 3.44772 2 4 2Z" fill="#1C1C1A"/>
<path d="M8.41336 5.2645L14.2089 6.81742L11.8795 15.5108L6.08399 13.9578L8.41336 5.2645Z" fill="#1C1C1A"/>
<path fill-rule="evenodd" clip-rule="evenodd" d="M8.931 3.33265C7.86407 3.04677 6.76739 3.67993 6.48151 4.74687L4.15214 13.4402C3.86625 14.5071 4.49942 15.6038 5.56635 15.8897L11.3619 17.4426C12.4288 17.7285 13.5255 17.0953 13.8114 16.0284L16.1408 7.33506C16.4266 6.26812 15.7935 5.17145 14.7266 4.88557L8.931 3.33265ZM14.4677 5.85149L8.67218 4.29858C8.13871 4.15564 7.59037 4.47222 7.44743 5.00568L5.11806 13.699C4.97512 14.2325 5.2917 14.7808 5.82517 14.9238L11.6207 16.4767C12.1542 16.6196 12.7025 16.303 12.8455 15.7696L15.1748 7.07624C15.3178 6.54277 15.0012 5.99443 14.4677 5.85149Z" fill="#1C1C1A"/>
</svg>
