<svg width="18" height="18" viewBox="0 0 18 18" fill="none" xmlns="http://www.w3.org/2000/svg">
<g clip-path="url(#clip0_159_5002)">
<path d="M5.5 11C5.5 7.96243 3.03756 5.5 0 5.5C3.03756 5.5 5.5 3.03757 5.5 0C5.5 2.2186 6.81363 4.13039 8.70552 5H16V6H8.70552C6.81363 6.86961 5.5 8.7814 5.5 11Z" fill="#1C1C1A"/>
<path d="M12.5 18C12.5 14.9624 14.9624 12.5 18 12.5C14.9624 12.5 12.5 10.0376 12.5 7C12.5 9.2186 11.1864 11.1304 9.29448 12H2V13H9.29448C11.1864 13.8696 12.5 15.7814 12.5 18Z" fill="#1C1C1A"/>
</g>
<defs>
<clipPath id="clip0_159_5002">
<rect width="18" height="18" fill="white"/>
</clipPath>
</defs>
</svg>
