<svg width="18" height="18" viewBox="0 0 18 18" fill="none" xmlns="http://www.w3.org/2000/svg">
<path d="M10.651 3.09704L14.1339 5.27385L8.3273 8.90296C8.28652 8.92845 8.11488 9 7.83817 9C7.56146 9 7.38982 8.92845 7.34905 8.90296L3.86615 6.72615L9.67273 3.09704C9.71351 3.07155 9.88515 3 10.1619 3C10.4386 3 10.6102 3.07155 10.651 3.09704Z" fill="#1C1C1A"/>
<path fill-rule="evenodd" clip-rule="evenodd" d="M11.711 1.40104C10.8554 0.866319 9.46828 0.866319 8.61272 1.40104L1.64167 5.75795C0.786111 6.29267 0.786111 7.15963 1.64167 7.69435L6.28903 10.599C7.14459 11.1337 8.53172 11.1337 9.38728 10.599L16.3583 6.24205C17.2139 5.70733 17.2139 4.84037 16.3583 4.30565L11.711 1.40104ZM15.8283 5.15365L11.181 2.24904C10.9467 2.10262 10.5805 2 10.1618 2C9.74315 2 9.377 2.10262 9.14272 2.24904L2.17167 6.60595C2.09329 6.65493 2.04736 6.69752 2.02195 6.72615C2.04736 6.75478 2.09329 6.79737 2.17167 6.84635L6.81903 9.75096C7.05331 9.89738 7.41947 10 7.83816 10C8.25685 10 8.623 9.89738 8.85728 9.75096L15.8283 5.39405C15.9067 5.34507 15.9526 5.30248 15.9781 5.27385C15.9526 5.24521 15.9067 5.20263 15.8283 5.15365Z" fill="#1C1C1A"/>
<path d="M1.64167 10.6944C0.817173 10.179 0.787239 9.35519 1.55186 8.81747L2.49254 9.4054L2.17167 9.60595C2.09329 9.65493 2.04736 9.69752 2.02195 9.72615C2.04736 9.75478 2.09329 9.79737 2.17167 9.84635L6.81903 12.751C7.05331 12.8974 7.41947 13 7.83816 13C8.25685 13 8.623 12.8974 8.85728 12.751L15.8283 8.39405C15.9067 8.34507 15.9526 8.30248 15.9781 8.27385C15.9526 8.24521 15.9067 8.20263 15.8283 8.15365L15.5075 7.9531L16.4481 7.36517C17.2128 7.90288 17.1828 8.72674 16.3583 9.24205L9.38728 13.599C8.53172 14.1337 7.14459 14.1337 6.28903 13.599L1.64167 10.6944Z" fill="#1C1C1A"/>
<path d="M1.64167 13.6944C0.817173 13.179 0.787239 12.3552 1.55186 11.8175L2.49254 12.4054L2.17167 12.6059C2.09329 12.6549 2.04736 12.6975 2.02195 12.7262C2.04736 12.7548 2.09329 12.7974 2.17167 12.8464L6.81903 15.751C7.05331 15.8974 7.41947 16 7.83816 16C8.25685 16 8.623 15.8974 8.85728 15.751L15.8283 11.3941C15.9067 11.3451 15.9526 11.3025 15.9781 11.2738C15.9526 11.2452 15.9067 11.2026 15.8283 11.1536L15.5075 10.9531L16.4481 10.3652C17.2128 10.9029 17.1828 11.7267 16.3583 12.2421L9.38728 16.599C8.53172 17.1337 7.14459 17.1337 6.28903 16.599L1.64167 13.6944Z" fill="#1C1C1A"/>
</svg>
