<svg width="18" height="18" viewBox="0 0 18 18" fill="none" xmlns="http://www.w3.org/2000/svg">
<path d="M12 4H5V14H6.41604C6.76394 14.7963 7.31322 15.4844 7.99951 16H5C3.89543 16 3 15.1046 3 14V4C3 2.89543 3.89543 2 5 2H12C13.1046 2 14 2.89543 14 4V7.99963C13.4186 7.56292 12.7389 7.25 12 7.10002V4Z" fill="#D3BA84"/>
<path fill-rule="evenodd" clip-rule="evenodd" d="M14.4462 14.032C14.7981 13.4365 15 12.7418 15 12C15 9.79086 13.2091 8 11 8C8.79086 8 7 9.79086 7 12C7 14.2091 8.79086 16 11 16C11.7418 16 12.4365 15.7981 13.032 15.4462L15.2929 17.7071L16.7071 16.2929L14.4462 14.032ZM11 14C12.1046 14 13 13.1046 13 12C13 10.8954 12.1046 10 11 10C9.89543 10 9 10.8954 9 12C9 13.1046 9.89543 14 11 14Z" fill="#D3BA84"/>
</svg>
