<svg width="18" height="18" viewBox="0 0 18 18" fill="none" xmlns="http://www.w3.org/2000/svg">
<path fill-rule="evenodd" clip-rule="evenodd" d="M13.6064 12.1922C14.4816 11.0236 15 9.57234 15 8C15 4.13401 11.866 1 8 1C4.13401 1 1 4.13401 1 8C1 11.866 4.13401 15 8 15C9.57234 15 11.0236 14.4816 12.1922 13.6064L16.2929 17.7071L17.7071 16.2929L13.6064 12.1922ZM8 13C10.7614 13 13 10.7614 13 8C10.2386 8 8 10.2386 8 13ZM13 8C13 5.23858 10.7614 3 8 3C8 5.76142 10.2386 8 13 8ZM8 3C5.23858 3 3 5.23858 3 8C5.76142 8 8 5.76142 8 3ZM3 8C3 10.7614 5.23858 13 8 13C8 10.2386 5.76142 8 3 8Z" fill="#1C1C1A"/>
</svg>
