<svg width="18" height="18" viewBox="0 0 18 18" fill="none" xmlns="http://www.w3.org/2000/svg">
<path d="M4 2H10C10.5523 2 11 2.44772 11 3V6.58579L12 5.58579V3C12 1.89543 11.1046 1 10 1H4C2.89543 1 2 1.89543 2 3V12C2 13.1046 2.89543 14 4 14H4.61522L4.10051 13.4853L4.58579 13H4C3.44772 13 3 12.5523 3 12V3C3 2.44772 3.44772 2 4 2Z" fill="#1C1C1A"/>
<path d="M10 3V7.58579L5.58579 12H4V3H10Z" fill="#1C1C1A"/>
<path d="M13.2929 5.70711C13.6834 5.31658 14.3166 5.31658 14.7071 5.70711L16.1213 7.12132C16.5118 7.51184 16.5118 8.14501 16.1213 8.53553L14.7071 9.94975L11.8787 7.12132L13.2929 5.70711Z" fill="#1C1C1A"/>
<path fill-rule="evenodd" clip-rule="evenodd" d="M6.68953 15.9417C7.34171 15.8032 7.94606 15.9166 8.34315 16.3137L14 10.6569L11.1716 7.82843L5.51472 13.4853C5.91181 13.8824 6.02518 14.4867 5.88674 15.1389C5.75287 15.7695 5.38356 16.4449 4.80761 17.0208C5.38356 16.4449 6.05891 16.0756 6.68953 15.9417ZM6.93119 14.8972C7.35044 14.8629 7.78362 14.905 8.18779 15.0548L12.5858 10.6569L11.1716 9.24264L6.77358 13.6406C6.92339 14.0448 6.96555 14.478 6.93119 14.8972Z" fill="#1C1C1A"/>
</svg>
