<svg width="40" height="40" viewBox="0 0 40 40" fill="none" xmlns="http://www.w3.org/2000/svg">
<path d="M20 6L32.1244 13V27L20 34L7.87564 27V13L20 6Z" fill="black"/>
<mask id="path-2-outside-1_16_2260" maskUnits="userSpaceOnUse" x="0.174988" y="2.19995" width="40" height="36" fill="black">
<rect fill="white" x="0.174988" y="2.19995" width="40" height="36"/>
<path fill-rule="evenodd" clip-rule="evenodd" d="M16.2207 3.62674C10.024 5.05125 5.13622 9.90311 3.65981 16.0798C4.6945 19.3686 6.52043 22.3067 8.91487 24.6713V21.1355C8.31908 20.7642 7.71816 20.4535 7.11737 20.2198C6.93149 20.1475 6.93149 19.8524 7.11737 19.7801C7.71816 19.5464 8.31908 19.2357 8.91487 18.8644V13.6L10.4612 12.7072C11.048 8.93714 13.1947 5.6834 16.2207 3.62674ZM15.9473 30.4601L18.8043 32.1096C19.2796 32.8479 19.6285 33.4247 19.8229 33.7527C19.902 33.8861 20.098 33.8861 20.1771 33.7527C20.3715 33.4247 20.7204 32.8479 21.1957 32.1096L30.4533 26.7647C30.2792 29.4866 29.6232 32.0775 28.5698 34.4529C26.0607 35.9438 23.1304 36.7999 20 36.7999C13.0428 36.7999 7.07334 32.571 4.52198 26.5434C7.80854 28.8003 11.7218 30.2107 15.9473 30.4601ZM31.5 25.3C31.5 23.8697 31.3727 22.4689 31.1288 21.1084C31.7103 20.7491 32.2965 20.4478 32.8826 20.2198C33.0685 20.1475 33.0685 19.8524 32.8826 19.7801C32.2818 19.5464 31.6809 19.2357 31.0851 18.8644V14.3586C33.7965 16.8107 35.5 20.3564 35.5 24.3C35.5 25.2928 35.3921 26.2603 35.1873 27.1914C34.0072 29.6792 32.2338 31.831 30.0498 33.4638C30.9878 30.9198 31.5 28.1697 31.5 25.3ZM23.3386 9.12749L21.1957 7.8903C20.7204 7.152 20.3715 6.57523 20.1771 6.24716C20.098 6.11376 19.902 6.11376 19.8229 6.24716C19.6285 6.57523 19.2796 7.152 18.8043 7.8903L11.6041 12.0473C12.5057 8.035 15.3368 4.75247 19.0717 3.22516C19.379 3.20843 19.6885 3.19995 20 3.19995C25.827 3.19995 30.9612 6.16658 33.9745 10.6719C31.6233 9.53642 28.986 8.89995 26.2 8.89995C25.2262 8.89995 24.2704 8.97776 23.3386 9.12749ZM34.9578 12.3433C32.4037 10.7927 29.4061 9.89995 26.2 9.89995C25.7213 9.89995 25.2472 9.91985 24.7786 9.95886L25.2911 10.2548C31.4058 11.6381 36.0445 16.9122 36.4684 23.338C36.5492 22.9373 36.6157 22.5315 36.6674 22.121C37.2007 21.5046 37.8331 20.9701 38.541 20.5402C38.9197 20.3102 38.9197 19.6897 38.541 19.4597C37.8331 19.0298 37.2007 18.4953 36.6674 17.8789C36.4189 15.9068 35.8287 14.0412 34.9578 12.3433ZM3.91092 24.8508C6.72271 27.0748 10.1009 28.614 13.7939 29.2168L8.91487 26.4V26.0469C6.46527 23.8314 4.51877 21.0692 3.26793 17.9527C2.7484 18.538 2.13849 19.047 1.45896 19.4597C1.08033 19.6897 1.08033 20.3102 1.45896 20.5402C2.1669 20.9701 2.79927 21.5046 3.33261 22.121C3.45054 23.0571 3.6455 23.9692 3.91092 24.8508ZM20 9.50935L10.9149 14.7547V25.2453L20 30.4906L29.0851 25.2453V14.7547L20 9.50935ZM20 8.35465L9.91487 14.1773V25.8226L20 31.6452L30.0851 25.8226V14.1773L20 8.35465Z"/>
</mask>
<path fill-rule="evenodd" clip-rule="evenodd" d="M16.2207 3.62674C10.024 5.05125 5.13622 9.90311 3.65981 16.0798C4.6945 19.3686 6.52043 22.3067 8.91487 24.6713V21.1355C8.31908 20.7642 7.71816 20.4535 7.11737 20.2198C6.93149 20.1475 6.93149 19.8524 7.11737 19.7801C7.71816 19.5464 8.31908 19.2357 8.91487 18.8644V13.6L10.4612 12.7072C11.048 8.93714 13.1947 5.6834 16.2207 3.62674ZM15.9473 30.4601L18.8043 32.1096C19.2796 32.8479 19.6285 33.4247 19.8229 33.7527C19.902 33.8861 20.098 33.8861 20.1771 33.7527C20.3715 33.4247 20.7204 32.8479 21.1957 32.1096L30.4533 26.7647C30.2792 29.4866 29.6232 32.0775 28.5698 34.4529C26.0607 35.9438 23.1304 36.7999 20 36.7999C13.0428 36.7999 7.07334 32.571 4.52198 26.5434C7.80854 28.8003 11.7218 30.2107 15.9473 30.4601ZM31.5 25.3C31.5 23.8697 31.3727 22.4689 31.1288 21.1084C31.7103 20.7491 32.2965 20.4478 32.8826 20.2198C33.0685 20.1475 33.0685 19.8524 32.8826 19.7801C32.2818 19.5464 31.6809 19.2357 31.0851 18.8644V14.3586C33.7965 16.8107 35.5 20.3564 35.5 24.3C35.5 25.2928 35.3921 26.2603 35.1873 27.1914C34.0072 29.6792 32.2338 31.831 30.0498 33.4638C30.9878 30.9198 31.5 28.1697 31.5 25.3ZM23.3386 9.12749L21.1957 7.8903C20.7204 7.152 20.3715 6.57523 20.1771 6.24716C20.098 6.11376 19.902 6.11376 19.8229 6.24716C19.6285 6.57523 19.2796 7.152 18.8043 7.8903L11.6041 12.0473C12.5057 8.035 15.3368 4.75247 19.0717 3.22516C19.379 3.20843 19.6885 3.19995 20 3.19995C25.827 3.19995 30.9612 6.16658 33.9745 10.6719C31.6233 9.53642 28.986 8.89995 26.2 8.89995C25.2262 8.89995 24.2704 8.97776 23.3386 9.12749ZM34.9578 12.3433C32.4037 10.7927 29.4061 9.89995 26.2 9.89995C25.7213 9.89995 25.2472 9.91985 24.7786 9.95886L25.2911 10.2548C31.4058 11.6381 36.0445 16.9122 36.4684 23.338C36.5492 22.9373 36.6157 22.5315 36.6674 22.121C37.2007 21.5046 37.8331 20.9701 38.541 20.5402C38.9197 20.3102 38.9197 19.6897 38.541 19.4597C37.8331 19.0298 37.2007 18.4953 36.6674 17.8789C36.4189 15.9068 35.8287 14.0412 34.9578 12.3433ZM3.91092 24.8508C6.72271 27.0748 10.1009 28.614 13.7939 29.2168L8.91487 26.4V26.0469C6.46527 23.8314 4.51877 21.0692 3.26793 17.9527C2.7484 18.538 2.13849 19.047 1.45896 19.4597C1.08033 19.6897 1.08033 20.3102 1.45896 20.5402C2.1669 20.9701 2.79927 21.5046 3.33261 22.121C3.45054 23.0571 3.6455 23.9692 3.91092 24.8508ZM20 9.50935L10.9149 14.7547V25.2453L20 30.4906L29.0851 25.2453V14.7547L20 9.50935ZM20 8.35465L9.91487 14.1773V25.8226L20 31.6452L30.0851 25.8226V14.1773L20 8.35465Z" fill="#D3BA84"/>
<path d="M3.65981 16.0798L2.68721 15.8474C2.64515 16.0233 2.65161 16.2074 2.7059 16.3799L3.65981 16.0798ZM16.2207 3.62674L16.7829 4.4538C17.1808 4.18333 17.3297 3.6678 17.1373 3.2268C16.9448 2.7858 16.4656 2.54436 15.9967 2.65216L16.2207 3.62674ZM8.91487 24.6713L8.21222 25.3829C8.49919 25.6663 8.92832 25.7495 9.30045 25.594C9.67259 25.4385 9.91487 25.0747 9.91487 24.6713H8.91487ZM8.91487 21.1355H9.91487C9.91487 20.7903 9.73679 20.4694 9.44379 20.2868L8.91487 21.1355ZM7.11737 20.2198L6.75483 21.1517L6.75483 21.1517L7.11737 20.2198ZM7.11737 19.7801L6.75483 18.8482L6.75483 18.8482L7.11737 19.7801ZM8.91487 18.8644L9.44379 19.7131C9.73679 19.5305 9.91487 19.2096 9.91487 18.8644H8.91487ZM8.91487 13.6L8.41487 12.7339C8.10547 12.9126 7.91487 13.2427 7.91487 13.6H8.91487ZM10.4612 12.7072L10.9612 13.5732C11.2233 13.4219 11.4028 13.16 11.4493 12.8609L10.4612 12.7072ZM18.8043 32.1096L19.6451 31.5683C19.5589 31.4345 19.4421 31.3231 19.3043 31.2436L18.8043 32.1096ZM15.9473 30.4601L16.4473 29.5941C16.3126 29.5163 16.1616 29.471 16.0063 29.4619L15.9473 30.4601ZM19.8229 33.7527L18.9626 34.2625L18.9626 34.2625L19.8229 33.7527ZM20.1771 33.7527L21.0374 34.2625L21.0374 34.2625L20.1771 33.7527ZM21.1957 32.1096L20.6957 31.2436C20.5579 31.3231 20.4411 31.4344 20.3549 31.5682L21.1957 32.1096ZM30.4533 26.7647L31.4513 26.8286C31.4748 26.4606 31.294 26.1096 30.9807 25.9151C30.6674 25.7207 30.2726 25.7144 29.9533 25.8987L30.4533 26.7647ZM28.5698 34.4529L29.0806 35.3125C29.2589 35.2066 29.3998 35.0478 29.4839 34.8583L28.5698 34.4529ZM4.52198 26.5434L5.08806 25.7191C4.72184 25.4676 4.23362 25.4878 3.88951 25.7688C3.5454 26.0498 3.42791 26.5241 3.60108 26.9332L4.52198 26.5434ZM31.1288 21.1084L30.6031 20.2577C30.2539 20.4735 30.0721 20.8808 30.1445 21.2849L31.1288 21.1084ZM32.8826 20.2198L32.5201 19.2878L32.5201 19.2878L32.8826 20.2198ZM32.8826 19.7801L33.2452 18.8482L33.2452 18.8482L32.8826 19.7801ZM31.0851 18.8644H30.0851C30.0851 19.2096 30.2632 19.5305 30.5562 19.7131L31.0851 18.8644ZM31.0851 14.3586L31.7559 13.6169C31.4627 13.3517 31.0407 13.2842 30.6794 13.4446C30.318 13.605 30.0851 13.9633 30.0851 14.3586H31.0851ZM35.1873 27.1914L36.0909 27.62C36.1232 27.5517 36.1478 27.48 36.164 27.4061L35.1873 27.1914ZM30.0498 33.4638L29.1116 33.1179C28.9583 33.5335 29.0968 34.0004 29.4518 34.2653C29.8068 34.5302 30.2938 34.5299 30.6486 34.2647L30.0498 33.4638ZM21.1957 7.8903L20.3549 8.43166C20.4411 8.56545 20.5579 8.67676 20.6957 8.75633L21.1957 7.8903ZM23.3386 9.12749L22.8386 9.99352C23.0377 10.1085 23.2703 10.1513 23.4973 10.1148L23.3386 9.12749ZM20.1771 6.24716L21.0374 5.73737L21.0374 5.73737L20.1771 6.24716ZM19.8229 6.24716L18.9626 5.73737L18.9626 5.73737L19.8229 6.24716ZM18.8043 7.8903L19.3043 8.75632C19.4421 8.67676 19.5589 8.56545 19.6451 8.43165L18.8043 7.8903ZM11.6041 12.0473L10.6284 11.8281C10.5413 12.2155 10.6917 12.6177 11.0116 12.8529C11.3314 13.0882 11.7602 13.1119 12.1041 12.9134L11.6041 12.0473ZM19.0717 3.22516L19.0173 2.22664C18.906 2.23271 18.7964 2.25735 18.6932 2.29956L19.0717 3.22516ZM33.9745 10.6719L33.5396 11.5724C33.9459 11.7686 34.4332 11.6684 34.7292 11.328C35.0252 10.9875 35.0565 10.491 34.8057 10.1159L33.9745 10.6719ZM34.9578 12.3433L35.8475 11.8869C35.7631 11.7223 35.6348 11.5844 35.4767 11.4885L34.9578 12.3433ZM24.7786 9.95886L24.6956 8.96231C24.2599 8.99858 23.8983 9.31371 23.8027 9.74037C23.7072 10.167 23.8999 10.6063 24.2786 10.8249L24.7786 9.95886ZM25.2911 10.2548L24.7911 11.1208C24.8782 11.1711 24.9723 11.2079 25.0704 11.2301L25.2911 10.2548ZM36.4684 23.338L35.4705 23.4038C35.5035 23.904 35.9017 24.3024 36.4019 24.3358C36.9021 24.3691 37.3496 24.027 37.4487 23.5356L36.4684 23.338ZM36.6674 22.121L35.9112 21.4667C35.782 21.616 35.6999 21.8002 35.6752 21.996L36.6674 22.121ZM38.541 20.5402L38.0219 19.6854L38.0219 19.6854L38.541 20.5402ZM38.541 19.4597L38.0219 20.3145L38.0219 20.3145L38.541 19.4597ZM36.6674 17.8789L35.6752 18.0039C35.6999 18.1997 35.782 18.3839 35.9112 18.5332L36.6674 17.8789ZM13.7939 29.2168L13.6328 30.2038C14.1093 30.2816 14.5734 30.0077 14.7357 29.5529C14.898 29.0981 14.7121 28.5923 14.2939 28.3508L13.7939 29.2168ZM3.91092 24.8508L2.95338 25.1391C3.01238 25.335 3.13007 25.5082 3.29056 25.6351L3.91092 24.8508ZM8.91487 26.4H7.91487C7.91487 26.7572 8.10547 27.0873 8.41487 27.266L8.91487 26.4ZM8.91487 26.0469H9.91487C9.91487 25.7643 9.79527 25.4949 9.58565 25.3053L8.91487 26.0469ZM3.26793 17.9527L4.19597 17.5802C4.06691 17.2587 3.78058 17.0268 3.43921 16.9675C3.09783 16.9081 2.75006 17.0297 2.52004 17.2889L3.26793 17.9527ZM1.45896 19.4597L0.939844 18.605L0.939843 18.605L1.45896 19.4597ZM1.45896 20.5402L0.939843 21.3949L0.939843 21.3949L1.45896 20.5402ZM3.33261 22.121L4.32477 21.996C4.3001 21.8002 4.218 21.616 4.08884 21.4667L3.33261 22.121ZM10.9149 14.7547L10.4149 13.8886C10.1055 14.0673 9.91487 14.3974 9.91487 14.7547H10.9149ZM20 9.50935L20.5 8.64333C20.1906 8.46469 19.8094 8.46469 19.5 8.64333L20 9.50935ZM10.9149 25.2453H9.91487C9.91487 25.6025 10.1055 25.9326 10.4149 26.1113L10.9149 25.2453ZM20 30.4906L19.5 31.3566C19.8094 31.5352 20.1906 31.5352 20.5 31.3566L20 30.4906ZM29.0851 25.2453L29.5851 26.1113C29.8945 25.9326 30.0851 25.6025 30.0851 25.2453H29.0851ZM29.0851 14.7547H30.0851C30.0851 14.3974 29.8945 14.0673 29.5851 13.8886L29.0851 14.7547ZM9.91487 14.1773L9.41487 13.3113C9.10547 13.4899 8.91487 13.82 8.91487 14.1773H9.91487ZM20 8.35465L20.5 7.48863C20.1906 7.30999 19.8094 7.30999 19.5 7.48863L20 8.35465ZM9.91487 25.8226H8.91487C8.91487 26.1799 9.10547 26.51 9.41487 26.6886L9.91487 25.8226ZM20 31.6452L19.5 32.5113C19.8094 32.6899 20.1906 32.6899 20.5 32.5113L20 31.6452ZM30.0851 25.8226L30.5851 26.6886C30.8945 26.51 31.0851 26.1799 31.0851 25.8226H30.0851ZM30.0851 14.1773H31.0851C31.0851 13.82 30.8945 13.4899 30.5851 13.3113L30.0851 14.1773ZM4.63241 16.3123C6.02058 10.5048 10.6186 5.94065 16.4448 4.60132L15.9967 2.65216C9.42946 4.16184 4.25186 9.30146 2.68721 15.8474L4.63241 16.3123ZM9.61753 23.9598C7.33665 21.7074 5.59842 18.9096 4.61371 15.7797L2.7059 16.3799C3.79057 19.8276 5.70421 22.9061 8.21222 25.3829L9.61753 23.9598ZM7.91487 21.1355V24.6713H9.91487V21.1355H7.91487ZM6.75483 21.1517C7.28752 21.359 7.83276 21.6394 8.38596 21.9842L9.44379 20.2868C8.80539 19.889 8.14879 19.548 7.47991 19.2878L6.75483 21.1517ZM6.75483 18.8482C6.18838 19.0685 5.97796 19.6005 5.97796 20C5.97796 20.3994 6.18838 20.9314 6.75483 21.1517L7.47992 19.2878C7.86049 19.4359 7.97796 19.7842 7.97796 20C7.97796 20.2157 7.86049 20.564 7.47992 20.7121L6.75483 18.8482ZM8.38596 18.0157C7.83276 18.3605 7.28752 18.6409 6.75483 18.8482L7.47991 20.7121C8.14879 20.4519 8.80539 20.1109 9.44379 19.7131L8.38596 18.0157ZM7.91487 13.6V18.8644H9.91487V13.6H7.91487ZM9.96123 11.8411L8.41487 12.7339L9.41487 14.466L10.9612 13.5732L9.96123 11.8411ZM15.6586 2.79968C12.4106 5.00722 10.1038 8.50119 9.47313 12.5534L11.4493 12.8609C11.9922 9.37308 13.9788 6.35959 16.7829 4.4538L15.6586 2.79968ZM19.3043 31.2436L16.4473 29.5941L15.4473 31.3262L18.3043 32.9756L19.3043 31.2436ZM20.6832 33.2429C20.4835 32.9059 20.1281 32.3184 19.6451 31.5683L17.9635 32.651C18.4312 33.3774 18.7735 33.9435 18.9626 34.2625L20.6832 33.2429ZM19.3168 33.2429C19.6251 32.7228 20.3749 32.7227 20.6832 33.2429L18.9626 34.2625C19.429 35.0496 20.571 35.0495 21.0374 34.2625L19.3168 33.2429ZM20.3549 31.5682C19.8719 32.3184 19.5165 32.9059 19.3168 33.2429L21.0374 34.2625C21.2265 33.9435 21.5688 33.3774 22.0365 32.651L20.3549 31.5682ZM29.9533 25.8987L20.6957 31.2436L21.6957 32.9756L30.9533 27.6308L29.9533 25.8987ZM29.4839 34.8583C30.5844 32.3768 31.2695 29.6705 31.4513 26.8286L29.4553 26.7009C29.2889 29.3028 28.662 31.7781 27.6556 34.0475L29.4839 34.8583ZM20 37.7999C23.3151 37.7999 26.4213 36.8928 29.0806 35.3125L28.0589 33.5932C25.7002 34.9948 22.9456 35.7999 20 35.7999V37.7999ZM3.60108 26.9332C6.30346 33.3176 12.6271 37.7999 20 37.7999V35.7999C13.4585 35.7999 7.84321 31.8244 5.44288 26.1536L3.60108 26.9332ZM16.0063 29.4619C11.9678 29.2235 8.22905 27.876 5.08806 25.7191L3.95589 27.3678C7.38803 29.7246 11.4758 31.1979 15.8884 31.4584L16.0063 29.4619ZM30.1445 21.2849C30.378 22.5874 30.5 23.9292 30.5 25.3H32.5C32.5 23.8103 32.3674 22.3505 32.1131 20.9319L30.1445 21.2849ZM32.5201 19.2878C31.8675 19.5417 31.2267 19.8724 30.6031 20.2577L31.6545 21.9591C32.1939 21.6257 32.7255 21.3539 33.2452 21.1517L32.5201 19.2878ZM32.5201 20.7121C32.1395 20.564 32.022 20.2157 32.022 20C32.022 19.7842 32.1395 19.4358 32.5201 19.2878L33.2452 21.1517C33.8116 20.9314 34.022 20.3994 34.022 20C34.022 19.6005 33.8116 19.0685 33.2452 18.8482L32.5201 20.7121ZM30.5562 19.7131C31.1946 20.1109 31.8512 20.4519 32.5201 20.7121L33.2452 18.8482C32.7125 18.6409 32.1672 18.3605 31.614 18.0157L30.5562 19.7131ZM30.0851 14.3586V18.8644H32.0851V14.3586H30.0851ZM36.5 24.3C36.5 20.062 34.668 16.2506 31.7559 13.6169L30.4144 15.1003C32.9249 17.3708 34.5 20.6507 34.5 24.3H36.5ZM36.164 27.4061C36.3842 26.4049 36.5 25.3655 36.5 24.3H34.5C34.5 25.2201 34.4 26.1156 34.2107 26.9766L36.164 27.4061ZM30.6486 34.2647C32.9616 32.5354 34.8403 30.2563 36.0909 27.62L34.2838 26.7628C33.1742 29.1022 31.5059 31.1266 29.451 32.6629L30.6486 34.2647ZM30.5 25.3C30.5 28.0499 30.0093 30.683 29.1116 33.1179L30.9881 33.8097C31.9663 31.1566 32.5 28.2895 32.5 25.3H30.5ZM20.6957 8.75633L22.8386 9.99352L23.8386 8.26147L21.6957 7.02428L20.6957 8.75633ZM19.3168 6.75696C19.5165 7.09402 19.8719 7.68146 20.3549 8.43166L22.0365 7.34895C21.5688 6.62254 21.2265 6.05645 21.0374 5.73737L19.3168 6.75696ZM20.6832 6.75696C20.3749 7.27716 19.6251 7.27716 19.3168 6.75696L21.0374 5.73737C20.571 4.95036 19.429 4.95036 18.9626 5.73737L20.6832 6.75696ZM19.6451 8.43165C20.1281 7.68146 20.4835 7.09402 20.6832 6.75696L18.9626 5.73737C18.7735 6.05645 18.4312 6.62254 17.9635 7.34895L19.6451 8.43165ZM12.1041 12.9134L19.3043 8.75632L18.3043 7.02427L11.1041 11.1813L12.1041 12.9134ZM18.6932 2.29956C14.6601 3.94879 11.6028 7.49229 10.6284 11.8281L12.5797 12.2666C13.4087 8.57771 16.0134 5.55614 19.4502 4.15076L18.6932 2.29956ZM20 2.19995C19.6704 2.19995 19.3427 2.20892 19.0173 2.22664L19.1261 4.22368C19.4153 4.20793 19.7067 4.19995 20 4.19995V2.19995ZM34.8057 10.1159C31.6147 5.34499 26.1749 2.19995 20 2.19995V4.19995C25.4792 4.19995 30.3077 6.98818 33.1433 11.2278L34.8057 10.1159ZM26.2 9.89995C28.8322 9.89995 31.3211 10.501 33.5396 11.5724L34.4094 9.7714C31.9255 8.57185 29.1398 7.89995 26.2 7.89995V9.89995ZM23.4973 10.1148C24.3768 9.97349 25.2795 9.89995 26.2 9.89995V7.89995C25.1728 7.89995 24.164 7.98202 23.1799 8.14016L23.4973 10.1148ZM26.2 10.9C29.218 10.9 32.0368 11.7398 34.4388 13.1981L35.4767 11.4885C32.7707 9.84565 29.5942 8.89995 26.2 8.89995V10.9ZM24.8615 10.9554C25.3026 10.9187 25.749 10.9 26.2 10.9V8.89995C25.6935 8.89995 25.1918 8.921 24.6956 8.96231L24.8615 10.9554ZM25.7911 9.38873L25.2786 9.09283L24.2786 10.8249L24.7911 11.1208L25.7911 9.38873ZM37.4662 23.2721C37.0128 16.3979 32.0516 10.759 25.5117 9.27941L25.0704 11.2301C30.7599 12.5173 35.0763 17.4266 35.4705 23.4038L37.4662 23.2721ZM35.6752 21.996C35.6266 22.3821 35.564 22.7636 35.4881 23.1403L37.4487 23.5356C37.5343 23.1109 37.6048 22.6809 37.6595 22.246L35.6752 21.996ZM38.0219 19.6854C37.2257 20.169 36.5132 20.7709 35.9112 21.4667L37.4236 22.7753C37.8883 22.2383 38.4405 21.7712 39.0601 21.3949L38.0219 19.6854ZM38.0219 20.3145C37.8544 20.2127 37.825 20.0627 37.825 20C37.825 19.9373 37.8544 19.7872 38.0219 19.6854L39.0601 21.3949C39.6063 21.0631 39.825 20.4879 39.825 20C39.825 19.512 39.6063 18.9368 39.0601 18.605L38.0219 20.3145ZM35.9112 18.5332C36.5132 19.229 37.2257 19.8309 38.0219 20.3145L39.0601 18.605C38.4405 18.2287 37.8883 17.7616 37.4236 17.2246L35.9112 18.5332ZM34.068 12.7997C34.8867 14.396 35.4416 16.1496 35.6752 18.0039L37.6595 17.7539C37.3963 15.664 36.7706 13.6865 35.8475 11.8869L34.068 12.7997ZM13.955 28.2299C10.4345 27.6553 7.21344 26.1879 4.53128 24.0665L3.29056 25.6351C6.23197 27.9616 9.76736 29.5728 13.6328 30.2038L13.955 28.2299ZM8.41487 27.266L13.2939 30.0829L14.2939 28.3508L9.41487 25.5339L8.41487 27.266ZM7.91487 26.0469V26.4H9.91487V26.0469H7.91487ZM2.33989 18.3252C3.64821 21.5849 5.68358 24.4728 8.2441 26.7886L9.58565 25.3053C7.24696 23.1901 5.38933 20.5535 4.19597 17.5802L2.33989 18.3252ZM1.97807 20.3145C2.74236 19.8503 3.42952 19.2771 4.01582 18.6165L2.52004 17.2889C2.06728 17.799 1.53463 18.2438 0.939844 18.605L1.97807 20.3145ZM1.97807 19.6854C2.14559 19.7872 2.17499 19.9373 2.17499 20C2.17499 20.0627 2.14559 20.2127 1.97807 20.3145L0.939843 18.605C0.393694 18.9368 0.174988 19.512 0.174988 20C0.174988 20.4879 0.393694 21.0631 0.939843 21.3949L1.97807 19.6854ZM4.08884 21.4667C3.48683 20.7709 2.7743 20.169 1.97807 19.6854L0.939843 21.3949C1.5595 21.7712 2.11171 22.2383 2.57639 22.7753L4.08884 21.4667ZM4.86846 24.5625C4.61898 23.7339 4.43568 22.8764 4.32477 21.996L2.34046 22.246C2.46541 23.2378 2.67201 24.2046 2.95338 25.1391L4.86846 24.5625ZM11.4149 15.6207L20.5 10.3754L19.5 8.64333L10.4149 13.8886L11.4149 15.6207ZM11.9149 25.2453V14.7547H9.91487V25.2453H11.9149ZM20.5 29.6245L11.4149 24.3792L10.4149 26.1113L19.5 31.3566L20.5 29.6245ZM28.5851 24.3792L19.5 29.6245L20.5 31.3566L29.5851 26.1113L28.5851 24.3792ZM28.0851 14.7547V25.2453H30.0851V14.7547H28.0851ZM19.5 10.3754L28.5851 15.6207L29.5851 13.8886L20.5 8.64333L19.5 10.3754ZM10.4149 15.0433L20.5 9.22068L19.5 7.48863L9.41487 13.3113L10.4149 15.0433ZM10.9149 25.8226V14.1773H8.91487V25.8226H10.9149ZM20.5 30.7792L10.4149 24.9566L9.41487 26.6886L19.5 32.5113L20.5 30.7792ZM29.5851 24.9566L19.5 30.7792L20.5 32.5113L30.5851 26.6886L29.5851 24.9566ZM29.0851 14.1773V25.8226H31.0851V14.1773H29.0851ZM19.5 9.22068L29.5851 15.0433L30.5851 13.3113L20.5 7.48863L19.5 9.22068Z" fill="black" mask="url(#path-2-outside-1_16_2260)"/>
</svg>
