<svg width="50" height="100" viewBox="0 0 50 100" fill="none" xmlns="http://www.w3.org/2000/svg">
<g clip-path="url(#clip0_180_2931)">
<rect width="92" height="92" rx="46" transform="matrix(-1 0 0 1 46 4)" fill="#E3CAA8"/>
<mask id="path-3-inside-1_180_2931" fill="white">
<path fill-rule="evenodd" clip-rule="evenodd" d="M49.4347 42.4568C47.3301 44.2901 46 46.9897 46 50C46 53.0103 47.3301 55.7099 49.4347 57.5432C45.7977 81.5784 25.0502 100 -3.8147e-06 100C-27.6142 100 -50 77.6142 -50 50C-50 22.3858 -27.6142 0 -3.8147e-06 0C25.0502 0 45.7977 18.4216 49.4347 42.4568Z"/>
</mask>
<path fill-rule="evenodd" clip-rule="evenodd" d="M49.4347 42.4568C47.3301 44.2901 46 46.9897 46 50C46 53.0103 47.3301 55.7099 49.4347 57.5432C45.7977 81.5784 25.0502 100 -3.8147e-06 100C-27.6142 100 -50 77.6142 -50 50C-50 22.3858 -27.6142 0 -3.8147e-06 0C25.0502 0 45.7977 18.4216 49.4347 42.4568Z" fill="#E3CAA8"/>
<path d="M49.4347 42.4568L50.4235 42.3072L50.5056 42.8501L50.0916 43.2108L49.4347 42.4568ZM49.4347 57.5432L50.0916 56.7892L50.5056 57.1499L50.4235 57.6928L49.4347 57.5432ZM50.0916 43.2108C48.1957 44.8623 47 47.2909 47 50H45C45 46.6885 46.4645 43.7179 48.7779 41.7027L50.0916 43.2108ZM47 50C47 52.7091 48.1957 55.1377 50.0916 56.7892L48.7779 58.2973C46.4645 56.2821 45 53.3115 45 50H47ZM-3.8147e-06 99C24.5483 99 44.8819 80.9472 48.446 57.3936L50.4235 57.6928C46.7136 82.2096 25.5521 101 -3.8147e-06 101V99ZM-49 50C-49 77.062 -27.062 99 -3.8147e-06 99V101C-28.1665 101 -51 78.1665 -51 50H-49ZM-3.8147e-06 1C-27.062 1 -49 22.938 -49 50H-51C-51 21.8335 -28.1665 -1 -3.8147e-06 -1V1ZM48.446 42.6064C44.8819 19.0528 24.5483 1 -3.8147e-06 1V-1C25.5521 -1 46.7136 17.7904 50.4235 42.3072L48.446 42.6064Z" fill="#C7AC84" mask="url(#path-3-inside-1_180_2931)"/>
<mask id="mask0_180_2931" style="mask-type:alpha" maskUnits="userSpaceOnUse" x="4" y="0" width="42" height="100">
<rect width="42" height="100" transform="matrix(-1 0 0 1 46 0)" fill="#D9D9D9"/>
</mask>
<g mask="url(#mask0_180_2931)">
<rect width="1" height="5" transform="matrix(-1 0 0 1 5 95)" fill="#C7AC84"/>
<rect width="1" height="5" transform="matrix(-1 0 0 1 5 0)" fill="#C7AC84"/>
<rect x="-0.5" y="0.5" width="91" height="91" rx="45.5" transform="matrix(-1 0 0 1 45 4)" stroke="#C7AC84"/>
</g>
<g clip-path="url(#clip1_180_2931)">
<path d="M7.076 50.2649L6.91038 49.9999L7.076 49.7349C8.27863 47.8108 8.88828 45.5972 9.195 43.8466C9.25759 43.4894 9.30734 43.1528 9.34689 42.8434C7.3142 45.7852 4.6279 48.2406 1.49756 49.9999C4.62789 51.7593 7.31419 54.2147 9.34689 57.1565C9.30733 56.8471 9.25758 56.5105 9.195 56.1533C8.88828 54.4028 8.27863 52.1892 7.076 50.2649Z" stroke="#C7AC84"/>
</g>
</g>
<defs>
<clipPath id="clip0_180_2931">
<path d="M50 50C50 22.3858 27.6142 0 0 0V0V100V100C27.6142 100 50 77.6142 50 50V50Z" fill="white"/>
</clipPath>
<clipPath id="clip1_180_2931">
<rect width="10" height="20" fill="white" transform="matrix(-1 0 0 1 10 40)"/>
</clipPath>
</defs>
</svg>
