<svg width="50" height="100" viewBox="0 0 50 100" fill="none" xmlns="http://www.w3.org/2000/svg">
<g clip-path="url(#clip0_180_2931)">
<rect x="4" y="4" width="92" height="92" rx="46" fill="#E3CAA8"/>
<mask id="path-3-inside-1_180_2931" fill="white">
<path fill-rule="evenodd" clip-rule="evenodd" d="M0.565277 42.4568C2.66988 44.2901 4.00002 46.9897 4.00002 50C4.00002 53.0103 2.66988 55.7099 0.565277 57.5432C4.20225 81.5784 24.9498 100 50 100C77.6142 100 100 77.6142 100 50C100 22.3858 77.6142 0 50 0C24.9498 0 4.20225 18.4216 0.565277 42.4568Z"/>
</mask>
<path fill-rule="evenodd" clip-rule="evenodd" d="M0.565277 42.4568C2.66988 44.2901 4.00002 46.9897 4.00002 50C4.00002 53.0103 2.66988 55.7099 0.565277 57.5432C4.20225 81.5784 24.9498 100 50 100C77.6142 100 100 77.6142 100 50C100 22.3858 77.6142 0 50 0C24.9498 0 4.20225 18.4216 0.565277 42.4568Z" fill="#E3CAA8"/>
<path d="M0.565277 42.4568L-0.423467 42.3072L-0.505627 42.8501L-0.0915547 43.2108L0.565277 42.4568ZM0.565277 57.5432L-0.0915547 56.7892L-0.505627 57.1499L-0.423467 57.6928L0.565277 57.5432ZM-0.0915547 43.2108C1.8043 44.8623 3.00002 47.2909 3.00002 50H5.00002C5.00002 46.6885 3.53546 43.7179 1.22211 41.7027L-0.0915547 43.2108ZM3.00002 50C3.00002 52.7091 1.8043 55.1377 -0.0915547 56.7892L1.22211 58.2973C3.53546 56.2821 5.00002 53.3115 5.00002 50H3.00002ZM50 99C25.4517 99 5.11812 80.9472 1.55402 57.3936L-0.423467 57.6928C3.28638 82.2096 24.4479 101 50 101V99ZM99 50C99 77.062 77.062 99 50 99V101C78.1665 101 101 78.1665 101 50H99ZM50 1C77.062 1 99 22.938 99 50H101C101 21.8335 78.1665 -1 50 -1V1ZM1.55402 42.6064C5.11812 19.0528 25.4517 1 50 1V-1C24.4479 -1 3.28638 17.7904 -0.423467 42.3072L1.55402 42.6064Z" fill="#C7AC84" mask="url(#path-3-inside-1_180_2931)"/>
<mask id="mask0_180_2931" style="mask-type:alpha" maskUnits="userSpaceOnUse" x="4" y="0" width="42" height="100">
<rect x="4" width="42" height="100" fill="#D9D9D9"/>
</mask>
<g mask="url(#mask0_180_2931)">
<rect x="45" y="95" width="1" height="5" fill="#C7AC84"/>
<rect x="45" width="1" height="5" fill="#C7AC84"/>
<rect x="4.5" y="4.5" width="91" height="91" rx="45.5" stroke="#C7AC84"/>
</g>
<g clip-path="url(#clip1_180_2931)">
<path d="M42.924 50.2649L43.0896 49.9999L42.924 49.7349C41.7214 47.8108 41.1117 45.5972 40.805 43.8466C40.7424 43.4894 40.6927 43.1528 40.6531 42.8434C42.6858 45.7852 45.3721 48.2406 48.5024 49.9999C45.3721 51.7593 42.6858 54.2147 40.6531 57.1565C40.6927 56.8471 40.7424 56.5105 40.805 56.1533C41.1117 54.4028 41.7214 52.1892 42.924 50.2649Z" stroke="#C7AC84"/>
</g>
</g>
<defs>
<clipPath id="clip0_180_2931">
<path d="M0 50C0 22.3858 22.3858 0 50 0V0V100V100C22.3858 100 0 77.6142 0 50V50Z" fill="white"/>
</clipPath>
<clipPath id="clip1_180_2931">
<rect width="10" height="20" fill="white" transform="translate(40 40)"/>
</clipPath>
</defs>
</svg>
